<svg viewBox="-16 -32 880 192" width="880" height="192" xmlns="http://www.w3.org/2000/svg"><desc>Generated with https://github.com/Platane/snk</desc><style>:root{--cb:#1b1f230a;--cs:purple;--ce:#ebedf0;--c0:#ebedf0;--c1:#9be9a8;--c2:#40c463;--c3:#30a14e;--c4:#216e39}.c{shape-rendering:geometricPrecision;fill:var(--ce);stroke-width:1px;stroke:var(--cb);animation:none 29700ms linear infinite;width:12px;height:12px}@keyframes c0{92.92%{fill:var(--c4)}92.94%,100%{fill:var(--ce)}}.c.c0{fill:var(--c4);animation-name:c0}@keyframes c1{7.4%{fill:var(--c1)}7.42%,100%{fill:var(--ce)}}.c.c1{fill:var(--c1);animation-name:c1}@keyframes c2{63.63%{fill:var(--c2)}63.65%,100%{fill:var(--ce)}}.c.c2{fill:var(--c2);animation-name:c2}@keyframes c3{10.09%{fill:var(--c1)}10.11%,100%{fill:var(--ce)}}.c.c3{fill:var(--c1);animation-name:c3}@keyframes c4{59.25%{fill:var(--c2)}59.27%,100%{fill:var(--ce)}}.c.c4{fill:var(--c2);animation-name:c4}@keyframes c5{59.59%{fill:var(--c2)}59.61%,100%{fill:var(--ce)}}.c.c5{fill:var(--c2);animation-name:c5}@keyframes c6{12.11%{fill:var(--c1)}12.13%,100%{fill:var(--ce)}}.c.c6{fill:var(--c1);animation-name:c6}@keyframes c7{17.5%{fill:var(--c1)}17.52%,100%{fill:var(--ce)}}.c.c7{fill:var(--c1);animation-name:c7}@keyframes c8{81.81%{fill:var(--c4)}81.83%,100%{fill:var(--ce)}}.c.c8{fill:var(--c4);animation-name:c8}@keyframes c9{82.14%{fill:var(--c4)}82.16%,100%{fill:var(--ce)}}.c.c9{fill:var(--c4);animation-name:c9}@keyframes ca{83.15%{fill:var(--c4)}83.17%,100%{fill:var(--ce)}}.c.ca{fill:var(--c4);animation-name:ca}@keyframes cb{29.28%{fill:var(--c1)}29.3%,100%{fill:var(--ce)}}.c.cb{fill:var(--c1);animation-name:cb}@keyframes cc{82.48%{fill:var(--c4)}82.5%,100%{fill:var(--ce)}}.c.cc{fill:var(--c4);animation-name:cc}@keyframes cd{82.82%{fill:var(--c4)}82.84%,100%{fill:var(--ce)}}.c.cd{fill:var(--c4);animation-name:cd}@keyframes ce{27.26%{fill:var(--c1)}27.28%,100%{fill:var(--ce)}}.c.ce{fill:var(--c1);animation-name:ce}@keyframes cf{26.93%{fill:var(--c1)}26.95%,100%{fill:var(--ce)}}.c.cf{fill:var(--c1);animation-name:cf}@keyframes cg{26.59%{fill:var(--c1)}26.61%,100%{fill:var(--ce)}}.c.cg{fill:var(--c1);animation-name:cg}@keyframes ch{18.17%{fill:var(--c1)}18.19%,100%{fill:var(--ce)}}.c.ch{fill:var(--c1);animation-name:ch}@keyframes ci{30.63%{fill:var(--c1)}30.65%,100%{fill:var(--ce)}}.c.ci{fill:var(--c1);animation-name:ci}@keyframes cj{41.74%{fill:var(--c1)}41.76%,100%{fill:var(--ce)}}.c.cj{fill:var(--c1);animation-name:cj}@keyframes ck{41.4%{fill:var(--c1)}41.42%,100%{fill:var(--ce)}}.c.ck{fill:var(--c1);animation-name:ck}@keyframes cl{27.6%{fill:var(--c1)}27.62%,100%{fill:var(--ce)}}.c.cl{fill:var(--c1);animation-name:cl}@keyframes cm{72.38%{fill:var(--c3)}72.4%,100%{fill:var(--ce)}}.c.cm{fill:var(--c3);animation-name:cm}@keyframes cn{26.25%{fill:var(--c1)}26.27%,100%{fill:var(--ce)}}.c.cn{fill:var(--c1);animation-name:cn}@keyframes co{18.51%{fill:var(--c1)}18.53%,100%{fill:var(--ce)}}.c.co{fill:var(--c1);animation-name:co}@keyframes cp{30.97%{fill:var(--c1)}30.99%,100%{fill:var(--ce)}}.c.cp{fill:var(--c1);animation-name:cp}@keyframes cq{52.85%{fill:var(--c2)}52.87%,100%{fill:var(--ce)}}.c.cq{fill:var(--c2);animation-name:cq}@keyframes cr{41.07%{fill:var(--c1)}41.09%,100%{fill:var(--ce)}}.c.cr{fill:var(--c1);animation-name:cr}@keyframes cs{50.83%{fill:var(--c2)}50.85%,100%{fill:var(--ce)}}.c.cs{fill:var(--c2);animation-name:cs}@keyframes ct{24.91%{fill:var(--c1)}24.93%,100%{fill:var(--ce)}}.c.ct{fill:var(--c1);animation-name:ct}@keyframes cu{24.57%{fill:var(--c1)}24.59%,100%{fill:var(--ce)}}.c.cu{fill:var(--c1);animation-name:cu}@keyframes cv{18.85%{fill:var(--c1)}18.87%,100%{fill:var(--ce)}}.c.cv{fill:var(--c1);animation-name:cv}@keyframes cw{31.3%{fill:var(--c1)}31.32%,100%{fill:var(--ce)}}.c.cw{fill:var(--c1);animation-name:cw}@keyframes cx{39.72%{fill:var(--c1)}39.74%,100%{fill:var(--ce)}}.c.cx{fill:var(--c1);animation-name:cx}@keyframes cy{39.38%{fill:var(--c1)}39.4%,100%{fill:var(--ce)}}.c.cy{fill:var(--c1);animation-name:cy}@keyframes cz{22.21%{fill:var(--c1)}22.23%,100%{fill:var(--ce)}}.c.cz{fill:var(--c1);animation-name:cz}@keyframes c10{22.55%{fill:var(--c1)}22.57%,100%{fill:var(--ce)}}.c.c10{fill:var(--c1);animation-name:c10}@keyframes c11{24.23%{fill:var(--c1)}24.25%,100%{fill:var(--ce)}}.c.c11{fill:var(--c1);animation-name:c11}@keyframes c12{19.18%{fill:var(--c1)}19.2%,100%{fill:var(--ce)}}.c.c12{fill:var(--c1);animation-name:c12}@keyframes c13{31.64%{fill:var(--c1)}31.66%,100%{fill:var(--ce)}}.c.c13{fill:var(--c1);animation-name:c13}@keyframes c14{31.98%{fill:var(--c1)}32%,100%{fill:var(--ce)}}.c.c14{fill:var(--c1);animation-name:c14}@keyframes c15{39.05%{fill:var(--c1)}39.07%,100%{fill:var(--ce)}}.c.c15{fill:var(--c1);animation-name:c15}@keyframes c16{21.88%{fill:var(--c1)}21.9%,100%{fill:var(--ce)}}.c.c16{fill:var(--c1);animation-name:c16}@keyframes c17{22.89%{fill:var(--c1)}22.91%,100%{fill:var(--ce)}}.c.c17{fill:var(--c1);animation-name:c17}@keyframes c18{23.9%{fill:var(--c1)}23.92%,100%{fill:var(--ce)}}.c.c18{fill:var(--c1);animation-name:c18}@keyframes c19{19.52%{fill:var(--c1)}19.54%,100%{fill:var(--ce)}}.c.c19{fill:var(--c1);animation-name:c19}@keyframes c1a{74.4%{fill:var(--c3)}74.42%,100%{fill:var(--ce)}}.c.c1a{fill:var(--c3);animation-name:c1a}@keyframes c1b{32.31%{fill:var(--c1)}32.33%,100%{fill:var(--ce)}}.c.c1b{fill:var(--c1);animation-name:c1b}@keyframes c1c{38.71%{fill:var(--c1)}38.73%,100%{fill:var(--ce)}}.c.c1c{fill:var(--c1);animation-name:c1c}@keyframes c1d{21.54%{fill:var(--c1)}21.56%,100%{fill:var(--ce)}}.c.c1d{fill:var(--c1);animation-name:c1d}@keyframes c1e{23.22%{fill:var(--c1)}23.24%,100%{fill:var(--ce)}}.c.c1e{fill:var(--c1);animation-name:c1e}@keyframes c1f{20.19%{fill:var(--c1)}20.21%,100%{fill:var(--ce)}}.c.c1f{fill:var(--c1);animation-name:c1f}@keyframes c1g{19.86%{fill:var(--c1)}19.88%,100%{fill:var(--ce)}}.c.c1g{fill:var(--c1);animation-name:c1g}@keyframes c1h{35.68%{fill:var(--c1)}35.7%,100%{fill:var(--ce)}}.c.c1h{fill:var(--c1);animation-name:c1h}@keyframes c1i{32.65%{fill:var(--c1)}32.67%,100%{fill:var(--ce)}}.c.c1i{fill:var(--c1);animation-name:c1i}@keyframes c1j{36.35%{fill:var(--c1)}36.37%,100%{fill:var(--ce)}}.c.c1j{fill:var(--c1);animation-name:c1j}@keyframes c1k{21.2%{fill:var(--c1)}21.22%,100%{fill:var(--ce)}}.c.c1k{fill:var(--c1);animation-name:c1k}@keyframes c1l{20.87%{fill:var(--c1)}20.89%,100%{fill:var(--ce)}}.c.c1l{fill:var(--c1);animation-name:c1l}@keyframes c1m{20.53%{fill:var(--c1)}20.55%,100%{fill:var(--ce)}}.c.c1m{fill:var(--c1);animation-name:c1m}@keyframes c1n{75.41%{fill:var(--c4)}75.43%,100%{fill:var(--ce)}}.c.c1n{fill:var(--c4);animation-name:c1n}@keyframes c1o{35.34%{fill:var(--c1)}35.36%,100%{fill:var(--ce)}}.c.c1o{fill:var(--c1);animation-name:c1o}@keyframes c1p{32.99%{fill:var(--c1)}33.01%,100%{fill:var(--ce)}}.c.c1p{fill:var(--c1);animation-name:c1p}@keyframes c1q{36.69%{fill:var(--c1)}36.71%,100%{fill:var(--ce)}}.c.c1q{fill:var(--c1);animation-name:c1q}@keyframes c1r{77.43%{fill:var(--c4)}77.45%,100%{fill:var(--ce)}}.c.c1r{fill:var(--c4);animation-name:c1r}@keyframes c1s{48.81%{fill:var(--c2)}48.83%,100%{fill:var(--ce)}}.c.c1s{fill:var(--c2);animation-name:c1s}@keyframes c1t{48.47%{fill:var(--c2)}48.49%,100%{fill:var(--ce)}}.c.c1t{fill:var(--c2);animation-name:c1t}@keyframes c1u{34%{fill:var(--c1)}34.02%,100%{fill:var(--ce)}}.c.c1u{fill:var(--c1);animation-name:c1u}@keyframes c1v{33.66%{fill:var(--c1)}33.68%,100%{fill:var(--ce)}}.c.c1v{fill:var(--c1);animation-name:c1v}@keyframes c1w{33.32%{fill:var(--c1)}33.34%,100%{fill:var(--ce)}}.c.c1w{fill:var(--c1);animation-name:c1w}@keyframes c1x{37.03%{fill:var(--c1)}37.05%,100%{fill:var(--ce)}}.c.c1x{fill:var(--c1);animation-name:c1x}@keyframes c1y{46.79%{fill:var(--c1)}46.81%,100%{fill:var(--ce)}}.c.c1y{fill:var(--c1);animation-name:c1y}@keyframes c1z{76.76%{fill:var(--c4)}76.78%,100%{fill:var(--ce)}}.c.c1z{fill:var(--c4);animation-name:c1z}.u{transform-origin:0 0;transform:scale(0,1);animation:none linear 29700ms infinite}@keyframes u0{7.4%{transform:scale(0.000,1)}7.42%,10.09%{transform:scale(0.019,1)}10.11%,12.11%{transform:scale(0.037,1)}12.13%,17.5%{transform:scale(0.056,1)}17.52%,18.17%{transform:scale(0.074,1)}18.19%,18.51%{transform:scale(0.093,1)}18.53%,18.85%{transform:scale(0.111,1)}18.87%,19.18%{transform:scale(0.130,1)}19.2%,19.52%{transform:scale(0.148,1)}19.54%,19.86%{transform:scale(0.167,1)}19.88%,20.19%{transform:scale(0.185,1)}20.21%,20.53%{transform:scale(0.204,1)}20.55%,20.87%{transform:scale(0.222,1)}20.89%,21.2%{transform:scale(0.241,1)}21.22%,21.54%{transform:scale(0.259,1)}21.56%,21.88%{transform:scale(0.278,1)}21.9%,22.21%{transform:scale(0.296,1)}22.23%,22.55%{transform:scale(0.315,1)}22.57%,22.89%{transform:scale(0.333,1)}22.91%,23.22%{transform:scale(0.352,1)}23.24%,23.9%{transform:scale(0.370,1)}23.92%,24.23%{transform:scale(0.389,1)}24.25%,24.57%{transform:scale(0.407,1)}24.59%,24.91%{transform:scale(0.426,1)}24.93%,26.25%{transform:scale(0.444,1)}26.27%,26.59%{transform:scale(0.463,1)}26.61%,26.93%{transform:scale(0.481,1)}26.95%,27.26%{transform:scale(0.500,1)}27.28%,27.6%{transform:scale(0.519,1)}27.62%,29.28%{transform:scale(0.537,1)}29.3%,30.63%{transform:scale(0.556,1)}30.65%,30.97%{transform:scale(0.574,1)}30.99%,31.3%{transform:scale(0.593,1)}31.32%,31.64%{transform:scale(0.611,1)}31.66%,31.98%{transform:scale(0.630,1)}32%,32.31%{transform:scale(0.648,1)}32.33%,32.65%{transform:scale(0.667,1)}32.67%,32.99%{transform:scale(0.685,1)}33.01%,33.32%{transform:scale(0.704,1)}33.34%,33.66%{transform:scale(0.722,1)}33.68%,34%{transform:scale(0.741,1)}34.02%,35.34%{transform:scale(0.759,1)}35.36%,35.68%{transform:scale(0.778,1)}35.7%,36.35%{transform:scale(0.796,1)}36.37%,36.69%{transform:scale(0.815,1)}36.71%,37.03%{transform:scale(0.833,1)}37.05%,38.71%{transform:scale(0.852,1)}38.73%,39.05%{transform:scale(0.870,1)}39.07%,39.38%{transform:scale(0.889,1)}39.4%,39.72%{transform:scale(0.907,1)}39.74%,41.07%{transform:scale(0.926,1)}41.09%,41.4%{transform:scale(0.944,1)}41.42%,41.74%{transform:scale(0.963,1)}41.76%,46.79%{transform:scale(0.981,1)}46.81%,100%{transform:scale(1.000,1)}}.u.u0{fill:var(--c1);animation-name:u0;transform-origin:0.0px 0}@keyframes u1{48.47%{transform:scale(0.000,1)}48.49%,48.81%{transform:scale(0.143,1)}48.83%,50.83%{transform:scale(0.286,1)}50.85%,52.85%{transform:scale(0.429,1)}52.87%,59.25%{transform:scale(0.571,1)}59.27%,59.59%{transform:scale(0.714,1)}59.61%,63.63%{transform:scale(0.857,1)}63.65%,100%{transform:scale(1.000,1)}}.u.u1{fill:var(--c2);animation-name:u1;transform-origin:636.0px 0}@keyframes u2{72.38%{transform:scale(0.000,1)}72.4%,74.4%{transform:scale(0.500,1)}74.42%,100%{transform:scale(1.000,1)}}.u.u2{fill:var(--c3);animation-name:u2;transform-origin:718.4px 0}@keyframes u3{75.41%{transform:scale(0.000,1)}75.43%,76.76%{transform:scale(0.111,1)}76.78%,77.43%{transform:scale(0.222,1)}77.45%,81.81%{transform:scale(0.333,1)}81.83%,82.14%{transform:scale(0.444,1)}82.16%,82.48%{transform:scale(0.556,1)}82.5%,82.82%{transform:scale(0.667,1)}82.84%,83.15%{transform:scale(0.778,1)}83.17%,92.92%{transform:scale(0.889,1)}92.94%,100%{transform:scale(1.000,1)}}.u.u3{fill:var(--c4);animation-name:u3;transform-origin:742.0px 0}.s{shape-rendering:geometricPrecision;fill:var(--cs);animation:none linear 29700ms infinite}@keyframes s0{0%,99.66%{transform:translate(0px,-16px)}0.34%{transform:translate(0px,0px)}6.4%{transform:translate(288px,0px)}6.73%{transform:translate(288px,16px)}8.42%{transform:translate(368px,16px)}10.1%{transform:translate(368px,96px)}16.16%{transform:translate(656px,96px)}17.17%{transform:translate(656px,48px)}19.87%,44.11%{transform:translate(784px,48px)}20.2%,23.57%,44.44%{transform:translate(784px,32px)}20.54%,44.78%{transform:translate(800px,32px)}21.21%,49.49%{transform:translate(800px,0px)}22.22%{transform:translate(752px,0px)}22.56%,25.25%{transform:translate(752px,16px)}23.23%{transform:translate(784px,16px)}24.58%,51.52%{transform:translate(736px,32px)}24.92%{transform:translate(736px,16px)}25.59%{transform:translate(752px,32px)}26.6%{transform:translate(704px,32px)}27.27%{transform:translate(704px,0px)}27.61%{transform:translate(720px,0px)}27.95%{transform:translate(720px,-16px)}28.62%{transform:translate(688px,-16px)}29.29%{transform:translate(688px,16px)}29.63%{transform:translate(704px,16px)}30.64%,42.09%{transform:translate(704px,64px)}31.65%,43.1%{transform:translate(752px,64px)}31.99%,40.07%{transform:translate(752px,80px)}33.33%,37.37%{transform:translate(816px,80px)}34.01%{transform:translate(816px,48px)}34.34%,76.09%{transform:translate(832px,48px)}34.68%{transform:translate(832px,64px)}35.69%{transform:translate(784px,64px)}36.36%{transform:translate(784px,96px)}37.04%{transform:translate(816px,96px)}38.38%{transform:translate(768px,80px)}38.72%{transform:translate(768px,96px)}39.39%{transform:translate(736px,96px)}39.73%{transform:translate(736px,80px)}40.4%{transform:translate(752px,96px)}41.41%{transform:translate(704px,96px)}43.43%{transform:translate(752px,48px)}45.79%{transform:translate(800px,-16px)}46.46%{transform:translate(832px,-16px)}46.8%,77.1%{transform:translate(832px,0px)}47.14%{transform:translate(848px,0px)}47.81%{transform:translate(848px,32px)}48.48%{transform:translate(816px,32px)}48.82%{transform:translate(816px,16px)}49.16%{transform:translate(800px,16px)}50.84%{transform:translate(736px,0px)}51.85%{transform:translate(720px,32px)}52.86%{transform:translate(720px,80px)}53.2%{transform:translate(704px,80px)}53.87%{transform:translate(704px,48px)}58.92%{transform:translate(464px,48px)}59.6%{transform:translate(464px,80px)}59.93%{transform:translate(448px,80px)}60.94%{transform:translate(448px,32px)}63.64%{transform:translate(320px,32px)}63.97%{transform:translate(320px,16px)}73.4%{transform:translate(768px,16px)}74.41%{transform:translate(768px,64px)}75.08%{transform:translate(800px,64px)}75.42%{transform:translate(800px,48px)}80.47%,85.19%{transform:translate(672px,0px)}82.15%{transform:translate(672px,80px)}82.49%{transform:translate(688px,80px)}82.83%{transform:translate(688px,96px)}83.16%{transform:translate(672px,96px)}97.64%{transform:translate(80px,0px)}97.98%{transform:translate(80px,-16px)}}.s.s0{transform:translate(0px,-16px);animation-name:s0}@keyframes s1{0%,99.66%{transform:translate(16px,-16px)}0.34%{transform:translate(0px,-16px)}0.67%{transform:translate(0px,0px)}6.73%{transform:translate(288px,0px)}7.07%{transform:translate(288px,16px)}8.75%{transform:translate(368px,16px)}10.44%{transform:translate(368px,96px)}16.5%{transform:translate(656px,96px)}17.51%{transform:translate(656px,48px)}20.2%,44.44%{transform:translate(784px,48px)}20.54%,23.91%,44.78%{transform:translate(784px,32px)}20.88%,45.12%{transform:translate(800px,32px)}21.55%,49.83%{transform:translate(800px,0px)}22.56%{transform:translate(752px,0px)}22.9%,25.59%{transform:translate(752px,16px)}23.57%{transform:translate(784px,16px)}24.92%,51.85%{transform:translate(736px,32px)}25.25%{transform:translate(736px,16px)}25.93%{transform:translate(752px,32px)}26.94%{transform:translate(704px,32px)}27.61%{transform:translate(704px,0px)}27.95%{transform:translate(720px,0px)}28.28%{transform:translate(720px,-16px)}28.96%{transform:translate(688px,-16px)}29.63%{transform:translate(688px,16px)}29.97%{transform:translate(704px,16px)}30.98%,42.42%{transform:translate(704px,64px)}31.99%,43.43%{transform:translate(752px,64px)}32.32%,40.4%{transform:translate(752px,80px)}33.67%,37.71%{transform:translate(816px,80px)}34.34%{transform:translate(816px,48px)}34.68%,76.43%{transform:translate(832px,48px)}35.02%{transform:translate(832px,64px)}36.03%{transform:translate(784px,64px)}36.7%{transform:translate(784px,96px)}37.37%{transform:translate(816px,96px)}38.72%{transform:translate(768px,80px)}39.06%{transform:translate(768px,96px)}39.73%{transform:translate(736px,96px)}40.07%{transform:translate(736px,80px)}40.74%{transform:translate(752px,96px)}41.75%{transform:translate(704px,96px)}43.77%{transform:translate(752px,48px)}46.13%{transform:translate(800px,-16px)}46.8%{transform:translate(832px,-16px)}47.14%,77.44%{transform:translate(832px,0px)}47.47%{transform:translate(848px,0px)}48.15%{transform:translate(848px,32px)}48.82%{transform:translate(816px,32px)}49.16%{transform:translate(816px,16px)}49.49%{transform:translate(800px,16px)}51.18%{transform:translate(736px,0px)}52.19%{transform:translate(720px,32px)}53.2%{transform:translate(720px,80px)}53.54%{transform:translate(704px,80px)}54.21%{transform:translate(704px,48px)}59.26%{transform:translate(464px,48px)}59.93%{transform:translate(464px,80px)}60.27%{transform:translate(448px,80px)}61.28%{transform:translate(448px,32px)}63.97%{transform:translate(320px,32px)}64.31%{transform:translate(320px,16px)}73.74%{transform:translate(768px,16px)}74.75%{transform:translate(768px,64px)}75.42%{transform:translate(800px,64px)}75.76%{transform:translate(800px,48px)}80.81%,85.52%{transform:translate(672px,0px)}82.49%{transform:translate(672px,80px)}82.83%{transform:translate(688px,80px)}83.16%{transform:translate(688px,96px)}83.5%{transform:translate(672px,96px)}97.98%{transform:translate(80px,0px)}98.32%{transform:translate(80px,-16px)}}.s.s1{transform:translate(16px,-16px);animation-name:s1}@keyframes s2{0%,99.66%{transform:translate(32px,-16px)}0.67%{transform:translate(0px,-16px)}1.01%{transform:translate(0px,0px)}7.07%{transform:translate(288px,0px)}7.41%{transform:translate(288px,16px)}9.09%{transform:translate(368px,16px)}10.77%{transform:translate(368px,96px)}16.84%{transform:translate(656px,96px)}17.85%{transform:translate(656px,48px)}20.54%,44.78%{transform:translate(784px,48px)}20.88%,24.24%,45.12%{transform:translate(784px,32px)}21.21%,45.45%{transform:translate(800px,32px)}21.89%,50.17%{transform:translate(800px,0px)}22.9%{transform:translate(752px,0px)}23.23%,25.93%{transform:translate(752px,16px)}23.91%{transform:translate(784px,16px)}25.25%,52.19%{transform:translate(736px,32px)}25.59%{transform:translate(736px,16px)}26.26%{transform:translate(752px,32px)}27.27%{transform:translate(704px,32px)}27.95%{transform:translate(704px,0px)}28.28%{transform:translate(720px,0px)}28.62%{transform:translate(720px,-16px)}29.29%{transform:translate(688px,-16px)}29.97%{transform:translate(688px,16px)}30.3%{transform:translate(704px,16px)}31.31%,42.76%{transform:translate(704px,64px)}32.32%,43.77%{transform:translate(752px,64px)}32.66%,40.74%{transform:translate(752px,80px)}34.01%,38.05%{transform:translate(816px,80px)}34.68%{transform:translate(816px,48px)}35.02%,76.77%{transform:translate(832px,48px)}35.35%{transform:translate(832px,64px)}36.36%{transform:translate(784px,64px)}37.04%{transform:translate(784px,96px)}37.71%{transform:translate(816px,96px)}39.06%{transform:translate(768px,80px)}39.39%{transform:translate(768px,96px)}40.07%{transform:translate(736px,96px)}40.4%{transform:translate(736px,80px)}41.08%{transform:translate(752px,96px)}42.09%{transform:translate(704px,96px)}44.11%{transform:translate(752px,48px)}46.46%{transform:translate(800px,-16px)}47.14%{transform:translate(832px,-16px)}47.47%,77.78%{transform:translate(832px,0px)}47.81%{transform:translate(848px,0px)}48.48%{transform:translate(848px,32px)}49.16%{transform:translate(816px,32px)}49.49%{transform:translate(816px,16px)}49.83%{transform:translate(800px,16px)}51.52%{transform:translate(736px,0px)}52.53%{transform:translate(720px,32px)}53.54%{transform:translate(720px,80px)}53.87%{transform:translate(704px,80px)}54.55%{transform:translate(704px,48px)}59.6%{transform:translate(464px,48px)}60.27%{transform:translate(464px,80px)}60.61%{transform:translate(448px,80px)}61.62%{transform:translate(448px,32px)}64.31%{transform:translate(320px,32px)}64.65%{transform:translate(320px,16px)}74.07%{transform:translate(768px,16px)}75.08%{transform:translate(768px,64px)}75.76%{transform:translate(800px,64px)}76.09%{transform:translate(800px,48px)}81.14%,85.86%{transform:translate(672px,0px)}82.83%{transform:translate(672px,80px)}83.16%{transform:translate(688px,80px)}83.5%{transform:translate(688px,96px)}83.84%{transform:translate(672px,96px)}98.32%{transform:translate(80px,0px)}98.65%{transform:translate(80px,-16px)}}.s.s2{transform:translate(32px,-16px);animation-name:s2}@keyframes s3{0%,99.66%{transform:translate(48px,-16px)}1.01%{transform:translate(0px,-16px)}1.35%{transform:translate(0px,0px)}7.41%{transform:translate(288px,0px)}7.74%{transform:translate(288px,16px)}9.43%{transform:translate(368px,16px)}11.11%{transform:translate(368px,96px)}17.17%{transform:translate(656px,96px)}18.18%{transform:translate(656px,48px)}20.88%,45.12%{transform:translate(784px,48px)}21.21%,24.58%,45.45%{transform:translate(784px,32px)}21.55%,45.79%{transform:translate(800px,32px)}22.22%,50.51%{transform:translate(800px,0px)}23.23%{transform:translate(752px,0px)}23.57%,26.26%{transform:translate(752px,16px)}24.24%{transform:translate(784px,16px)}25.59%,52.53%{transform:translate(736px,32px)}25.93%{transform:translate(736px,16px)}26.6%{transform:translate(752px,32px)}27.61%{transform:translate(704px,32px)}28.28%{transform:translate(704px,0px)}28.62%{transform:translate(720px,0px)}28.96%{transform:translate(720px,-16px)}29.63%{transform:translate(688px,-16px)}30.3%{transform:translate(688px,16px)}30.64%{transform:translate(704px,16px)}31.65%,43.1%{transform:translate(704px,64px)}32.66%,44.11%{transform:translate(752px,64px)}33%,41.08%{transform:translate(752px,80px)}34.34%,38.38%{transform:translate(816px,80px)}35.02%{transform:translate(816px,48px)}35.35%,77.1%{transform:translate(832px,48px)}35.69%{transform:translate(832px,64px)}36.7%{transform:translate(784px,64px)}37.37%{transform:translate(784px,96px)}38.05%{transform:translate(816px,96px)}39.39%{transform:translate(768px,80px)}39.73%{transform:translate(768px,96px)}40.4%{transform:translate(736px,96px)}40.74%{transform:translate(736px,80px)}41.41%{transform:translate(752px,96px)}42.42%{transform:translate(704px,96px)}44.44%{transform:translate(752px,48px)}46.8%{transform:translate(800px,-16px)}47.47%{transform:translate(832px,-16px)}47.81%,78.11%{transform:translate(832px,0px)}48.15%{transform:translate(848px,0px)}48.82%{transform:translate(848px,32px)}49.49%{transform:translate(816px,32px)}49.83%{transform:translate(816px,16px)}50.17%{transform:translate(800px,16px)}51.85%{transform:translate(736px,0px)}52.86%{transform:translate(720px,32px)}53.87%{transform:translate(720px,80px)}54.21%{transform:translate(704px,80px)}54.88%{transform:translate(704px,48px)}59.93%{transform:translate(464px,48px)}60.61%{transform:translate(464px,80px)}60.94%{transform:translate(448px,80px)}61.95%{transform:translate(448px,32px)}64.65%{transform:translate(320px,32px)}64.98%{transform:translate(320px,16px)}74.41%{transform:translate(768px,16px)}75.42%{transform:translate(768px,64px)}76.09%{transform:translate(800px,64px)}76.43%{transform:translate(800px,48px)}81.48%,86.2%{transform:translate(672px,0px)}83.16%{transform:translate(672px,80px)}83.5%{transform:translate(688px,80px)}83.84%{transform:translate(688px,96px)}84.18%{transform:translate(672px,96px)}98.65%{transform:translate(80px,0px)}98.99%{transform:translate(80px,-16px)}}.s.s3{transform:translate(48px,-16px);animation-name:s3}</style><rect class="c" x="2" y="2" rx="2" ry="2"/><rect class="c" x="2" y="18" rx="2" ry="2"/><rect class="c" x="2" y="34" rx="2" ry="2"/><rect class="c" x="2" y="50" rx="2" ry="2"/><rect class="c" x="2" y="66" rx="2" ry="2"/><rect class="c" x="2" y="82" rx="2" ry="2"/><rect class="c" x="2" y="98" rx="2" ry="2"/><rect class="c" x="18" y="2" rx="2" ry="2"/><rect class="c" x="18" y="18" rx="2" ry="2"/><rect class="c" x="18" y="34" rx="2" ry="2"/><rect class="c" x="18" y="50" rx="2" ry="2"/><rect class="c" x="18" y="66" rx="2" ry="2"/><rect class="c" x="18" y="82" rx="2" ry="2"/><rect class="c" x="18" y="98" rx="2" ry="2"/><rect class="c" x="34" y="2" rx="2" ry="2"/><rect class="c" x="34" y="18" rx="2" ry="2"/><rect class="c" x="34" y="34" rx="2" ry="2"/><rect class="c" x="34" y="50" rx="2" ry="2"/><rect class="c" x="34" y="66" rx="2" ry="2"/><rect class="c" x="34" y="82" rx="2" ry="2"/><rect class="c" x="34" y="98" rx="2" ry="2"/><rect class="c" x="50" y="2" rx="2" ry="2"/><rect class="c" x="50" y="18" rx="2" ry="2"/><rect class="c" x="50" y="34" rx="2" ry="2"/><rect class="c" x="50" y="50" rx="2" ry="2"/><rect class="c" x="50" y="66" rx="2" ry="2"/><rect class="c" x="50" y="82" rx="2" ry="2"/><rect class="c" x="50" y="98" rx="2" ry="2"/><rect class="c" x="66" y="2" rx="2" ry="2"/><rect class="c" x="66" y="18" rx="2" ry="2"/><rect class="c" x="66" y="34" rx="2" ry="2"/><rect class="c" x="66" y="50" rx="2" ry="2"/><rect class="c" x="66" y="66" rx="2" ry="2"/><rect class="c" x="66" y="82" rx="2" ry="2"/><rect class="c" x="66" y="98" rx="2" ry="2"/><rect class="c" x="82" y="2" rx="2" ry="2"/><rect class="c" x="82" y="18" rx="2" ry="2"/><rect class="c" x="82" y="34" rx="2" ry="2"/><rect class="c" x="82" y="50" rx="2" ry="2"/><rect class="c" x="82" y="66" rx="2" ry="2"/><rect class="c" x="82" y="82" rx="2" ry="2"/><rect class="c" x="82" y="98" rx="2" ry="2"/><rect class="c" x="98" y="2" rx="2" ry="2"/><rect class="c" x="98" y="18" rx="2" ry="2"/><rect class="c" x="98" y="34" rx="2" ry="2"/><rect class="c" x="98" y="50" rx="2" ry="2"/><rect class="c" x="98" y="66" rx="2" ry="2"/><rect class="c" x="98" y="82" rx="2" ry="2"/><rect class="c" x="98" y="98" rx="2" ry="2"/><rect class="c" x="114" y="2" rx="2" ry="2"/><rect class="c" x="114" y="18" rx="2" ry="2"/><rect class="c" x="114" y="34" rx="2" ry="2"/><rect class="c" x="114" y="50" rx="2" ry="2"/><rect class="c" x="114" y="66" rx="2" ry="2"/><rect class="c" x="114" y="82" rx="2" ry="2"/><rect class="c" x="114" y="98" rx="2" ry="2"/><rect class="c" x="130" y="2" rx="2" ry="2"/><rect class="c" x="130" y="18" rx="2" ry="2"/><rect class="c" x="130" y="34" rx="2" ry="2"/><rect class="c" x="130" y="50" rx="2" ry="2"/><rect class="c" x="130" y="66" rx="2" ry="2"/><rect class="c" x="130" y="82" rx="2" ry="2"/><rect class="c" x="130" y="98" rx="2" ry="2"/><rect class="c" x="146" y="2" rx="2" ry="2"/><rect class="c" x="146" y="18" rx="2" ry="2"/><rect class="c" x="146" y="34" rx="2" ry="2"/><rect class="c" x="146" y="50" rx="2" ry="2"/><rect class="c" x="146" y="66" rx="2" ry="2"/><rect class="c" x="146" y="82" rx="2" ry="2"/><rect class="c" x="146" y="98" rx="2" ry="2"/><rect class="c" x="162" y="2" rx="2" ry="2"/><rect class="c" x="162" y="18" rx="2" ry="2"/><rect class="c" x="162" y="34" rx="2" ry="2"/><rect class="c" x="162" y="50" rx="2" ry="2"/><rect class="c" x="162" y="66" rx="2" ry="2"/><rect class="c" x="162" y="82" rx="2" ry="2"/><rect class="c" x="162" y="98" rx="2" ry="2"/><rect class="c" x="178" y="2" rx="2" ry="2"/><rect class="c" x="178" y="18" rx="2" ry="2"/><rect class="c" x="178" y="34" rx="2" ry="2"/><rect class="c" x="178" y="50" rx="2" ry="2"/><rect class="c" x="178" y="66" rx="2" ry="2"/><rect class="c" x="178" y="82" rx="2" ry="2"/><rect class="c" x="178" y="98" rx="2" ry="2"/><rect class="c" x="194" y="2" rx="2" ry="2"/><rect class="c" x="194" y="18" rx="2" ry="2"/><rect class="c" x="194" y="34" rx="2" ry="2"/><rect class="c" x="194" y="50" rx="2" ry="2"/><rect class="c" x="194" y="66" rx="2" ry="2"/><rect class="c" x="194" y="82" rx="2" ry="2"/><rect class="c" x="194" y="98" rx="2" ry="2"/><rect class="c" x="210" y="2" rx="2" ry="2"/><rect class="c" x="210" y="18" rx="2" ry="2"/><rect class="c" x="210" y="34" rx="2" ry="2"/><rect class="c" x="210" y="50" rx="2" ry="2"/><rect class="c" x="210" y="66" rx="2" ry="2"/><rect class="c" x="210" y="82" rx="2" ry="2"/><rect class="c" x="210" y="98" rx="2" ry="2"/><rect class="c" x="226" y="2" rx="2" ry="2"/><rect class="c" x="226" y="18" rx="2" ry="2"/><rect class="c" x="226" y="34" rx="2" ry="2"/><rect class="c" x="226" y="50" rx="2" ry="2"/><rect class="c" x="226" y="66" rx="2" ry="2"/><rect class="c" x="226" y="82" rx="2" ry="2"/><rect class="c" x="226" y="98" rx="2" ry="2"/><rect class="c" x="242" y="2" rx="2" ry="2"/><rect class="c" x="242" y="18" rx="2" ry="2"/><rect class="c" x="242" y="34" rx="2" ry="2"/><rect class="c" x="242" y="50" rx="2" ry="2"/><rect class="c" x="242" y="66" rx="2" ry="2"/><rect class="c" x="242" y="82" rx="2" ry="2"/><rect class="c" x="242" y="98" rx="2" ry="2"/><rect class="c" x="258" y="2" rx="2" ry="2"/><rect class="c" x="258" y="18" rx="2" ry="2"/><rect class="c" x="258" y="34" rx="2" ry="2"/><rect class="c" x="258" y="50" rx="2" ry="2"/><rect class="c" x="258" y="66" rx="2" ry="2"/><rect class="c" x="258" y="82" rx="2" ry="2"/><rect class="c" x="258" y="98" rx="2" ry="2"/><rect class="c" x="274" y="2" rx="2" ry="2"/><rect class="c" x="274" y="18" rx="2" ry="2"/><rect class="c" x="274" y="34" rx="2" ry="2"/><rect class="c" x="274" y="50" rx="2" ry="2"/><rect class="c" x="274" y="66" rx="2" ry="2"/><rect class="c" x="274" y="82" rx="2" ry="2"/><rect class="c" x="274" y="98" rx="2" ry="2"/><rect class="c" x="290" y="2" rx="2" ry="2"/><rect class="c" x="290" y="18" rx="2" ry="2"/><rect class="c" x="290" y="34" rx="2" ry="2"/><rect class="c" x="290" y="50" rx="2" ry="2"/><rect class="c" x="290" y="66" rx="2" ry="2"/><rect class="c" x="290" y="82" rx="2" ry="2"/><rect class="c" x="290" y="98" rx="2" ry="2"/><rect class="c c0" x="306" y="2" rx="2" ry="2"/><rect class="c" x="306" y="18" rx="2" ry="2"/><rect class="c" x="306" y="34" rx="2" ry="2"/><rect class="c" x="306" y="50" rx="2" ry="2"/><rect class="c" x="306" y="66" rx="2" ry="2"/><rect class="c" x="306" y="82" rx="2" ry="2"/><rect class="c" x="306" y="98" rx="2" ry="2"/><rect class="c" x="322" y="2" rx="2" ry="2"/><rect class="c c1" x="322" y="18" rx="2" ry="2"/><rect class="c c2" x="322" y="34" rx="2" ry="2"/><rect class="c" x="322" y="50" rx="2" ry="2"/><rect class="c" x="322" y="66" rx="2" ry="2"/><rect class="c" x="322" y="82" rx="2" ry="2"/><rect class="c" x="322" y="98" rx="2" ry="2"/><rect class="c" x="338" y="2" rx="2" ry="2"/><rect class="c" x="338" y="18" rx="2" ry="2"/><rect class="c" x="338" y="34" rx="2" ry="2"/><rect class="c" x="338" y="50" rx="2" ry="2"/><rect class="c" x="338" y="66" rx="2" ry="2"/><rect class="c" x="338" y="82" rx="2" ry="2"/><rect class="c" x="338" y="98" rx="2" ry="2"/><rect class="c" x="354" y="2" rx="2" ry="2"/><rect class="c" x="354" y="18" rx="2" ry="2"/><rect class="c" x="354" y="34" rx="2" ry="2"/><rect class="c" x="354" y="50" rx="2" ry="2"/><rect class="c" x="354" y="66" rx="2" ry="2"/><rect class="c" x="354" y="82" rx="2" ry="2"/><rect class="c" x="354" y="98" rx="2" ry="2"/><rect class="c" x="370" y="2" rx="2" ry="2"/><rect class="c" x="370" y="18" rx="2" ry="2"/><rect class="c" x="370" y="34" rx="2" ry="2"/><rect class="c" x="370" y="50" rx="2" ry="2"/><rect class="c" x="370" y="66" rx="2" ry="2"/><rect class="c" x="370" y="82" rx="2" ry="2"/><rect class="c c3" x="370" y="98" rx="2" ry="2"/><rect class="c" x="386" y="2" rx="2" ry="2"/><rect class="c" x="386" y="18" rx="2" ry="2"/><rect class="c" x="386" y="34" rx="2" ry="2"/><rect class="c" x="386" y="50" rx="2" ry="2"/><rect class="c" x="386" y="66" rx="2" ry="2"/><rect class="c" x="386" y="82" rx="2" ry="2"/><rect class="c" x="386" y="98" rx="2" ry="2"/><rect class="c" x="402" y="2" rx="2" ry="2"/><rect class="c" x="402" y="18" rx="2" ry="2"/><rect class="c" x="402" y="34" rx="2" ry="2"/><rect class="c" x="402" y="50" rx="2" ry="2"/><rect class="c" x="402" y="66" rx="2" ry="2"/><rect class="c" x="402" y="82" rx="2" ry="2"/><rect class="c" x="402" y="98" rx="2" ry="2"/><rect class="c" x="418" y="2" rx="2" ry="2"/><rect class="c" x="418" y="18" rx="2" ry="2"/><rect class="c" x="418" y="34" rx="2" ry="2"/><rect class="c" x="418" y="50" rx="2" ry="2"/><rect class="c" x="418" y="66" rx="2" ry="2"/><rect class="c" x="418" y="82" rx="2" ry="2"/><rect class="c" x="418" y="98" rx="2" ry="2"/><rect class="c" x="434" y="2" rx="2" ry="2"/><rect class="c" x="434" y="18" rx="2" ry="2"/><rect class="c" x="434" y="34" rx="2" ry="2"/><rect class="c" x="434" y="50" rx="2" ry="2"/><rect class="c" x="434" y="66" rx="2" ry="2"/><rect class="c" x="434" y="82" rx="2" ry="2"/><rect class="c" x="434" y="98" rx="2" ry="2"/><rect class="c" x="450" y="2" rx="2" ry="2"/><rect class="c" x="450" y="18" rx="2" ry="2"/><rect class="c" x="450" y="34" rx="2" ry="2"/><rect class="c" x="450" y="50" rx="2" ry="2"/><rect class="c" x="450" y="66" rx="2" ry="2"/><rect class="c" x="450" y="82" rx="2" ry="2"/><rect class="c" x="450" y="98" rx="2" ry="2"/><rect class="c" x="466" y="2" rx="2" ry="2"/><rect class="c" x="466" y="18" rx="2" ry="2"/><rect class="c" x="466" y="34" rx="2" ry="2"/><rect class="c" x="466" y="50" rx="2" ry="2"/><rect class="c c4" x="466" y="66" rx="2" ry="2"/><rect class="c c5" x="466" y="82" rx="2" ry="2"/><rect class="c c6" x="466" y="98" rx="2" ry="2"/><rect class="c" x="482" y="2" rx="2" ry="2"/><rect class="c" x="482" y="18" rx="2" ry="2"/><rect class="c" x="482" y="34" rx="2" ry="2"/><rect class="c" x="482" y="50" rx="2" ry="2"/><rect class="c" x="482" y="66" rx="2" ry="2"/><rect class="c" x="482" y="82" rx="2" ry="2"/><rect class="c" x="482" y="98" rx="2" ry="2"/><rect class="c" x="498" y="2" rx="2" ry="2"/><rect class="c" x="498" y="18" rx="2" ry="2"/><rect class="c" x="498" y="34" rx="2" ry="2"/><rect class="c" x="498" y="50" rx="2" ry="2"/><rect class="c" x="498" y="66" rx="2" ry="2"/><rect class="c" x="498" y="82" rx="2" ry="2"/><rect class="c" x="498" y="98" rx="2" ry="2"/><rect class="c" x="514" y="2" rx="2" ry="2"/><rect class="c" x="514" y="18" rx="2" ry="2"/><rect class="c" x="514" y="34" rx="2" ry="2"/><rect class="c" x="514" y="50" rx="2" ry="2"/><rect class="c" x="514" y="66" rx="2" ry="2"/><rect class="c" x="514" y="82" rx="2" ry="2"/><rect class="c" x="514" y="98" rx="2" ry="2"/><rect class="c" x="530" y="2" rx="2" ry="2"/><rect class="c" x="530" y="18" rx="2" ry="2"/><rect class="c" x="530" y="34" rx="2" ry="2"/><rect class="c" x="530" y="50" rx="2" ry="2"/><rect class="c" x="530" y="66" rx="2" ry="2"/><rect class="c" x="530" y="82" rx="2" ry="2"/><rect class="c" x="530" y="98" rx="2" ry="2"/><rect class="c" x="546" y="2" rx="2" ry="2"/><rect class="c" x="546" y="18" rx="2" ry="2"/><rect class="c" x="546" y="34" rx="2" ry="2"/><rect class="c" x="546" y="50" rx="2" ry="2"/><rect class="c" x="546" y="66" rx="2" ry="2"/><rect class="c" x="546" y="82" rx="2" ry="2"/><rect class="c" x="546" y="98" rx="2" ry="2"/><rect class="c" x="562" y="2" rx="2" ry="2"/><rect class="c" x="562" y="18" rx="2" ry="2"/><rect class="c" x="562" y="34" rx="2" ry="2"/><rect class="c" x="562" y="50" rx="2" ry="2"/><rect class="c" x="562" y="66" rx="2" ry="2"/><rect class="c" x="562" y="82" rx="2" ry="2"/><rect class="c" x="562" y="98" rx="2" ry="2"/><rect class="c" x="578" y="2" rx="2" ry="2"/><rect class="c" x="578" y="18" rx="2" ry="2"/><rect class="c" x="578" y="34" rx="2" ry="2"/><rect class="c" x="578" y="50" rx="2" ry="2"/><rect class="c" x="578" y="66" rx="2" ry="2"/><rect class="c" x="578" y="82" rx="2" ry="2"/><rect class="c" x="578" y="98" rx="2" ry="2"/><rect class="c" x="594" y="2" rx="2" ry="2"/><rect class="c" x="594" y="18" rx="2" ry="2"/><rect class="c" x="594" y="34" rx="2" ry="2"/><rect class="c" x="594" y="50" rx="2" ry="2"/><rect class="c" x="594" y="66" rx="2" ry="2"/><rect class="c" x="594" y="82" rx="2" ry="2"/><rect class="c" x="594" y="98" rx="2" ry="2"/><rect class="c" x="610" y="2" rx="2" ry="2"/><rect class="c" x="610" y="18" rx="2" ry="2"/><rect class="c" x="610" y="34" rx="2" ry="2"/><rect class="c" x="610" y="50" rx="2" ry="2"/><rect class="c" x="610" y="66" rx="2" ry="2"/><rect class="c" x="610" y="82" rx="2" ry="2"/><rect class="c" x="610" y="98" rx="2" ry="2"/><rect class="c" x="626" y="2" rx="2" ry="2"/><rect class="c" x="626" y="18" rx="2" ry="2"/><rect class="c" x="626" y="34" rx="2" ry="2"/><rect class="c" x="626" y="50" rx="2" ry="2"/><rect class="c" x="626" y="66" rx="2" ry="2"/><rect class="c" x="626" y="82" rx="2" ry="2"/><rect class="c" x="626" y="98" rx="2" ry="2"/><rect class="c" x="642" y="2" rx="2" ry="2"/><rect class="c" x="642" y="18" rx="2" ry="2"/><rect class="c" x="642" y="34" rx="2" ry="2"/><rect class="c" x="642" y="50" rx="2" ry="2"/><rect class="c" x="642" y="66" rx="2" ry="2"/><rect class="c" x="642" y="82" rx="2" ry="2"/><rect class="c" x="642" y="98" rx="2" ry="2"/><rect class="c" x="658" y="2" rx="2" ry="2"/><rect class="c" x="658" y="18" rx="2" ry="2"/><rect class="c" x="658" y="34" rx="2" ry="2"/><rect class="c" x="658" y="50" rx="2" ry="2"/><rect class="c" x="658" y="66" rx="2" ry="2"/><rect class="c" x="658" y="82" rx="2" ry="2"/><rect class="c" x="658" y="98" rx="2" ry="2"/><rect class="c" x="674" y="2" rx="2" ry="2"/><rect class="c" x="674" y="18" rx="2" ry="2"/><rect class="c" x="674" y="34" rx="2" ry="2"/><rect class="c c7" x="674" y="50" rx="2" ry="2"/><rect class="c c8" x="674" y="66" rx="2" ry="2"/><rect class="c c9" x="674" y="82" rx="2" ry="2"/><rect class="c ca" x="674" y="98" rx="2" ry="2"/><rect class="c" x="690" y="2" rx="2" ry="2"/><rect class="c cb" x="690" y="18" rx="2" ry="2"/><rect class="c" x="690" y="34" rx="2" ry="2"/><rect class="c" x="690" y="50" rx="2" ry="2"/><rect class="c" x="690" y="66" rx="2" ry="2"/><rect class="c cc" x="690" y="82" rx="2" ry="2"/><rect class="c cd" x="690" y="98" rx="2" ry="2"/><rect class="c ce" x="706" y="2" rx="2" ry="2"/><rect class="c cf" x="706" y="18" rx="2" ry="2"/><rect class="c cg" x="706" y="34" rx="2" ry="2"/><rect class="c ch" x="706" y="50" rx="2" ry="2"/><rect class="c ci" x="706" y="66" rx="2" ry="2"/><rect class="c cj" x="706" y="82" rx="2" ry="2"/><rect class="c ck" x="706" y="98" rx="2" ry="2"/><rect class="c cl" x="722" y="2" rx="2" ry="2"/><rect class="c cm" x="722" y="18" rx="2" ry="2"/><rect class="c cn" x="722" y="34" rx="2" ry="2"/><rect class="c co" x="722" y="50" rx="2" ry="2"/><rect class="c cp" x="722" y="66" rx="2" ry="2"/><rect class="c cq" x="722" y="82" rx="2" ry="2"/><rect class="c cr" x="722" y="98" rx="2" ry="2"/><rect class="c cs" x="738" y="2" rx="2" ry="2"/><rect class="c ct" x="738" y="18" rx="2" ry="2"/><rect class="c cu" x="738" y="34" rx="2" ry="2"/><rect class="c cv" x="738" y="50" rx="2" ry="2"/><rect class="c cw" x="738" y="66" rx="2" ry="2"/><rect class="c cx" x="738" y="82" rx="2" ry="2"/><rect class="c cy" x="738" y="98" rx="2" ry="2"/><rect class="c cz" x="754" y="2" rx="2" ry="2"/><rect class="c c10" x="754" y="18" rx="2" ry="2"/><rect class="c c11" x="754" y="34" rx="2" ry="2"/><rect class="c c12" x="754" y="50" rx="2" ry="2"/><rect class="c c13" x="754" y="66" rx="2" ry="2"/><rect class="c c14" x="754" y="82" rx="2" ry="2"/><rect class="c c15" x="754" y="98" rx="2" ry="2"/><rect class="c c16" x="770" y="2" rx="2" ry="2"/><rect class="c c17" x="770" y="18" rx="2" ry="2"/><rect class="c c18" x="770" y="34" rx="2" ry="2"/><rect class="c c19" x="770" y="50" rx="2" ry="2"/><rect class="c c1a" x="770" y="66" rx="2" ry="2"/><rect class="c c1b" x="770" y="82" rx="2" ry="2"/><rect class="c c1c" x="770" y="98" rx="2" ry="2"/><rect class="c c1d" x="786" y="2" rx="2" ry="2"/><rect class="c c1e" x="786" y="18" rx="2" ry="2"/><rect class="c c1f" x="786" y="34" rx="2" ry="2"/><rect class="c c1g" x="786" y="50" rx="2" ry="2"/><rect class="c c1h" x="786" y="66" rx="2" ry="2"/><rect class="c c1i" x="786" y="82" rx="2" ry="2"/><rect class="c c1j" x="786" y="98" rx="2" ry="2"/><rect class="c c1k" x="802" y="2" rx="2" ry="2"/><rect class="c c1l" x="802" y="18" rx="2" ry="2"/><rect class="c c1m" x="802" y="34" rx="2" ry="2"/><rect class="c c1n" x="802" y="50" rx="2" ry="2"/><rect class="c c1o" x="802" y="66" rx="2" ry="2"/><rect class="c c1p" x="802" y="82" rx="2" ry="2"/><rect class="c c1q" x="802" y="98" rx="2" ry="2"/><rect class="c c1r" x="818" y="2" rx="2" ry="2"/><rect class="c c1s" x="818" y="18" rx="2" ry="2"/><rect class="c c1t" x="818" y="34" rx="2" ry="2"/><rect class="c c1u" x="818" y="50" rx="2" ry="2"/><rect class="c c1v" x="818" y="66" rx="2" ry="2"/><rect class="c c1w" x="818" y="82" rx="2" ry="2"/><rect class="c c1x" x="818" y="98" rx="2" ry="2"/><rect class="c c1y" x="834" y="2" rx="2" ry="2"/><rect class="c c1z" x="834" y="18" rx="2" ry="2"/><rect class="c" x="834" y="34" rx="2" ry="2"/><rect class="u u0" height="12" width="636.6" x="0.0" y="144"/><rect class="u u1" height="12" width="83.0" x="636.0" y="144"/><rect class="u u2" height="12" width="24.2" x="718.4" y="144"/><rect class="u u3" height="12" width="106.6" x="742.0" y="144"/><rect class="s s0" x="0.8" y="0.8" width="14.4" height="14.4" rx="4.5" ry="4.5"/><rect class="s s1" x="1.8" y="1.8" width="12.3" height="12.3" rx="4.1" ry="4.1"/><rect class="s s2" x="2.6" y="2.6" width="10.8" height="10.8" rx="3.6" ry="3.6"/><rect class="s s3" x="3.0" y="3.0" width="9.9" height="9.9" rx="3.3" ry="3.3"/></svg>