<svg viewBox="-16 -32 880 192" width="880" height="192" xmlns="http://www.w3.org/2000/svg"><desc>Generated with https://github.com/Platane/snk</desc><style>:root{--cb:#1b1f230a;--cs:purple;--ce:#ebedf0;--c0:#ebedf0;--c1:#9be9a8;--c2:#40c463;--c3:#30a14e;--c4:#216e39}.c{shape-rendering:geometricPrecision;fill:var(--ce);stroke-width:1px;stroke:var(--cb);animation:none 30300ms linear infinite;width:12px;height:12px}@keyframes c0{93.39%{fill:var(--c4)}93.41%,100%{fill:var(--ce)}}.c.c0{fill:var(--c4);animation-name:c0}@keyframes c1{6.92%{fill:var(--c1)}6.94%,100%{fill:var(--ce)}}.c.c1{fill:var(--c1);animation-name:c1}@keyframes c2{64.68%{fill:var(--c2)}64.7%,100%{fill:var(--ce)}}.c.c2{fill:var(--c2);animation-name:c2}@keyframes c3{9.56%{fill:var(--c1)}9.58%,100%{fill:var(--ce)}}.c.c3{fill:var(--c1);animation-name:c3}@keyframes c4{60.39%{fill:var(--c2)}60.41%,100%{fill:var(--ce)}}.c.c4{fill:var(--c2);animation-name:c4}@keyframes c5{60.72%{fill:var(--c2)}60.74%,100%{fill:var(--ce)}}.c.c5{fill:var(--c2);animation-name:c5}@keyframes c6{11.54%{fill:var(--c1)}11.56%,100%{fill:var(--ce)}}.c.c6{fill:var(--c1);animation-name:c6}@keyframes c7{16.82%{fill:var(--c1)}16.84%,100%{fill:var(--ce)}}.c.c7{fill:var(--c1);animation-name:c7}@keyframes c8{82.5%{fill:var(--c4)}82.52%,100%{fill:var(--ce)}}.c.c8{fill:var(--c4);animation-name:c8}@keyframes c9{82.83%{fill:var(--c4)}82.85%,100%{fill:var(--ce)}}.c.c9{fill:var(--c4);animation-name:c9}@keyframes ca{83.82%{fill:var(--c4)}83.84%,100%{fill:var(--ce)}}.c.ca{fill:var(--c4);animation-name:ca}@keyframes cb{28.37%{fill:var(--c1)}28.39%,100%{fill:var(--ce)}}.c.cb{fill:var(--c1);animation-name:cb}@keyframes cc{83.16%{fill:var(--c4)}83.18%,100%{fill:var(--ce)}}.c.cc{fill:var(--c4);animation-name:cc}@keyframes cd{83.49%{fill:var(--c4)}83.51%,100%{fill:var(--ce)}}.c.cd{fill:var(--c4);animation-name:cd}@keyframes ce{26.39%{fill:var(--c1)}26.41%,100%{fill:var(--ce)}}.c.ce{fill:var(--c1);animation-name:ce}@keyframes cf{26.06%{fill:var(--c1)}26.08%,100%{fill:var(--ce)}}.c.cf{fill:var(--c1);animation-name:cf}@keyframes cg{25.73%{fill:var(--c1)}25.75%,100%{fill:var(--ce)}}.c.cg{fill:var(--c1);animation-name:cg}@keyframes ch{17.48%{fill:var(--c1)}17.5%,100%{fill:var(--ce)}}.c.ch{fill:var(--c1);animation-name:ch}@keyframes ci{29.69%{fill:var(--c1)}29.71%,100%{fill:var(--ce)}}.c.ci{fill:var(--c1);animation-name:ci}@keyframes cj{45.86%{fill:var(--c1)}45.88%,100%{fill:var(--ce)}}.c.cj{fill:var(--c1);animation-name:cj}@keyframes ck{45.53%{fill:var(--c1)}45.55%,100%{fill:var(--ce)}}.c.ck{fill:var(--c1);animation-name:ck}@keyframes cl{26.72%{fill:var(--c1)}26.74%,100%{fill:var(--ce)}}.c.cl{fill:var(--c1);animation-name:cl}@keyframes cm{73.26%{fill:var(--c3)}73.28%,100%{fill:var(--ce)}}.c.cm{fill:var(--c3);animation-name:cm}@keyframes cn{25.4%{fill:var(--c1)}25.42%,100%{fill:var(--ce)}}.c.cn{fill:var(--c1);animation-name:cn}@keyframes co{17.81%{fill:var(--c1)}17.83%,100%{fill:var(--ce)}}.c.co{fill:var(--c1);animation-name:co}@keyframes cp{30.02%{fill:var(--c1)}30.04%,100%{fill:var(--ce)}}.c.cp{fill:var(--c1);animation-name:cp}@keyframes cq{46.19%{fill:var(--c2)}46.21%,100%{fill:var(--ce)}}.c.cq{fill:var(--c2);animation-name:cq}@keyframes cr{45.2%{fill:var(--c1)}45.22%,100%{fill:var(--ce)}}.c.cr{fill:var(--c1);animation-name:cr}@keyframes cs{48.17%{fill:var(--c2)}48.19%,100%{fill:var(--ce)}}.c.cs{fill:var(--c2);animation-name:cs}@keyframes ct{24.08%{fill:var(--c1)}24.1%,100%{fill:var(--ce)}}.c.ct{fill:var(--c1);animation-name:ct}@keyframes cu{23.75%{fill:var(--c1)}23.77%,100%{fill:var(--ce)}}.c.cu{fill:var(--c1);animation-name:cu}@keyframes cv{18.14%{fill:var(--c1)}18.16%,100%{fill:var(--ce)}}.c.cv{fill:var(--c1);animation-name:cv}@keyframes cw{30.35%{fill:var(--c1)}30.37%,100%{fill:var(--ce)}}.c.cw{fill:var(--c1);animation-name:cw}@keyframes cx{41.24%{fill:var(--c1)}41.26%,100%{fill:var(--ce)}}.c.cx{fill:var(--c1);animation-name:cx}@keyframes cy{40.91%{fill:var(--c1)}40.93%,100%{fill:var(--ce)}}.c.cy{fill:var(--c1);animation-name:cy}@keyframes cz{21.44%{fill:var(--c1)}21.46%,100%{fill:var(--ce)}}.c.cz{fill:var(--c1);animation-name:cz}@keyframes c10{21.77%{fill:var(--c1)}21.79%,100%{fill:var(--ce)}}.c.c10{fill:var(--c1);animation-name:c10}@keyframes c11{23.42%{fill:var(--c1)}23.44%,100%{fill:var(--ce)}}.c.c11{fill:var(--c1);animation-name:c11}@keyframes c12{18.47%{fill:var(--c1)}18.49%,100%{fill:var(--ce)}}.c.c12{fill:var(--c1);animation-name:c12}@keyframes c13{30.68%{fill:var(--c1)}30.7%,100%{fill:var(--ce)}}.c.c13{fill:var(--c1);animation-name:c13}@keyframes c14{31.01%{fill:var(--c1)}31.03%,100%{fill:var(--ce)}}.c.c14{fill:var(--c1);animation-name:c14}@keyframes c15{40.58%{fill:var(--c1)}40.6%,100%{fill:var(--ce)}}.c.c15{fill:var(--c1);animation-name:c15}@keyframes c16{21.11%{fill:var(--c1)}21.13%,100%{fill:var(--ce)}}.c.c16{fill:var(--c1);animation-name:c16}@keyframes c17{22.1%{fill:var(--c1)}22.12%,100%{fill:var(--ce)}}.c.c17{fill:var(--c1);animation-name:c17}@keyframes c18{23.09%{fill:var(--c1)}23.11%,100%{fill:var(--ce)}}.c.c18{fill:var(--c1);animation-name:c18}@keyframes c19{18.8%{fill:var(--c1)}18.82%,100%{fill:var(--ce)}}.c.c19{fill:var(--c1);animation-name:c19}@keyframes c1a{75.24%{fill:var(--c3)}75.26%,100%{fill:var(--ce)}}.c.c1a{fill:var(--c3);animation-name:c1a}@keyframes c1b{31.34%{fill:var(--c1)}31.36%,100%{fill:var(--ce)}}.c.c1b{fill:var(--c1);animation-name:c1b}@keyframes c1c{40.25%{fill:var(--c1)}40.27%,100%{fill:var(--ce)}}.c.c1c{fill:var(--c1);animation-name:c1c}@keyframes c1d{20.78%{fill:var(--c1)}20.8%,100%{fill:var(--ce)}}.c.c1d{fill:var(--c1);animation-name:c1d}@keyframes c1e{22.43%{fill:var(--c1)}22.45%,100%{fill:var(--ce)}}.c.c1e{fill:var(--c1);animation-name:c1e}@keyframes c1f{19.46%{fill:var(--c1)}19.48%,100%{fill:var(--ce)}}.c.c1f{fill:var(--c1);animation-name:c1f}@keyframes c1g{19.13%{fill:var(--c1)}19.15%,100%{fill:var(--ce)}}.c.c1g{fill:var(--c1);animation-name:c1g}@keyframes c1h{42.56%{fill:var(--c1)}42.58%,100%{fill:var(--ce)}}.c.c1h{fill:var(--c1);animation-name:c1h}@keyframes c1i{31.67%{fill:var(--c1)}31.69%,100%{fill:var(--ce)}}.c.c1i{fill:var(--c1);animation-name:c1i}@keyframes c1j{39.92%{fill:var(--c1)}39.94%,100%{fill:var(--ce)}}.c.c1j{fill:var(--c1);animation-name:c1j}@keyframes c1k{20.45%{fill:var(--c1)}20.47%,100%{fill:var(--ce)}}.c.c1k{fill:var(--c1);animation-name:c1k}@keyframes c1l{20.12%{fill:var(--c1)}20.14%,100%{fill:var(--ce)}}.c.c1l{fill:var(--c1);animation-name:c1l}@keyframes c1m{19.79%{fill:var(--c1)}19.81%,100%{fill:var(--ce)}}.c.c1m{fill:var(--c1);animation-name:c1m}@keyframes c1n{76.23%{fill:var(--c4)}76.25%,100%{fill:var(--ce)}}.c.c1n{fill:var(--c4);animation-name:c1n}@keyframes c1o{42.89%{fill:var(--c1)}42.91%,100%{fill:var(--ce)}}.c.c1o{fill:var(--c1);animation-name:c1o}@keyframes c1p{32%{fill:var(--c1)}32.02%,100%{fill:var(--ce)}}.c.c1p{fill:var(--c1);animation-name:c1p}@keyframes c1q{39.59%{fill:var(--c1)}39.61%,100%{fill:var(--ce)}}.c.c1q{fill:var(--c1);animation-name:c1q}@keyframes c1r{78.21%{fill:var(--c4)}78.23%,100%{fill:var(--ce)}}.c.c1r{fill:var(--c4);animation-name:c1r}@keyframes c1s{50.16%{fill:var(--c2)}50.18%,100%{fill:var(--ce)}}.c.c1s{fill:var(--c2);animation-name:c1s}@keyframes c1t{50.49%{fill:var(--c2)}50.51%,100%{fill:var(--ce)}}.c.c1t{fill:var(--c2);animation-name:c1t}@keyframes c1u{32.99%{fill:var(--c1)}33.01%,100%{fill:var(--ce)}}.c.c1u{fill:var(--c1);animation-name:c1u}@keyframes c1v{32.66%{fill:var(--c1)}32.68%,100%{fill:var(--ce)}}.c.c1v{fill:var(--c1);animation-name:c1v}@keyframes c1w{32.33%{fill:var(--c1)}32.35%,100%{fill:var(--ce)}}.c.c1w{fill:var(--c1);animation-name:c1w}@keyframes c1x{39.26%{fill:var(--c1)}39.28%,100%{fill:var(--ce)}}.c.c1x{fill:var(--c1);animation-name:c1x}@keyframes c1y{34.97%{fill:var(--c1)}34.99%,100%{fill:var(--ce)}}.c.c1y{fill:var(--c1);animation-name:c1y}@keyframes c1z{77.55%{fill:var(--c4)}77.57%,100%{fill:var(--ce)}}.c.c1z{fill:var(--c4);animation-name:c1z}@keyframes c20{36.95%{fill:var(--c1)}36.97%,100%{fill:var(--ce)}}.c.c20{fill:var(--c1);animation-name:c20}@keyframes c21{33.32%{fill:var(--c1)}33.34%,100%{fill:var(--ce)}}.c.c21{fill:var(--c1);animation-name:c21}@keyframes c22{51.48%{fill:var(--c2)}51.5%,100%{fill:var(--ce)}}.c.c22{fill:var(--c2);animation-name:c22}@keyframes c23{51.81%{fill:var(--c2)}51.83%,100%{fill:var(--ce)}}.c.c23{fill:var(--c2);animation-name:c23}@keyframes c24{38.93%{fill:var(--c1)}38.95%,100%{fill:var(--ce)}}.c.c24{fill:var(--c1);animation-name:c24}@keyframes c25{34.64%{fill:var(--c1)}34.66%,100%{fill:var(--ce)}}.c.c25{fill:var(--c1);animation-name:c25}@keyframes c26{34.31%{fill:var(--c1)}34.33%,100%{fill:var(--ce)}}.c.c26{fill:var(--c1);animation-name:c26}@keyframes c27{33.98%{fill:var(--c1)}34%,100%{fill:var(--ce)}}.c.c27{fill:var(--c1);animation-name:c27}@keyframes c28{33.65%{fill:var(--c1)}33.67%,100%{fill:var(--ce)}}.c.c28{fill:var(--c1);animation-name:c28}@keyframes c29{37.94%{fill:var(--c1)}37.96%,100%{fill:var(--ce)}}.c.c29{fill:var(--c1);animation-name:c29}.u{transform-origin:0 0;transform:scale(0,1);animation:none linear 30300ms infinite}@keyframes u0{6.92%{transform:scale(0.000,1)}6.94%,9.56%{transform:scale(0.016,1)}9.58%,11.54%{transform:scale(0.032,1)}11.56%,16.82%{transform:scale(0.048,1)}16.84%,17.48%{transform:scale(0.065,1)}17.5%,17.81%{transform:scale(0.081,1)}17.83%,18.14%{transform:scale(0.097,1)}18.16%,18.47%{transform:scale(0.113,1)}18.49%,18.8%{transform:scale(0.129,1)}18.82%,19.13%{transform:scale(0.145,1)}19.15%,19.46%{transform:scale(0.161,1)}19.48%,19.79%{transform:scale(0.177,1)}19.81%,20.12%{transform:scale(0.194,1)}20.14%,20.45%{transform:scale(0.210,1)}20.47%,20.78%{transform:scale(0.226,1)}20.8%,21.11%{transform:scale(0.242,1)}21.13%,21.44%{transform:scale(0.258,1)}21.46%,21.77%{transform:scale(0.274,1)}21.79%,22.1%{transform:scale(0.290,1)}22.12%,22.43%{transform:scale(0.306,1)}22.45%,23.09%{transform:scale(0.323,1)}23.11%,23.42%{transform:scale(0.339,1)}23.44%,23.75%{transform:scale(0.355,1)}23.77%,24.08%{transform:scale(0.371,1)}24.1%,25.4%{transform:scale(0.387,1)}25.42%,25.73%{transform:scale(0.403,1)}25.75%,26.06%{transform:scale(0.419,1)}26.08%,26.39%{transform:scale(0.435,1)}26.41%,26.72%{transform:scale(0.452,1)}26.74%,28.37%{transform:scale(0.468,1)}28.39%,29.69%{transform:scale(0.484,1)}29.71%,30.02%{transform:scale(0.500,1)}30.04%,30.35%{transform:scale(0.516,1)}30.37%,30.68%{transform:scale(0.532,1)}30.7%,31.01%{transform:scale(0.548,1)}31.03%,31.34%{transform:scale(0.565,1)}31.36%,31.67%{transform:scale(0.581,1)}31.69%,32%{transform:scale(0.597,1)}32.02%,32.33%{transform:scale(0.613,1)}32.35%,32.66%{transform:scale(0.629,1)}32.68%,32.99%{transform:scale(0.645,1)}33.01%,33.32%{transform:scale(0.661,1)}33.34%,33.65%{transform:scale(0.677,1)}33.67%,33.98%{transform:scale(0.694,1)}34%,34.31%{transform:scale(0.710,1)}34.33%,34.64%{transform:scale(0.726,1)}34.66%,34.97%{transform:scale(0.742,1)}34.99%,36.95%{transform:scale(0.758,1)}36.97%,37.94%{transform:scale(0.774,1)}37.96%,38.93%{transform:scale(0.790,1)}38.95%,39.26%{transform:scale(0.806,1)}39.28%,39.59%{transform:scale(0.823,1)}39.61%,39.92%{transform:scale(0.839,1)}39.94%,40.25%{transform:scale(0.855,1)}40.27%,40.58%{transform:scale(0.871,1)}40.6%,40.91%{transform:scale(0.887,1)}40.93%,41.24%{transform:scale(0.903,1)}41.26%,42.56%{transform:scale(0.919,1)}42.58%,42.89%{transform:scale(0.935,1)}42.91%,45.2%{transform:scale(0.952,1)}45.22%,45.53%{transform:scale(0.968,1)}45.55%,45.86%{transform:scale(0.984,1)}45.88%,100%{transform:scale(1.000,1)}}.u.u0{fill:var(--c1);animation-name:u0;transform-origin:0.0px 0}@keyframes u1{46.19%{transform:scale(0.000,1)}46.21%,48.17%{transform:scale(0.111,1)}48.19%,50.16%{transform:scale(0.222,1)}50.18%,50.49%{transform:scale(0.333,1)}50.51%,51.48%{transform:scale(0.444,1)}51.5%,51.81%{transform:scale(0.556,1)}51.83%,60.39%{transform:scale(0.667,1)}60.41%,60.72%{transform:scale(0.778,1)}60.74%,64.68%{transform:scale(0.889,1)}64.7%,100%{transform:scale(1.000,1)}}.u.u1{fill:var(--c2);animation-name:u1;transform-origin:641.2px 0}@keyframes u2{73.26%{transform:scale(0.000,1)}73.28%,75.24%{transform:scale(0.500,1)}75.26%,100%{transform:scale(1.000,1)}}.u.u2{fill:var(--c3);animation-name:u2;transform-origin:734.2px 0}@keyframes u3{76.23%{transform:scale(0.000,1)}76.25%,77.55%{transform:scale(0.111,1)}77.57%,78.21%{transform:scale(0.222,1)}78.23%,82.5%{transform:scale(0.333,1)}82.52%,82.83%{transform:scale(0.444,1)}82.85%,83.16%{transform:scale(0.556,1)}83.18%,83.49%{transform:scale(0.667,1)}83.51%,83.82%{transform:scale(0.778,1)}83.84%,93.39%{transform:scale(0.889,1)}93.41%,100%{transform:scale(1.000,1)}}.u.u3{fill:var(--c4);animation-name:u3;transform-origin:754.9px 0}.s{shape-rendering:geometricPrecision;fill:var(--cs);animation:none linear 30300ms infinite}@keyframes s0{0%,99.67%{transform:translate(0px,-16px)}0.33%{transform:translate(0px,0px)}5.94%{transform:translate(272px,0px)}6.27%{transform:translate(272px,16px)}7.92%{transform:translate(352px,16px)}9.57%{transform:translate(352px,96px)}15.51%{transform:translate(640px,96px)}16.5%{transform:translate(640px,48px)}19.14%,53.47%{transform:translate(768px,48px)}19.47%,22.77%{transform:translate(768px,32px)}19.8%{transform:translate(784px,32px)}20.46%,49.5%{transform:translate(784px,0px)}21.45%{transform:translate(736px,0px)}21.78%,24.42%{transform:translate(736px,16px)}22.44%{transform:translate(768px,16px)}23.76%{transform:translate(720px,32px)}24.09%{transform:translate(720px,16px)}24.75%{transform:translate(736px,32px)}25.74%{transform:translate(688px,32px)}26.4%{transform:translate(688px,0px)}26.73%{transform:translate(704px,0px)}27.06%{transform:translate(704px,-16px)}27.72%{transform:translate(672px,-16px)}28.38%{transform:translate(672px,16px)}28.71%{transform:translate(688px,16px)}29.7%{transform:translate(688px,64px)}30.69%{transform:translate(736px,64px)}31.02%{transform:translate(736px,80px)}32.34%,52.15%{transform:translate(800px,80px)}33%{transform:translate(800px,48px)}33.66%,37.62%{transform:translate(832px,48px)}34.65%{transform:translate(832px,0px)}34.98%,77.89%{transform:translate(816px,0px)}35.31%{transform:translate(816px,-16px)}35.64%{transform:translate(832px,-16px)}36.63%{transform:translate(832px,32px)}36.96%,50.83%{transform:translate(816px,32px)}37.29%,76.9%{transform:translate(816px,48px)}38.61%{transform:translate(832px,96px)}40.92%,44.88%{transform:translate(720px,96px)}41.25%,44.55%,46.53%{transform:translate(720px,80px)}42.24%{transform:translate(768px,80px)}42.57%,53.14%{transform:translate(768px,64px)}42.9%,75.91%{transform:translate(784px,64px)}43.23%{transform:translate(784px,80px)}45.54%{transform:translate(688px,96px)}45.87%{transform:translate(688px,80px)}48.18%{transform:translate(720px,0px)}49.83%{transform:translate(784px,16px)}50.17%{transform:translate(800px,16px)}50.5%{transform:translate(800px,32px)}51.82%{transform:translate(816px,80px)}52.48%{transform:translate(800px,64px)}60.07%{transform:translate(448px,48px)}60.73%{transform:translate(448px,80px)}61.06%{transform:translate(432px,80px)}62.05%{transform:translate(432px,32px)}64.69%{transform:translate(304px,32px)}65.02%{transform:translate(304px,16px)}74.26%{transform:translate(752px,16px)}75.25%{transform:translate(752px,64px)}76.24%{transform:translate(784px,48px)}81.19%,85.81%{transform:translate(656px,0px)}82.84%{transform:translate(656px,80px)}83.17%{transform:translate(672px,80px)}83.5%{transform:translate(672px,96px)}83.83%{transform:translate(656px,96px)}97.36%{transform:translate(96px,0px)}97.69%{transform:translate(96px,-16px)}}.s.s0{transform:translate(0px,-16px);animation-name:s0}@keyframes s1{0%,99.67%{transform:translate(16px,-16px)}0.33%{transform:translate(0px,-16px)}0.66%{transform:translate(0px,0px)}6.27%{transform:translate(272px,0px)}6.6%{transform:translate(272px,16px)}8.25%{transform:translate(352px,16px)}9.9%{transform:translate(352px,96px)}15.84%{transform:translate(640px,96px)}16.83%{transform:translate(640px,48px)}19.47%,53.8%{transform:translate(768px,48px)}19.8%,23.1%{transform:translate(768px,32px)}20.13%{transform:translate(784px,32px)}20.79%,49.83%{transform:translate(784px,0px)}21.78%{transform:translate(736px,0px)}22.11%,24.75%{transform:translate(736px,16px)}22.77%{transform:translate(768px,16px)}24.09%{transform:translate(720px,32px)}24.42%{transform:translate(720px,16px)}25.08%{transform:translate(736px,32px)}26.07%{transform:translate(688px,32px)}26.73%{transform:translate(688px,0px)}27.06%{transform:translate(704px,0px)}27.39%{transform:translate(704px,-16px)}28.05%{transform:translate(672px,-16px)}28.71%{transform:translate(672px,16px)}29.04%{transform:translate(688px,16px)}30.03%{transform:translate(688px,64px)}31.02%{transform:translate(736px,64px)}31.35%{transform:translate(736px,80px)}32.67%,52.48%{transform:translate(800px,80px)}33.33%{transform:translate(800px,48px)}33.99%,37.95%{transform:translate(832px,48px)}34.98%{transform:translate(832px,0px)}35.31%,78.22%{transform:translate(816px,0px)}35.64%{transform:translate(816px,-16px)}35.97%{transform:translate(832px,-16px)}36.96%{transform:translate(832px,32px)}37.29%,51.16%{transform:translate(816px,32px)}37.62%,77.23%{transform:translate(816px,48px)}38.94%{transform:translate(832px,96px)}41.25%,45.21%{transform:translate(720px,96px)}41.58%,44.88%,46.86%{transform:translate(720px,80px)}42.57%{transform:translate(768px,80px)}42.9%,53.47%{transform:translate(768px,64px)}43.23%,76.24%{transform:translate(784px,64px)}43.56%{transform:translate(784px,80px)}45.87%{transform:translate(688px,96px)}46.2%{transform:translate(688px,80px)}48.51%{transform:translate(720px,0px)}50.17%{transform:translate(784px,16px)}50.5%{transform:translate(800px,16px)}50.83%{transform:translate(800px,32px)}52.15%{transform:translate(816px,80px)}52.81%{transform:translate(800px,64px)}60.4%{transform:translate(448px,48px)}61.06%{transform:translate(448px,80px)}61.39%{transform:translate(432px,80px)}62.38%{transform:translate(432px,32px)}65.02%{transform:translate(304px,32px)}65.35%{transform:translate(304px,16px)}74.59%{transform:translate(752px,16px)}75.58%{transform:translate(752px,64px)}76.57%{transform:translate(784px,48px)}81.52%,86.14%{transform:translate(656px,0px)}83.17%{transform:translate(656px,80px)}83.5%{transform:translate(672px,80px)}83.83%{transform:translate(672px,96px)}84.16%{transform:translate(656px,96px)}97.69%{transform:translate(96px,0px)}98.02%{transform:translate(96px,-16px)}}.s.s1{transform:translate(16px,-16px);animation-name:s1}@keyframes s2{0%,99.67%{transform:translate(32px,-16px)}0.66%{transform:translate(0px,-16px)}0.99%{transform:translate(0px,0px)}6.6%{transform:translate(272px,0px)}6.93%{transform:translate(272px,16px)}8.58%{transform:translate(352px,16px)}10.23%{transform:translate(352px,96px)}16.17%{transform:translate(640px,96px)}17.16%{transform:translate(640px,48px)}19.8%,54.13%{transform:translate(768px,48px)}20.13%,23.43%{transform:translate(768px,32px)}20.46%{transform:translate(784px,32px)}21.12%,50.17%{transform:translate(784px,0px)}22.11%{transform:translate(736px,0px)}22.44%,25.08%{transform:translate(736px,16px)}23.1%{transform:translate(768px,16px)}24.42%{transform:translate(720px,32px)}24.75%{transform:translate(720px,16px)}25.41%{transform:translate(736px,32px)}26.4%{transform:translate(688px,32px)}27.06%{transform:translate(688px,0px)}27.39%{transform:translate(704px,0px)}27.72%{transform:translate(704px,-16px)}28.38%{transform:translate(672px,-16px)}29.04%{transform:translate(672px,16px)}29.37%{transform:translate(688px,16px)}30.36%{transform:translate(688px,64px)}31.35%{transform:translate(736px,64px)}31.68%{transform:translate(736px,80px)}33%,52.81%{transform:translate(800px,80px)}33.66%{transform:translate(800px,48px)}34.32%,38.28%{transform:translate(832px,48px)}35.31%{transform:translate(832px,0px)}35.64%,78.55%{transform:translate(816px,0px)}35.97%{transform:translate(816px,-16px)}36.3%{transform:translate(832px,-16px)}37.29%{transform:translate(832px,32px)}37.62%,51.49%{transform:translate(816px,32px)}37.95%,77.56%{transform:translate(816px,48px)}39.27%{transform:translate(832px,96px)}41.58%,45.54%{transform:translate(720px,96px)}41.91%,45.21%,47.19%{transform:translate(720px,80px)}42.9%{transform:translate(768px,80px)}43.23%,53.8%{transform:translate(768px,64px)}43.56%,76.57%{transform:translate(784px,64px)}43.89%{transform:translate(784px,80px)}46.2%{transform:translate(688px,96px)}46.53%{transform:translate(688px,80px)}48.84%{transform:translate(720px,0px)}50.5%{transform:translate(784px,16px)}50.83%{transform:translate(800px,16px)}51.16%{transform:translate(800px,32px)}52.48%{transform:translate(816px,80px)}53.14%{transform:translate(800px,64px)}60.73%{transform:translate(448px,48px)}61.39%{transform:translate(448px,80px)}61.72%{transform:translate(432px,80px)}62.71%{transform:translate(432px,32px)}65.35%{transform:translate(304px,32px)}65.68%{transform:translate(304px,16px)}74.92%{transform:translate(752px,16px)}75.91%{transform:translate(752px,64px)}76.9%{transform:translate(784px,48px)}81.85%,86.47%{transform:translate(656px,0px)}83.5%{transform:translate(656px,80px)}83.83%{transform:translate(672px,80px)}84.16%{transform:translate(672px,96px)}84.49%{transform:translate(656px,96px)}98.02%{transform:translate(96px,0px)}98.35%{transform:translate(96px,-16px)}}.s.s2{transform:translate(32px,-16px);animation-name:s2}@keyframes s3{0%,99.67%{transform:translate(48px,-16px)}0.99%{transform:translate(0px,-16px)}1.32%{transform:translate(0px,0px)}6.93%{transform:translate(272px,0px)}7.26%{transform:translate(272px,16px)}8.91%{transform:translate(352px,16px)}10.56%{transform:translate(352px,96px)}16.5%{transform:translate(640px,96px)}17.49%{transform:translate(640px,48px)}20.13%,54.46%{transform:translate(768px,48px)}20.46%,23.76%{transform:translate(768px,32px)}20.79%{transform:translate(784px,32px)}21.45%,50.5%{transform:translate(784px,0px)}22.44%{transform:translate(736px,0px)}22.77%,25.41%{transform:translate(736px,16px)}23.43%{transform:translate(768px,16px)}24.75%{transform:translate(720px,32px)}25.08%{transform:translate(720px,16px)}25.74%{transform:translate(736px,32px)}26.73%{transform:translate(688px,32px)}27.39%{transform:translate(688px,0px)}27.72%{transform:translate(704px,0px)}28.05%{transform:translate(704px,-16px)}28.71%{transform:translate(672px,-16px)}29.37%{transform:translate(672px,16px)}29.7%{transform:translate(688px,16px)}30.69%{transform:translate(688px,64px)}31.68%{transform:translate(736px,64px)}32.01%{transform:translate(736px,80px)}33.33%,53.14%{transform:translate(800px,80px)}33.99%{transform:translate(800px,48px)}34.65%,38.61%{transform:translate(832px,48px)}35.64%{transform:translate(832px,0px)}35.97%,78.88%{transform:translate(816px,0px)}36.3%{transform:translate(816px,-16px)}36.63%{transform:translate(832px,-16px)}37.62%{transform:translate(832px,32px)}37.95%,51.82%{transform:translate(816px,32px)}38.28%,77.89%{transform:translate(816px,48px)}39.6%{transform:translate(832px,96px)}41.91%,45.87%{transform:translate(720px,96px)}42.24%,45.54%,47.52%{transform:translate(720px,80px)}43.23%{transform:translate(768px,80px)}43.56%,54.13%{transform:translate(768px,64px)}43.89%,76.9%{transform:translate(784px,64px)}44.22%{transform:translate(784px,80px)}46.53%{transform:translate(688px,96px)}46.86%{transform:translate(688px,80px)}49.17%{transform:translate(720px,0px)}50.83%{transform:translate(784px,16px)}51.16%{transform:translate(800px,16px)}51.49%{transform:translate(800px,32px)}52.81%{transform:translate(816px,80px)}53.47%{transform:translate(800px,64px)}61.06%{transform:translate(448px,48px)}61.72%{transform:translate(448px,80px)}62.05%{transform:translate(432px,80px)}63.04%{transform:translate(432px,32px)}65.68%{transform:translate(304px,32px)}66.01%{transform:translate(304px,16px)}75.25%{transform:translate(752px,16px)}76.24%{transform:translate(752px,64px)}77.23%{transform:translate(784px,48px)}82.18%,86.8%{transform:translate(656px,0px)}83.83%{transform:translate(656px,80px)}84.16%{transform:translate(672px,80px)}84.49%{transform:translate(672px,96px)}84.82%{transform:translate(656px,96px)}98.35%{transform:translate(96px,0px)}98.68%{transform:translate(96px,-16px)}}.s.s3{transform:translate(48px,-16px);animation-name:s3}</style><rect class="c" x="2" y="2" rx="2" ry="2"/><rect class="c" x="2" y="18" rx="2" ry="2"/><rect class="c" x="2" y="34" rx="2" ry="2"/><rect class="c" x="2" y="50" rx="2" ry="2"/><rect class="c" x="2" y="66" rx="2" ry="2"/><rect class="c" x="2" y="82" rx="2" ry="2"/><rect class="c" x="2" y="98" rx="2" ry="2"/><rect class="c" x="18" y="2" rx="2" ry="2"/><rect class="c" x="18" y="18" rx="2" ry="2"/><rect class="c" x="18" y="34" rx="2" ry="2"/><rect class="c" x="18" y="50" rx="2" ry="2"/><rect class="c" x="18" y="66" rx="2" ry="2"/><rect class="c" x="18" y="82" rx="2" ry="2"/><rect class="c" x="18" y="98" rx="2" ry="2"/><rect class="c" x="34" y="2" rx="2" ry="2"/><rect class="c" x="34" y="18" rx="2" ry="2"/><rect class="c" x="34" y="34" rx="2" ry="2"/><rect class="c" x="34" y="50" rx="2" ry="2"/><rect class="c" x="34" y="66" rx="2" ry="2"/><rect class="c" x="34" y="82" rx="2" ry="2"/><rect class="c" x="34" y="98" rx="2" ry="2"/><rect class="c" x="50" y="2" rx="2" ry="2"/><rect class="c" x="50" y="18" rx="2" ry="2"/><rect class="c" x="50" y="34" rx="2" ry="2"/><rect class="c" x="50" y="50" rx="2" ry="2"/><rect class="c" x="50" y="66" rx="2" ry="2"/><rect class="c" x="50" y="82" rx="2" ry="2"/><rect class="c" x="50" y="98" rx="2" ry="2"/><rect class="c" x="66" y="2" rx="2" ry="2"/><rect class="c" x="66" y="18" rx="2" ry="2"/><rect class="c" x="66" y="34" rx="2" ry="2"/><rect class="c" x="66" y="50" rx="2" ry="2"/><rect class="c" x="66" y="66" rx="2" ry="2"/><rect class="c" x="66" y="82" rx="2" ry="2"/><rect class="c" x="66" y="98" rx="2" ry="2"/><rect class="c" x="82" y="2" rx="2" ry="2"/><rect class="c" x="82" y="18" rx="2" ry="2"/><rect class="c" x="82" y="34" rx="2" ry="2"/><rect class="c" x="82" y="50" rx="2" ry="2"/><rect class="c" x="82" y="66" rx="2" ry="2"/><rect class="c" x="82" y="82" rx="2" ry="2"/><rect class="c" x="82" y="98" rx="2" ry="2"/><rect class="c" x="98" y="2" rx="2" ry="2"/><rect class="c" x="98" y="18" rx="2" ry="2"/><rect class="c" x="98" y="34" rx="2" ry="2"/><rect class="c" x="98" y="50" rx="2" ry="2"/><rect class="c" x="98" y="66" rx="2" ry="2"/><rect class="c" x="98" y="82" rx="2" ry="2"/><rect class="c" x="98" y="98" rx="2" ry="2"/><rect class="c" x="114" y="2" rx="2" ry="2"/><rect class="c" x="114" y="18" rx="2" ry="2"/><rect class="c" x="114" y="34" rx="2" ry="2"/><rect class="c" x="114" y="50" rx="2" ry="2"/><rect class="c" x="114" y="66" rx="2" ry="2"/><rect class="c" x="114" y="82" rx="2" ry="2"/><rect class="c" x="114" y="98" rx="2" ry="2"/><rect class="c" x="130" y="2" rx="2" ry="2"/><rect class="c" x="130" y="18" rx="2" ry="2"/><rect class="c" x="130" y="34" rx="2" ry="2"/><rect class="c" x="130" y="50" rx="2" ry="2"/><rect class="c" x="130" y="66" rx="2" ry="2"/><rect class="c" x="130" y="82" rx="2" ry="2"/><rect class="c" x="130" y="98" rx="2" ry="2"/><rect class="c" x="146" y="2" rx="2" ry="2"/><rect class="c" x="146" y="18" rx="2" ry="2"/><rect class="c" x="146" y="34" rx="2" ry="2"/><rect class="c" x="146" y="50" rx="2" ry="2"/><rect class="c" x="146" y="66" rx="2" ry="2"/><rect class="c" x="146" y="82" rx="2" ry="2"/><rect class="c" x="146" y="98" rx="2" ry="2"/><rect class="c" x="162" y="2" rx="2" ry="2"/><rect class="c" x="162" y="18" rx="2" ry="2"/><rect class="c" x="162" y="34" rx="2" ry="2"/><rect class="c" x="162" y="50" rx="2" ry="2"/><rect class="c" x="162" y="66" rx="2" ry="2"/><rect class="c" x="162" y="82" rx="2" ry="2"/><rect class="c" x="162" y="98" rx="2" ry="2"/><rect class="c" x="178" y="2" rx="2" ry="2"/><rect class="c" x="178" y="18" rx="2" ry="2"/><rect class="c" x="178" y="34" rx="2" ry="2"/><rect class="c" x="178" y="50" rx="2" ry="2"/><rect class="c" x="178" y="66" rx="2" ry="2"/><rect class="c" x="178" y="82" rx="2" ry="2"/><rect class="c" x="178" y="98" rx="2" ry="2"/><rect class="c" x="194" y="2" rx="2" ry="2"/><rect class="c" x="194" y="18" rx="2" ry="2"/><rect class="c" x="194" y="34" rx="2" ry="2"/><rect class="c" x="194" y="50" rx="2" ry="2"/><rect class="c" x="194" y="66" rx="2" ry="2"/><rect class="c" x="194" y="82" rx="2" ry="2"/><rect class="c" x="194" y="98" rx="2" ry="2"/><rect class="c" x="210" y="2" rx="2" ry="2"/><rect class="c" x="210" y="18" rx="2" ry="2"/><rect class="c" x="210" y="34" rx="2" ry="2"/><rect class="c" x="210" y="50" rx="2" ry="2"/><rect class="c" x="210" y="66" rx="2" ry="2"/><rect class="c" x="210" y="82" rx="2" ry="2"/><rect class="c" x="210" y="98" rx="2" ry="2"/><rect class="c" x="226" y="2" rx="2" ry="2"/><rect class="c" x="226" y="18" rx="2" ry="2"/><rect class="c" x="226" y="34" rx="2" ry="2"/><rect class="c" x="226" y="50" rx="2" ry="2"/><rect class="c" x="226" y="66" rx="2" ry="2"/><rect class="c" x="226" y="82" rx="2" ry="2"/><rect class="c" x="226" y="98" rx="2" ry="2"/><rect class="c" x="242" y="2" rx="2" ry="2"/><rect class="c" x="242" y="18" rx="2" ry="2"/><rect class="c" x="242" y="34" rx="2" ry="2"/><rect class="c" x="242" y="50" rx="2" ry="2"/><rect class="c" x="242" y="66" rx="2" ry="2"/><rect class="c" x="242" y="82" rx="2" ry="2"/><rect class="c" x="242" y="98" rx="2" ry="2"/><rect class="c" x="258" y="2" rx="2" ry="2"/><rect class="c" x="258" y="18" rx="2" ry="2"/><rect class="c" x="258" y="34" rx="2" ry="2"/><rect class="c" x="258" y="50" rx="2" ry="2"/><rect class="c" x="258" y="66" rx="2" ry="2"/><rect class="c" x="258" y="82" rx="2" ry="2"/><rect class="c" x="258" y="98" rx="2" ry="2"/><rect class="c" x="274" y="2" rx="2" ry="2"/><rect class="c" x="274" y="18" rx="2" ry="2"/><rect class="c" x="274" y="34" rx="2" ry="2"/><rect class="c" x="274" y="50" rx="2" ry="2"/><rect class="c" x="274" y="66" rx="2" ry="2"/><rect class="c" x="274" y="82" rx="2" ry="2"/><rect class="c" x="274" y="98" rx="2" ry="2"/><rect class="c c0" x="290" y="2" rx="2" ry="2"/><rect class="c" x="290" y="18" rx="2" ry="2"/><rect class="c" x="290" y="34" rx="2" ry="2"/><rect class="c" x="290" y="50" rx="2" ry="2"/><rect class="c" x="290" y="66" rx="2" ry="2"/><rect class="c" x="290" y="82" rx="2" ry="2"/><rect class="c" x="290" y="98" rx="2" ry="2"/><rect class="c" x="306" y="2" rx="2" ry="2"/><rect class="c c1" x="306" y="18" rx="2" ry="2"/><rect class="c c2" x="306" y="34" rx="2" ry="2"/><rect class="c" x="306" y="50" rx="2" ry="2"/><rect class="c" x="306" y="66" rx="2" ry="2"/><rect class="c" x="306" y="82" rx="2" ry="2"/><rect class="c" x="306" y="98" rx="2" ry="2"/><rect class="c" x="322" y="2" rx="2" ry="2"/><rect class="c" x="322" y="18" rx="2" ry="2"/><rect class="c" x="322" y="34" rx="2" ry="2"/><rect class="c" x="322" y="50" rx="2" ry="2"/><rect class="c" x="322" y="66" rx="2" ry="2"/><rect class="c" x="322" y="82" rx="2" ry="2"/><rect class="c" x="322" y="98" rx="2" ry="2"/><rect class="c" x="338" y="2" rx="2" ry="2"/><rect class="c" x="338" y="18" rx="2" ry="2"/><rect class="c" x="338" y="34" rx="2" ry="2"/><rect class="c" x="338" y="50" rx="2" ry="2"/><rect class="c" x="338" y="66" rx="2" ry="2"/><rect class="c" x="338" y="82" rx="2" ry="2"/><rect class="c" x="338" y="98" rx="2" ry="2"/><rect class="c" x="354" y="2" rx="2" ry="2"/><rect class="c" x="354" y="18" rx="2" ry="2"/><rect class="c" x="354" y="34" rx="2" ry="2"/><rect class="c" x="354" y="50" rx="2" ry="2"/><rect class="c" x="354" y="66" rx="2" ry="2"/><rect class="c" x="354" y="82" rx="2" ry="2"/><rect class="c c3" x="354" y="98" rx="2" ry="2"/><rect class="c" x="370" y="2" rx="2" ry="2"/><rect class="c" x="370" y="18" rx="2" ry="2"/><rect class="c" x="370" y="34" rx="2" ry="2"/><rect class="c" x="370" y="50" rx="2" ry="2"/><rect class="c" x="370" y="66" rx="2" ry="2"/><rect class="c" x="370" y="82" rx="2" ry="2"/><rect class="c" x="370" y="98" rx="2" ry="2"/><rect class="c" x="386" y="2" rx="2" ry="2"/><rect class="c" x="386" y="18" rx="2" ry="2"/><rect class="c" x="386" y="34" rx="2" ry="2"/><rect class="c" x="386" y="50" rx="2" ry="2"/><rect class="c" x="386" y="66" rx="2" ry="2"/><rect class="c" x="386" y="82" rx="2" ry="2"/><rect class="c" x="386" y="98" rx="2" ry="2"/><rect class="c" x="402" y="2" rx="2" ry="2"/><rect class="c" x="402" y="18" rx="2" ry="2"/><rect class="c" x="402" y="34" rx="2" ry="2"/><rect class="c" x="402" y="50" rx="2" ry="2"/><rect class="c" x="402" y="66" rx="2" ry="2"/><rect class="c" x="402" y="82" rx="2" ry="2"/><rect class="c" x="402" y="98" rx="2" ry="2"/><rect class="c" x="418" y="2" rx="2" ry="2"/><rect class="c" x="418" y="18" rx="2" ry="2"/><rect class="c" x="418" y="34" rx="2" ry="2"/><rect class="c" x="418" y="50" rx="2" ry="2"/><rect class="c" x="418" y="66" rx="2" ry="2"/><rect class="c" x="418" y="82" rx="2" ry="2"/><rect class="c" x="418" y="98" rx="2" ry="2"/><rect class="c" x="434" y="2" rx="2" ry="2"/><rect class="c" x="434" y="18" rx="2" ry="2"/><rect class="c" x="434" y="34" rx="2" ry="2"/><rect class="c" x="434" y="50" rx="2" ry="2"/><rect class="c" x="434" y="66" rx="2" ry="2"/><rect class="c" x="434" y="82" rx="2" ry="2"/><rect class="c" x="434" y="98" rx="2" ry="2"/><rect class="c" x="450" y="2" rx="2" ry="2"/><rect class="c" x="450" y="18" rx="2" ry="2"/><rect class="c" x="450" y="34" rx="2" ry="2"/><rect class="c" x="450" y="50" rx="2" ry="2"/><rect class="c c4" x="450" y="66" rx="2" ry="2"/><rect class="c c5" x="450" y="82" rx="2" ry="2"/><rect class="c c6" x="450" y="98" rx="2" ry="2"/><rect class="c" x="466" y="2" rx="2" ry="2"/><rect class="c" x="466" y="18" rx="2" ry="2"/><rect class="c" x="466" y="34" rx="2" ry="2"/><rect class="c" x="466" y="50" rx="2" ry="2"/><rect class="c" x="466" y="66" rx="2" ry="2"/><rect class="c" x="466" y="82" rx="2" ry="2"/><rect class="c" x="466" y="98" rx="2" ry="2"/><rect class="c" x="482" y="2" rx="2" ry="2"/><rect class="c" x="482" y="18" rx="2" ry="2"/><rect class="c" x="482" y="34" rx="2" ry="2"/><rect class="c" x="482" y="50" rx="2" ry="2"/><rect class="c" x="482" y="66" rx="2" ry="2"/><rect class="c" x="482" y="82" rx="2" ry="2"/><rect class="c" x="482" y="98" rx="2" ry="2"/><rect class="c" x="498" y="2" rx="2" ry="2"/><rect class="c" x="498" y="18" rx="2" ry="2"/><rect class="c" x="498" y="34" rx="2" ry="2"/><rect class="c" x="498" y="50" rx="2" ry="2"/><rect class="c" x="498" y="66" rx="2" ry="2"/><rect class="c" x="498" y="82" rx="2" ry="2"/><rect class="c" x="498" y="98" rx="2" ry="2"/><rect class="c" x="514" y="2" rx="2" ry="2"/><rect class="c" x="514" y="18" rx="2" ry="2"/><rect class="c" x="514" y="34" rx="2" ry="2"/><rect class="c" x="514" y="50" rx="2" ry="2"/><rect class="c" x="514" y="66" rx="2" ry="2"/><rect class="c" x="514" y="82" rx="2" ry="2"/><rect class="c" x="514" y="98" rx="2" ry="2"/><rect class="c" x="530" y="2" rx="2" ry="2"/><rect class="c" x="530" y="18" rx="2" ry="2"/><rect class="c" x="530" y="34" rx="2" ry="2"/><rect class="c" x="530" y="50" rx="2" ry="2"/><rect class="c" x="530" y="66" rx="2" ry="2"/><rect class="c" x="530" y="82" rx="2" ry="2"/><rect class="c" x="530" y="98" rx="2" ry="2"/><rect class="c" x="546" y="2" rx="2" ry="2"/><rect class="c" x="546" y="18" rx="2" ry="2"/><rect class="c" x="546" y="34" rx="2" ry="2"/><rect class="c" x="546" y="50" rx="2" ry="2"/><rect class="c" x="546" y="66" rx="2" ry="2"/><rect class="c" x="546" y="82" rx="2" ry="2"/><rect class="c" x="546" y="98" rx="2" ry="2"/><rect class="c" x="562" y="2" rx="2" ry="2"/><rect class="c" x="562" y="18" rx="2" ry="2"/><rect class="c" x="562" y="34" rx="2" ry="2"/><rect class="c" x="562" y="50" rx="2" ry="2"/><rect class="c" x="562" y="66" rx="2" ry="2"/><rect class="c" x="562" y="82" rx="2" ry="2"/><rect class="c" x="562" y="98" rx="2" ry="2"/><rect class="c" x="578" y="2" rx="2" ry="2"/><rect class="c" x="578" y="18" rx="2" ry="2"/><rect class="c" x="578" y="34" rx="2" ry="2"/><rect class="c" x="578" y="50" rx="2" ry="2"/><rect class="c" x="578" y="66" rx="2" ry="2"/><rect class="c" x="578" y="82" rx="2" ry="2"/><rect class="c" x="578" y="98" rx="2" ry="2"/><rect class="c" x="594" y="2" rx="2" ry="2"/><rect class="c" x="594" y="18" rx="2" ry="2"/><rect class="c" x="594" y="34" rx="2" ry="2"/><rect class="c" x="594" y="50" rx="2" ry="2"/><rect class="c" x="594" y="66" rx="2" ry="2"/><rect class="c" x="594" y="82" rx="2" ry="2"/><rect class="c" x="594" y="98" rx="2" ry="2"/><rect class="c" x="610" y="2" rx="2" ry="2"/><rect class="c" x="610" y="18" rx="2" ry="2"/><rect class="c" x="610" y="34" rx="2" ry="2"/><rect class="c" x="610" y="50" rx="2" ry="2"/><rect class="c" x="610" y="66" rx="2" ry="2"/><rect class="c" x="610" y="82" rx="2" ry="2"/><rect class="c" x="610" y="98" rx="2" ry="2"/><rect class="c" x="626" y="2" rx="2" ry="2"/><rect class="c" x="626" y="18" rx="2" ry="2"/><rect class="c" x="626" y="34" rx="2" ry="2"/><rect class="c" x="626" y="50" rx="2" ry="2"/><rect class="c" x="626" y="66" rx="2" ry="2"/><rect class="c" x="626" y="82" rx="2" ry="2"/><rect class="c" x="626" y="98" rx="2" ry="2"/><rect class="c" x="642" y="2" rx="2" ry="2"/><rect class="c" x="642" y="18" rx="2" ry="2"/><rect class="c" x="642" y="34" rx="2" ry="2"/><rect class="c" x="642" y="50" rx="2" ry="2"/><rect class="c" x="642" y="66" rx="2" ry="2"/><rect class="c" x="642" y="82" rx="2" ry="2"/><rect class="c" x="642" y="98" rx="2" ry="2"/><rect class="c" x="658" y="2" rx="2" ry="2"/><rect class="c" x="658" y="18" rx="2" ry="2"/><rect class="c" x="658" y="34" rx="2" ry="2"/><rect class="c c7" x="658" y="50" rx="2" ry="2"/><rect class="c c8" x="658" y="66" rx="2" ry="2"/><rect class="c c9" x="658" y="82" rx="2" ry="2"/><rect class="c ca" x="658" y="98" rx="2" ry="2"/><rect class="c" x="674" y="2" rx="2" ry="2"/><rect class="c cb" x="674" y="18" rx="2" ry="2"/><rect class="c" x="674" y="34" rx="2" ry="2"/><rect class="c" x="674" y="50" rx="2" ry="2"/><rect class="c" x="674" y="66" rx="2" ry="2"/><rect class="c cc" x="674" y="82" rx="2" ry="2"/><rect class="c cd" x="674" y="98" rx="2" ry="2"/><rect class="c ce" x="690" y="2" rx="2" ry="2"/><rect class="c cf" x="690" y="18" rx="2" ry="2"/><rect class="c cg" x="690" y="34" rx="2" ry="2"/><rect class="c ch" x="690" y="50" rx="2" ry="2"/><rect class="c ci" x="690" y="66" rx="2" ry="2"/><rect class="c cj" x="690" y="82" rx="2" ry="2"/><rect class="c ck" x="690" y="98" rx="2" ry="2"/><rect class="c cl" x="706" y="2" rx="2" ry="2"/><rect class="c cm" x="706" y="18" rx="2" ry="2"/><rect class="c cn" x="706" y="34" rx="2" ry="2"/><rect class="c co" x="706" y="50" rx="2" ry="2"/><rect class="c cp" x="706" y="66" rx="2" ry="2"/><rect class="c cq" x="706" y="82" rx="2" ry="2"/><rect class="c cr" x="706" y="98" rx="2" ry="2"/><rect class="c cs" x="722" y="2" rx="2" ry="2"/><rect class="c ct" x="722" y="18" rx="2" ry="2"/><rect class="c cu" x="722" y="34" rx="2" ry="2"/><rect class="c cv" x="722" y="50" rx="2" ry="2"/><rect class="c cw" x="722" y="66" rx="2" ry="2"/><rect class="c cx" x="722" y="82" rx="2" ry="2"/><rect class="c cy" x="722" y="98" rx="2" ry="2"/><rect class="c cz" x="738" y="2" rx="2" ry="2"/><rect class="c c10" x="738" y="18" rx="2" ry="2"/><rect class="c c11" x="738" y="34" rx="2" ry="2"/><rect class="c c12" x="738" y="50" rx="2" ry="2"/><rect class="c c13" x="738" y="66" rx="2" ry="2"/><rect class="c c14" x="738" y="82" rx="2" ry="2"/><rect class="c c15" x="738" y="98" rx="2" ry="2"/><rect class="c c16" x="754" y="2" rx="2" ry="2"/><rect class="c c17" x="754" y="18" rx="2" ry="2"/><rect class="c c18" x="754" y="34" rx="2" ry="2"/><rect class="c c19" x="754" y="50" rx="2" ry="2"/><rect class="c c1a" x="754" y="66" rx="2" ry="2"/><rect class="c c1b" x="754" y="82" rx="2" ry="2"/><rect class="c c1c" x="754" y="98" rx="2" ry="2"/><rect class="c c1d" x="770" y="2" rx="2" ry="2"/><rect class="c c1e" x="770" y="18" rx="2" ry="2"/><rect class="c c1f" x="770" y="34" rx="2" ry="2"/><rect class="c c1g" x="770" y="50" rx="2" ry="2"/><rect class="c c1h" x="770" y="66" rx="2" ry="2"/><rect class="c c1i" x="770" y="82" rx="2" ry="2"/><rect class="c c1j" x="770" y="98" rx="2" ry="2"/><rect class="c c1k" x="786" y="2" rx="2" ry="2"/><rect class="c c1l" x="786" y="18" rx="2" ry="2"/><rect class="c c1m" x="786" y="34" rx="2" ry="2"/><rect class="c c1n" x="786" y="50" rx="2" ry="2"/><rect class="c c1o" x="786" y="66" rx="2" ry="2"/><rect class="c c1p" x="786" y="82" rx="2" ry="2"/><rect class="c c1q" x="786" y="98" rx="2" ry="2"/><rect class="c c1r" x="802" y="2" rx="2" ry="2"/><rect class="c c1s" x="802" y="18" rx="2" ry="2"/><rect class="c c1t" x="802" y="34" rx="2" ry="2"/><rect class="c c1u" x="802" y="50" rx="2" ry="2"/><rect class="c c1v" x="802" y="66" rx="2" ry="2"/><rect class="c c1w" x="802" y="82" rx="2" ry="2"/><rect class="c c1x" x="802" y="98" rx="2" ry="2"/><rect class="c c1y" x="818" y="2" rx="2" ry="2"/><rect class="c c1z" x="818" y="18" rx="2" ry="2"/><rect class="c c20" x="818" y="34" rx="2" ry="2"/><rect class="c c21" x="818" y="50" rx="2" ry="2"/><rect class="c c22" x="818" y="66" rx="2" ry="2"/><rect class="c c23" x="818" y="82" rx="2" ry="2"/><rect class="c c24" x="818" y="98" rx="2" ry="2"/><rect class="c c25" x="834" y="2" rx="2" ry="2"/><rect class="c c26" x="834" y="18" rx="2" ry="2"/><rect class="c c27" x="834" y="34" rx="2" ry="2"/><rect class="c c28" x="834" y="50" rx="2" ry="2"/><rect class="c c29" x="834" y="66" rx="2" ry="2"/><rect class="c" x="834" y="82" rx="2" ry="2"/><rect class="u u0" height="12" width="641.8" x="0.0" y="144"/><rect class="u u1" height="12" width="93.7" x="641.2" y="144"/><rect class="u u2" height="12" width="21.3" x="734.2" y="144"/><rect class="u u3" height="12" width="93.7" x="754.9" y="144"/><rect class="s s0" x="0.8" y="0.8" width="14.4" height="14.4" rx="4.5" ry="4.5"/><rect class="s s1" x="1.8" y="1.8" width="12.3" height="12.3" rx="4.1" ry="4.1"/><rect class="s s2" x="2.6" y="2.6" width="10.8" height="10.8" rx="3.6" ry="3.6"/><rect class="s s3" x="3.0" y="3.0" width="9.9" height="9.9" rx="3.3" ry="3.3"/></svg>