<svg viewBox="-16 -32 880 192" width="880" height="192" xmlns="http://www.w3.org/2000/svg"><desc>Generated with https://github.com/Platane/snk</desc><style>:root{--cb:#1b1f230a;--cs:purple;--ce:#ebedf0;--c0:#ebedf0;--c1:#9be9a8;--c2:#40c463;--c3:#30a14e;--c4:#216e39}.c{shape-rendering:geometricPrecision;fill:var(--ce);stroke-width:1px;stroke:var(--cb);animation:none 34700ms linear infinite;width:12px;height:12px}@keyframes c0{94.8%{fill:var(--c4)}94.82%,100%{fill:var(--ce)}}.c.c0{fill:var(--c4);animation-name:c0}@keyframes c1{5.47%{fill:var(--c1)}5.49%,100%{fill:var(--ce)}}.c.c1{fill:var(--c1);animation-name:c1}@keyframes c2{69.73%{fill:var(--c2)}69.75%,100%{fill:var(--ce)}}.c.c2{fill:var(--c2);animation-name:c2}@keyframes c3{7.77%{fill:var(--c1)}7.79%,100%{fill:var(--ce)}}.c.c3{fill:var(--c1);animation-name:c3}@keyframes c4{65.98%{fill:var(--c2)}66%,100%{fill:var(--ce)}}.c.c4{fill:var(--c2);animation-name:c4}@keyframes c5{66.27%{fill:var(--c2)}66.29%,100%{fill:var(--ce)}}.c.c5{fill:var(--c2);animation-name:c5}@keyframes c6{9.5%{fill:var(--c1)}9.52%,100%{fill:var(--ce)}}.c.c6{fill:var(--c1);animation-name:c6}@keyframes c7{14.11%{fill:var(--c1)}14.13%,100%{fill:var(--ce)}}.c.c7{fill:var(--c1);animation-name:c7}@keyframes c8{85.29%{fill:var(--c4)}85.31%,100%{fill:var(--ce)}}.c.c8{fill:var(--c4);animation-name:c8}@keyframes c9{85.58%{fill:var(--c4)}85.6%,100%{fill:var(--ce)}}.c.c9{fill:var(--c4);animation-name:c9}@keyframes ca{86.45%{fill:var(--c4)}86.47%,100%{fill:var(--ce)}}.c.ca{fill:var(--c4);animation-name:ca}@keyframes cb{24.2%{fill:var(--c1)}24.22%,100%{fill:var(--ce)}}.c.cb{fill:var(--c1);animation-name:cb}@keyframes cc{85.87%{fill:var(--c4)}85.89%,100%{fill:var(--ce)}}.c.cc{fill:var(--c4);animation-name:cc}@keyframes cd{86.16%{fill:var(--c4)}86.18%,100%{fill:var(--ce)}}.c.cd{fill:var(--c4);animation-name:cd}@keyframes ce{22.47%{fill:var(--c1)}22.49%,100%{fill:var(--ce)}}.c.ce{fill:var(--c1);animation-name:ce}@keyframes cf{22.18%{fill:var(--c1)}22.2%,100%{fill:var(--ce)}}.c.cf{fill:var(--c1);animation-name:cf}@keyframes cg{21.89%{fill:var(--c1)}21.91%,100%{fill:var(--ce)}}.c.cg{fill:var(--c1);animation-name:cg}@keyframes ch{14.69%{fill:var(--c1)}14.71%,100%{fill:var(--ce)}}.c.ch{fill:var(--c1);animation-name:ch}@keyframes ci{25.35%{fill:var(--c1)}25.37%,100%{fill:var(--ce)}}.c.ci{fill:var(--c1);animation-name:ci}@keyframes cj{42.35%{fill:var(--c1)}42.37%,100%{fill:var(--ce)}}.c.cj{fill:var(--c1);animation-name:cj}@keyframes ck{42.06%{fill:var(--c1)}42.08%,100%{fill:var(--ce)}}.c.ck{fill:var(--c1);animation-name:ck}@keyframes cl{22.76%{fill:var(--c1)}22.78%,100%{fill:var(--ce)}}.c.cl{fill:var(--c1);animation-name:cl}@keyframes cm{77.22%{fill:var(--c3)}77.24%,100%{fill:var(--ce)}}.c.cm{fill:var(--c3);animation-name:cm}@keyframes cn{21.6%{fill:var(--c1)}21.62%,100%{fill:var(--ce)}}.c.cn{fill:var(--c1);animation-name:cn}@keyframes co{14.98%{fill:var(--c1)}15%,100%{fill:var(--ce)}}.c.co{fill:var(--c1);animation-name:co}@keyframes cp{25.64%{fill:var(--c1)}25.66%,100%{fill:var(--ce)}}.c.cp{fill:var(--c1);animation-name:cp}@keyframes cq{53.59%{fill:var(--c2)}53.61%,100%{fill:var(--ce)}}.c.cq{fill:var(--c2);animation-name:cq}@keyframes cr{41.78%{fill:var(--c1)}41.8%,100%{fill:var(--ce)}}.c.cr{fill:var(--c1);animation-name:cr}@keyframes cs{51.86%{fill:var(--c2)}51.88%,100%{fill:var(--ce)}}.c.cs{fill:var(--c2);animation-name:cs}@keyframes ct{20.45%{fill:var(--c1)}20.47%,100%{fill:var(--ce)}}.c.ct{fill:var(--c1);animation-name:ct}@keyframes cu{20.16%{fill:var(--c1)}20.18%,100%{fill:var(--ce)}}.c.cu{fill:var(--c1);animation-name:cu}@keyframes cv{15.26%{fill:var(--c1)}15.28%,100%{fill:var(--ce)}}.c.cv{fill:var(--c1);animation-name:cv}@keyframes cw{25.93%{fill:var(--c1)}25.95%,100%{fill:var(--ce)}}.c.cw{fill:var(--c1);animation-name:cw}@keyframes cx{38.32%{fill:var(--c1)}38.34%,100%{fill:var(--ce)}}.c.cx{fill:var(--c1);animation-name:cx}@keyframes cy{38.03%{fill:var(--c1)}38.05%,100%{fill:var(--ce)}}.c.cy{fill:var(--c1);animation-name:cy}@keyframes cz{18.15%{fill:var(--c1)}18.17%,100%{fill:var(--ce)}}.c.cz{fill:var(--c1);animation-name:cz}@keyframes c10{18.43%{fill:var(--c1)}18.45%,100%{fill:var(--ce)}}.c.c10{fill:var(--c1);animation-name:c10}@keyframes c11{19.87%{fill:var(--c1)}19.89%,100%{fill:var(--ce)}}.c.c11{fill:var(--c1);animation-name:c11}@keyframes c12{15.55%{fill:var(--c1)}15.57%,100%{fill:var(--ce)}}.c.c12{fill:var(--c1);animation-name:c12}@keyframes c13{26.21%{fill:var(--c1)}26.23%,100%{fill:var(--ce)}}.c.c13{fill:var(--c1);animation-name:c13}@keyframes c14{26.5%{fill:var(--c1)}26.52%,100%{fill:var(--ce)}}.c.c14{fill:var(--c1);animation-name:c14}@keyframes c15{37.74%{fill:var(--c1)}37.76%,100%{fill:var(--ce)}}.c.c15{fill:var(--c1);animation-name:c15}@keyframes c16{17.86%{fill:var(--c1)}17.88%,100%{fill:var(--ce)}}.c.c16{fill:var(--c1);animation-name:c16}@keyframes c17{18.72%{fill:var(--c1)}18.74%,100%{fill:var(--ce)}}.c.c17{fill:var(--c1);animation-name:c17}@keyframes c18{19.59%{fill:var(--c1)}19.61%,100%{fill:var(--ce)}}.c.c18{fill:var(--c1);animation-name:c18}@keyframes c19{15.84%{fill:var(--c1)}15.86%,100%{fill:var(--ce)}}.c.c19{fill:var(--c1);animation-name:c19}@keyframes c1a{78.95%{fill:var(--c3)}78.97%,100%{fill:var(--ce)}}.c.c1a{fill:var(--c3);animation-name:c1a}@keyframes c1b{26.79%{fill:var(--c1)}26.81%,100%{fill:var(--ce)}}.c.c1b{fill:var(--c1);animation-name:c1b}@keyframes c1c{37.45%{fill:var(--c1)}37.47%,100%{fill:var(--ce)}}.c.c1c{fill:var(--c1);animation-name:c1c}@keyframes c1d{17.57%{fill:var(--c1)}17.59%,100%{fill:var(--ce)}}.c.c1d{fill:var(--c1);animation-name:c1d}@keyframes c1e{19.01%{fill:var(--c1)}19.03%,100%{fill:var(--ce)}}.c.c1e{fill:var(--c1);animation-name:c1e}@keyframes c1f{16.42%{fill:var(--c1)}16.44%,100%{fill:var(--ce)}}.c.c1f{fill:var(--c1);animation-name:c1f}@keyframes c1g{16.13%{fill:var(--c1)}16.15%,100%{fill:var(--ce)}}.c.c1g{fill:var(--c1);animation-name:c1g}@keyframes c1h{39.47%{fill:var(--c1)}39.49%,100%{fill:var(--ce)}}.c.c1h{fill:var(--c1);animation-name:c1h}@keyframes c1i{27.08%{fill:var(--c1)}27.1%,100%{fill:var(--ce)}}.c.c1i{fill:var(--c1);animation-name:c1i}@keyframes c1j{37.17%{fill:var(--c1)}37.19%,100%{fill:var(--ce)}}.c.c1j{fill:var(--c1);animation-name:c1j}@keyframes c1k{17.28%{fill:var(--c1)}17.3%,100%{fill:var(--ce)}}.c.c1k{fill:var(--c1);animation-name:c1k}@keyframes c1l{16.99%{fill:var(--c1)}17.01%,100%{fill:var(--ce)}}.c.c1l{fill:var(--c1);animation-name:c1l}@keyframes c1m{16.7%{fill:var(--c1)}16.72%,100%{fill:var(--ce)}}.c.c1m{fill:var(--c1);animation-name:c1m}@keyframes c1n{82.7%{fill:var(--c4)}82.72%,100%{fill:var(--ce)}}.c.c1n{fill:var(--c4);animation-name:c1n}@keyframes c1o{39.76%{fill:var(--c1)}39.78%,100%{fill:var(--ce)}}.c.c1o{fill:var(--c1);animation-name:c1o}@keyframes c1p{27.37%{fill:var(--c1)}27.39%,100%{fill:var(--ce)}}.c.c1p{fill:var(--c1);animation-name:c1p}@keyframes c1q{36.88%{fill:var(--c1)}36.9%,100%{fill:var(--ce)}}.c.c1q{fill:var(--c1);animation-name:c1q}@keyframes c1r{81.55%{fill:var(--c4)}81.57%,100%{fill:var(--ce)}}.c.c1r{fill:var(--c4);animation-name:c1r}@keyframes c1s{50.13%{fill:var(--c2)}50.15%,100%{fill:var(--ce)}}.c.c1s{fill:var(--c2);animation-name:c1s}@keyframes c1t{49.85%{fill:var(--c2)}49.87%,100%{fill:var(--ce)}}.c.c1t{fill:var(--c2);animation-name:c1t}@keyframes c1u{28.23%{fill:var(--c1)}28.25%,100%{fill:var(--ce)}}.c.c1u{fill:var(--c1);animation-name:c1u}@keyframes c1v{27.94%{fill:var(--c1)}27.96%,100%{fill:var(--ce)}}.c.c1v{fill:var(--c1);animation-name:c1v}@keyframes c1w{27.66%{fill:var(--c1)}27.68%,100%{fill:var(--ce)}}.c.c1w{fill:var(--c1);animation-name:c1w}@keyframes c1x{36.59%{fill:var(--c1)}36.61%,100%{fill:var(--ce)}}.c.c1x{fill:var(--c1);animation-name:c1x}@keyframes c1y{32.27%{fill:var(--c1)}32.29%,100%{fill:var(--ce)}}.c.c1y{fill:var(--c1);animation-name:c1y}@keyframes c1z{80.97%{fill:var(--c4)}80.99%,100%{fill:var(--ce)}}.c.c1z{fill:var(--c4);animation-name:c1z}@keyframes c20{34%{fill:var(--c1)}34.02%,100%{fill:var(--ce)}}.c.c20{fill:var(--c1);animation-name:c20}@keyframes c21{28.52%{fill:var(--c1)}28.54%,100%{fill:var(--ce)}}.c.c21{fill:var(--c1);animation-name:c21}@keyframes c22{80.11%{fill:var(--c3)}80.13%,100%{fill:var(--ce)}}.c.c22{fill:var(--c3);animation-name:c22}@keyframes c23{48.69%{fill:var(--c2)}48.71%,100%{fill:var(--ce)}}.c.c23{fill:var(--c2);animation-name:c23}@keyframes c24{36.3%{fill:var(--c1)}36.32%,100%{fill:var(--ce)}}.c.c24{fill:var(--c1);animation-name:c24}@keyframes c25{31.98%{fill:var(--c1)}32%,100%{fill:var(--ce)}}.c.c25{fill:var(--c1);animation-name:c25}@keyframes c26{31.69%{fill:var(--c1)}31.71%,100%{fill:var(--ce)}}.c.c26{fill:var(--c1);animation-name:c26}@keyframes c27{29.1%{fill:var(--c1)}29.12%,100%{fill:var(--ce)}}.c.c27{fill:var(--c1);animation-name:c27}@keyframes c28{28.81%{fill:var(--c1)}28.83%,100%{fill:var(--ce)}}.c.c28{fill:var(--c1);animation-name:c28}@keyframes c29{34.86%{fill:var(--c1)}34.88%,100%{fill:var(--ce)}}.c.c29{fill:var(--c1);animation-name:c29}@keyframes c2a{35.15%{fill:var(--c1)}35.17%,100%{fill:var(--ce)}}.c.c2a{fill:var(--c1);animation-name:c2a}@keyframes c2b{36.01%{fill:var(--c1)}36.03%,100%{fill:var(--ce)}}.c.c2b{fill:var(--c1);animation-name:c2b}@keyframes c2c{57.63%{fill:var(--c2)}57.65%,100%{fill:var(--ce)}}.c.c2c{fill:var(--c2);animation-name:c2c}@keyframes c2d{31.4%{fill:var(--c1)}31.42%,100%{fill:var(--ce)}}.c.c2d{fill:var(--c1);animation-name:c2d}@keyframes c2e{29.38%{fill:var(--c1)}29.4%,100%{fill:var(--ce)}}.c.c2e{fill:var(--c1);animation-name:c2e}@keyframes c2f{47.54%{fill:var(--c2)}47.56%,100%{fill:var(--ce)}}.c.c2f{fill:var(--c2);animation-name:c2f}@keyframes c2g{47.83%{fill:var(--c2)}47.85%,100%{fill:var(--ce)}}.c.c2g{fill:var(--c2);animation-name:c2g}@keyframes c2h{35.44%{fill:var(--c1)}35.46%,100%{fill:var(--ce)}}.c.c2h{fill:var(--c1);animation-name:c2h}@keyframes c2i{35.72%{fill:var(--c1)}35.74%,100%{fill:var(--ce)}}.c.c2i{fill:var(--c1);animation-name:c2i}@keyframes c2j{30.25%{fill:var(--c1)}30.27%,100%{fill:var(--ce)}}.c.c2j{fill:var(--c1);animation-name:c2j}@keyframes c2k{29.96%{fill:var(--c1)}29.98%,100%{fill:var(--ce)}}.c.c2k{fill:var(--c1);animation-name:c2k}@keyframes c2l{29.67%{fill:var(--c1)}29.69%,100%{fill:var(--ce)}}.c.c2l{fill:var(--c1);animation-name:c2l}@keyframes c2m{47.25%{fill:var(--c1)}47.27%,100%{fill:var(--ce)}}.c.c2m{fill:var(--c1);animation-name:c2m}@keyframes c2n{46.96%{fill:var(--c1)}46.98%,100%{fill:var(--ce)}}.c.c2n{fill:var(--c1);animation-name:c2n}.u{transform-origin:0 0;transform:scale(0,1);animation:none linear 34700ms infinite}@keyframes u0{5.47%{transform:scale(0.000,1)}5.49%,7.77%{transform:scale(0.014,1)}7.79%,9.5%{transform:scale(0.027,1)}9.52%,14.11%{transform:scale(0.041,1)}14.13%,14.69%{transform:scale(0.055,1)}14.71%,14.98%{transform:scale(0.068,1)}15%,15.26%{transform:scale(0.082,1)}15.28%,15.55%{transform:scale(0.096,1)}15.57%,15.84%{transform:scale(0.110,1)}15.86%,16.13%{transform:scale(0.123,1)}16.15%,16.42%{transform:scale(0.137,1)}16.44%,16.7%{transform:scale(0.151,1)}16.72%,16.99%{transform:scale(0.164,1)}17.01%,17.28%{transform:scale(0.178,1)}17.3%,17.57%{transform:scale(0.192,1)}17.59%,17.86%{transform:scale(0.205,1)}17.88%,18.15%{transform:scale(0.219,1)}18.17%,18.43%{transform:scale(0.233,1)}18.45%,18.72%{transform:scale(0.247,1)}18.74%,19.01%{transform:scale(0.260,1)}19.03%,19.59%{transform:scale(0.274,1)}19.61%,19.87%{transform:scale(0.288,1)}19.89%,20.16%{transform:scale(0.301,1)}20.18%,20.45%{transform:scale(0.315,1)}20.47%,21.6%{transform:scale(0.329,1)}21.62%,21.89%{transform:scale(0.342,1)}21.91%,22.18%{transform:scale(0.356,1)}22.2%,22.47%{transform:scale(0.370,1)}22.49%,22.76%{transform:scale(0.384,1)}22.78%,24.2%{transform:scale(0.397,1)}24.22%,25.35%{transform:scale(0.411,1)}25.37%,25.64%{transform:scale(0.425,1)}25.66%,25.93%{transform:scale(0.438,1)}25.95%,26.21%{transform:scale(0.452,1)}26.23%,26.5%{transform:scale(0.466,1)}26.52%,26.79%{transform:scale(0.479,1)}26.81%,27.08%{transform:scale(0.493,1)}27.1%,27.37%{transform:scale(0.507,1)}27.39%,27.66%{transform:scale(0.521,1)}27.68%,27.94%{transform:scale(0.534,1)}27.96%,28.23%{transform:scale(0.548,1)}28.25%,28.52%{transform:scale(0.562,1)}28.54%,28.81%{transform:scale(0.575,1)}28.83%,29.1%{transform:scale(0.589,1)}29.12%,29.38%{transform:scale(0.603,1)}29.4%,29.67%{transform:scale(0.616,1)}29.69%,29.96%{transform:scale(0.630,1)}29.98%,30.25%{transform:scale(0.644,1)}30.27%,31.4%{transform:scale(0.658,1)}31.42%,31.69%{transform:scale(0.671,1)}31.71%,31.98%{transform:scale(0.685,1)}32%,32.27%{transform:scale(0.699,1)}32.29%,34%{transform:scale(0.712,1)}34.02%,34.86%{transform:scale(0.726,1)}34.88%,35.15%{transform:scale(0.740,1)}35.17%,35.44%{transform:scale(0.753,1)}35.46%,35.72%{transform:scale(0.767,1)}35.74%,36.01%{transform:scale(0.781,1)}36.03%,36.3%{transform:scale(0.795,1)}36.32%,36.59%{transform:scale(0.808,1)}36.61%,36.88%{transform:scale(0.822,1)}36.9%,37.17%{transform:scale(0.836,1)}37.19%,37.45%{transform:scale(0.849,1)}37.47%,37.74%{transform:scale(0.863,1)}37.76%,38.03%{transform:scale(0.877,1)}38.05%,38.32%{transform:scale(0.890,1)}38.34%,39.47%{transform:scale(0.904,1)}39.49%,39.76%{transform:scale(0.918,1)}39.78%,41.78%{transform:scale(0.932,1)}41.8%,42.06%{transform:scale(0.945,1)}42.08%,42.35%{transform:scale(0.959,1)}42.37%,46.96%{transform:scale(0.973,1)}46.98%,47.25%{transform:scale(0.986,1)}47.27%,100%{transform:scale(1.000,1)}}.u.u0{fill:var(--c1);animation-name:u0;transform-origin:0.0px 0}@keyframes u1{47.54%{transform:scale(0.000,1)}47.56%,47.83%{transform:scale(0.091,1)}47.85%,48.69%{transform:scale(0.182,1)}48.71%,49.85%{transform:scale(0.273,1)}49.87%,50.13%{transform:scale(0.364,1)}50.15%,51.86%{transform:scale(0.455,1)}51.88%,53.59%{transform:scale(0.545,1)}53.61%,57.63%{transform:scale(0.636,1)}57.65%,65.98%{transform:scale(0.727,1)}66%,66.27%{transform:scale(0.818,1)}66.29%,69.73%{transform:scale(0.909,1)}69.75%,100%{transform:scale(1.000,1)}}.u.u1{fill:var(--c2);animation-name:u1;transform-origin:644.8px 0}@keyframes u2{77.22%{transform:scale(0.000,1)}77.24%,78.95%{transform:scale(0.333,1)}78.97%,80.11%{transform:scale(0.667,1)}80.13%,100%{transform:scale(1.000,1)}}.u.u2{fill:var(--c3);animation-name:u2;transform-origin:742.0px 0}@keyframes u3{80.97%{transform:scale(0.000,1)}80.99%,81.55%{transform:scale(0.111,1)}81.57%,82.7%{transform:scale(0.222,1)}82.72%,85.29%{transform:scale(0.333,1)}85.31%,85.58%{transform:scale(0.444,1)}85.6%,85.87%{transform:scale(0.556,1)}85.89%,86.16%{transform:scale(0.667,1)}86.18%,86.45%{transform:scale(0.778,1)}86.47%,94.8%{transform:scale(0.889,1)}94.82%,100%{transform:scale(1.000,1)}}.u.u3{fill:var(--c4);animation-name:u3;transform-origin:768.5px 0}.s{shape-rendering:geometricPrecision;fill:var(--cs);animation:none linear 34700ms infinite}@keyframes s0{0%,99.71%{transform:translate(0px,-16px)}0.29%{transform:translate(0px,0px)}4.61%{transform:translate(240px,0px)}4.9%{transform:translate(240px,16px)}6.34%{transform:translate(320px,16px)}7.78%{transform:translate(320px,96px)}12.97%{transform:translate(608px,96px)}13.83%{transform:translate(608px,48px)}16.14%{transform:translate(736px,48px)}16.43%,19.31%{transform:translate(736px,32px)}16.71%{transform:translate(752px,32px)}17.29%,50.72%,81.84%{transform:translate(752px,0px)}18.16%{transform:translate(704px,0px)}18.44%,20.75%{transform:translate(704px,16px)}19.02%{transform:translate(736px,16px)}20.17%,52.45%{transform:translate(688px,32px)}20.46%{transform:translate(688px,16px)}21.04%{transform:translate(704px,32px)}21.9%{transform:translate(656px,32px)}22.48%{transform:translate(656px,0px)}22.77%{transform:translate(672px,0px)}23.05%{transform:translate(672px,-16px)}23.63%{transform:translate(640px,-16px)}24.21%{transform:translate(640px,16px)}24.5%{transform:translate(656px,16px)}25.36%,42.65%{transform:translate(656px,64px)}26.22%,43.52%{transform:translate(704px,64px)}26.51%,43.8%{transform:translate(704px,80px)}27.67%,44.96%,48.99%{transform:translate(768px,80px)}28.24%{transform:translate(768px,48px)}28.82%,34.58%{transform:translate(800px,48px)}29.11%,33.72%,58.5%{transform:translate(800px,32px)}29.68%{transform:translate(832px,32px)}30.26%{transform:translate(832px,0px)}30.55%{transform:translate(848px,0px)}30.84%{transform:translate(848px,16px)}31.7%{transform:translate(800px,16px)}31.99%,57.93%{transform:translate(800px,0px)}32.28%,81.27%{transform:translate(784px,0px)}32.56%{transform:translate(784px,-16px)}32.85%{transform:translate(800px,-16px)}34.01%{transform:translate(784px,32px)}34.29%{transform:translate(784px,48px)}35.16%,48.41%{transform:translate(800px,80px)}35.45%,56.2%{transform:translate(816px,80px)}35.73%{transform:translate(816px,96px)}38.04%,41.5%{transform:translate(688px,96px)}38.33%,41.21%{transform:translate(688px,80px)}39.19%{transform:translate(736px,80px)}39.48%{transform:translate(736px,64px)}39.77%{transform:translate(752px,64px)}40.06%{transform:translate(752px,80px)}42.07%{transform:translate(656px,96px)}45.24%{transform:translate(768px,96px)}46.4%{transform:translate(832px,96px)}47.26%{transform:translate(832px,48px)}47.55%{transform:translate(816px,48px)}47.84%{transform:translate(816px,64px)}48.13%{transform:translate(800px,64px)}50.14%{transform:translate(768px,16px)}50.43%{transform:translate(752px,16px)}51.87%{transform:translate(688px,0px)}52.74%{transform:translate(672px,32px)}53.6%{transform:translate(672px,80px)}57.64%{transform:translate(816px,0px)}65.42%{transform:translate(416px,32px)}66.28%{transform:translate(416px,80px)}66.57%{transform:translate(400px,80px)}67.44%{transform:translate(400px,32px)}69.74%{transform:translate(272px,32px)}70.03%{transform:translate(272px,16px)}78.1%{transform:translate(720px,16px)}78.96%{transform:translate(720px,64px)}80.12%{transform:translate(784px,64px)}82.71%{transform:translate(752px,48px)}85.01%{transform:translate(624px,48px)}85.59%{transform:translate(624px,80px)}85.88%{transform:translate(640px,80px)}86.17%{transform:translate(640px,96px)}86.46%{transform:translate(624px,96px)}88.18%{transform:translate(624px,0px)}97.41%{transform:translate(112px,0px)}97.69%{transform:translate(112px,-16px)}}.s.s0{transform:translate(0px,-16px);animation-name:s0}@keyframes s1{0%,99.71%{transform:translate(16px,-16px)}0.29%{transform:translate(0px,-16px)}0.58%{transform:translate(0px,0px)}4.9%{transform:translate(240px,0px)}5.19%{transform:translate(240px,16px)}6.63%{transform:translate(320px,16px)}8.07%{transform:translate(320px,96px)}13.26%{transform:translate(608px,96px)}14.12%{transform:translate(608px,48px)}16.43%{transform:translate(736px,48px)}16.71%,19.6%{transform:translate(736px,32px)}17%{transform:translate(752px,32px)}17.58%,51.01%,82.13%{transform:translate(752px,0px)}18.44%{transform:translate(704px,0px)}18.73%,21.04%{transform:translate(704px,16px)}19.31%{transform:translate(736px,16px)}20.46%,52.74%{transform:translate(688px,32px)}20.75%{transform:translate(688px,16px)}21.33%{transform:translate(704px,32px)}22.19%{transform:translate(656px,32px)}22.77%{transform:translate(656px,0px)}23.05%{transform:translate(672px,0px)}23.34%{transform:translate(672px,-16px)}23.92%{transform:translate(640px,-16px)}24.5%{transform:translate(640px,16px)}24.78%{transform:translate(656px,16px)}25.65%,42.94%{transform:translate(656px,64px)}26.51%,43.8%{transform:translate(704px,64px)}26.8%,44.09%{transform:translate(704px,80px)}27.95%,45.24%,49.28%{transform:translate(768px,80px)}28.53%{transform:translate(768px,48px)}29.11%,34.87%{transform:translate(800px,48px)}29.39%,34.01%,58.79%{transform:translate(800px,32px)}29.97%{transform:translate(832px,32px)}30.55%{transform:translate(832px,0px)}30.84%{transform:translate(848px,0px)}31.12%{transform:translate(848px,16px)}31.99%{transform:translate(800px,16px)}32.28%,58.21%{transform:translate(800px,0px)}32.56%,81.56%{transform:translate(784px,0px)}32.85%{transform:translate(784px,-16px)}33.14%{transform:translate(800px,-16px)}34.29%{transform:translate(784px,32px)}34.58%{transform:translate(784px,48px)}35.45%,48.7%{transform:translate(800px,80px)}35.73%,56.48%{transform:translate(816px,80px)}36.02%{transform:translate(816px,96px)}38.33%,41.79%{transform:translate(688px,96px)}38.62%,41.5%{transform:translate(688px,80px)}39.48%{transform:translate(736px,80px)}39.77%{transform:translate(736px,64px)}40.06%{transform:translate(752px,64px)}40.35%{transform:translate(752px,80px)}42.36%{transform:translate(656px,96px)}45.53%{transform:translate(768px,96px)}46.69%{transform:translate(832px,96px)}47.55%{transform:translate(832px,48px)}47.84%{transform:translate(816px,48px)}48.13%{transform:translate(816px,64px)}48.41%{transform:translate(800px,64px)}50.43%{transform:translate(768px,16px)}50.72%{transform:translate(752px,16px)}52.16%{transform:translate(688px,0px)}53.03%{transform:translate(672px,32px)}53.89%{transform:translate(672px,80px)}57.93%{transform:translate(816px,0px)}65.71%{transform:translate(416px,32px)}66.57%{transform:translate(416px,80px)}66.86%{transform:translate(400px,80px)}67.72%{transform:translate(400px,32px)}70.03%{transform:translate(272px,32px)}70.32%{transform:translate(272px,16px)}78.39%{transform:translate(720px,16px)}79.25%{transform:translate(720px,64px)}80.4%{transform:translate(784px,64px)}83%{transform:translate(752px,48px)}85.3%{transform:translate(624px,48px)}85.88%{transform:translate(624px,80px)}86.17%{transform:translate(640px,80px)}86.46%{transform:translate(640px,96px)}86.74%{transform:translate(624px,96px)}88.47%{transform:translate(624px,0px)}97.69%{transform:translate(112px,0px)}97.98%{transform:translate(112px,-16px)}}.s.s1{transform:translate(16px,-16px);animation-name:s1}@keyframes s2{0%,99.71%{transform:translate(32px,-16px)}0.58%{transform:translate(0px,-16px)}0.86%{transform:translate(0px,0px)}5.19%{transform:translate(240px,0px)}5.48%{transform:translate(240px,16px)}6.92%{transform:translate(320px,16px)}8.36%{transform:translate(320px,96px)}13.54%{transform:translate(608px,96px)}14.41%{transform:translate(608px,48px)}16.71%{transform:translate(736px,48px)}17%,19.88%{transform:translate(736px,32px)}17.29%{transform:translate(752px,32px)}17.87%,51.3%,82.42%{transform:translate(752px,0px)}18.73%{transform:translate(704px,0px)}19.02%,21.33%{transform:translate(704px,16px)}19.6%{transform:translate(736px,16px)}20.75%,53.03%{transform:translate(688px,32px)}21.04%{transform:translate(688px,16px)}21.61%{transform:translate(704px,32px)}22.48%{transform:translate(656px,32px)}23.05%{transform:translate(656px,0px)}23.34%{transform:translate(672px,0px)}23.63%{transform:translate(672px,-16px)}24.21%{transform:translate(640px,-16px)}24.78%{transform:translate(640px,16px)}25.07%{transform:translate(656px,16px)}25.94%,43.23%{transform:translate(656px,64px)}26.8%,44.09%{transform:translate(704px,64px)}27.09%,44.38%{transform:translate(704px,80px)}28.24%,45.53%,49.57%{transform:translate(768px,80px)}28.82%{transform:translate(768px,48px)}29.39%,35.16%{transform:translate(800px,48px)}29.68%,34.29%,59.08%{transform:translate(800px,32px)}30.26%{transform:translate(832px,32px)}30.84%{transform:translate(832px,0px)}31.12%{transform:translate(848px,0px)}31.41%{transform:translate(848px,16px)}32.28%{transform:translate(800px,16px)}32.56%,58.5%{transform:translate(800px,0px)}32.85%,81.84%{transform:translate(784px,0px)}33.14%{transform:translate(784px,-16px)}33.43%{transform:translate(800px,-16px)}34.58%{transform:translate(784px,32px)}34.87%{transform:translate(784px,48px)}35.73%,48.99%{transform:translate(800px,80px)}36.02%,56.77%{transform:translate(816px,80px)}36.31%{transform:translate(816px,96px)}38.62%,42.07%{transform:translate(688px,96px)}38.9%,41.79%{transform:translate(688px,80px)}39.77%{transform:translate(736px,80px)}40.06%{transform:translate(736px,64px)}40.35%{transform:translate(752px,64px)}40.63%{transform:translate(752px,80px)}42.65%{transform:translate(656px,96px)}45.82%{transform:translate(768px,96px)}46.97%{transform:translate(832px,96px)}47.84%{transform:translate(832px,48px)}48.13%{transform:translate(816px,48px)}48.41%{transform:translate(816px,64px)}48.7%{transform:translate(800px,64px)}50.72%{transform:translate(768px,16px)}51.01%{transform:translate(752px,16px)}52.45%{transform:translate(688px,0px)}53.31%{transform:translate(672px,32px)}54.18%{transform:translate(672px,80px)}58.21%{transform:translate(816px,0px)}65.99%{transform:translate(416px,32px)}66.86%{transform:translate(416px,80px)}67.15%{transform:translate(400px,80px)}68.01%{transform:translate(400px,32px)}70.32%{transform:translate(272px,32px)}70.61%{transform:translate(272px,16px)}78.67%{transform:translate(720px,16px)}79.54%{transform:translate(720px,64px)}80.69%{transform:translate(784px,64px)}83.29%{transform:translate(752px,48px)}85.59%{transform:translate(624px,48px)}86.17%{transform:translate(624px,80px)}86.46%{transform:translate(640px,80px)}86.74%{transform:translate(640px,96px)}87.03%{transform:translate(624px,96px)}88.76%{transform:translate(624px,0px)}97.98%{transform:translate(112px,0px)}98.27%{transform:translate(112px,-16px)}}.s.s2{transform:translate(32px,-16px);animation-name:s2}@keyframes s3{0%,99.71%{transform:translate(48px,-16px)}0.86%{transform:translate(0px,-16px)}1.15%{transform:translate(0px,0px)}5.48%{transform:translate(240px,0px)}5.76%{transform:translate(240px,16px)}7.2%{transform:translate(320px,16px)}8.65%{transform:translate(320px,96px)}13.83%{transform:translate(608px,96px)}14.7%{transform:translate(608px,48px)}17%{transform:translate(736px,48px)}17.29%,20.17%{transform:translate(736px,32px)}17.58%{transform:translate(752px,32px)}18.16%,51.59%,82.71%{transform:translate(752px,0px)}19.02%{transform:translate(704px,0px)}19.31%,21.61%{transform:translate(704px,16px)}19.88%{transform:translate(736px,16px)}21.04%,53.31%{transform:translate(688px,32px)}21.33%{transform:translate(688px,16px)}21.9%{transform:translate(704px,32px)}22.77%{transform:translate(656px,32px)}23.34%{transform:translate(656px,0px)}23.63%{transform:translate(672px,0px)}23.92%{transform:translate(672px,-16px)}24.5%{transform:translate(640px,-16px)}25.07%{transform:translate(640px,16px)}25.36%{transform:translate(656px,16px)}26.22%,43.52%{transform:translate(656px,64px)}27.09%,44.38%{transform:translate(704px,64px)}27.38%,44.67%{transform:translate(704px,80px)}28.53%,45.82%,49.86%{transform:translate(768px,80px)}29.11%{transform:translate(768px,48px)}29.68%,35.45%{transform:translate(800px,48px)}29.97%,34.58%,59.37%{transform:translate(800px,32px)}30.55%{transform:translate(832px,32px)}31.12%{transform:translate(832px,0px)}31.41%{transform:translate(848px,0px)}31.7%{transform:translate(848px,16px)}32.56%{transform:translate(800px,16px)}32.85%,58.79%{transform:translate(800px,0px)}33.14%,82.13%{transform:translate(784px,0px)}33.43%{transform:translate(784px,-16px)}33.72%{transform:translate(800px,-16px)}34.87%{transform:translate(784px,32px)}35.16%{transform:translate(784px,48px)}36.02%,49.28%{transform:translate(800px,80px)}36.31%,57.06%{transform:translate(816px,80px)}36.6%{transform:translate(816px,96px)}38.9%,42.36%{transform:translate(688px,96px)}39.19%,42.07%{transform:translate(688px,80px)}40.06%{transform:translate(736px,80px)}40.35%{transform:translate(736px,64px)}40.63%{transform:translate(752px,64px)}40.92%{transform:translate(752px,80px)}42.94%{transform:translate(656px,96px)}46.11%{transform:translate(768px,96px)}47.26%{transform:translate(832px,96px)}48.13%{transform:translate(832px,48px)}48.41%{transform:translate(816px,48px)}48.7%{transform:translate(816px,64px)}48.99%{transform:translate(800px,64px)}51.01%{transform:translate(768px,16px)}51.3%{transform:translate(752px,16px)}52.74%{transform:translate(688px,0px)}53.6%{transform:translate(672px,32px)}54.47%{transform:translate(672px,80px)}58.5%{transform:translate(816px,0px)}66.28%{transform:translate(416px,32px)}67.15%{transform:translate(416px,80px)}67.44%{transform:translate(400px,80px)}68.3%{transform:translate(400px,32px)}70.61%{transform:translate(272px,32px)}70.89%{transform:translate(272px,16px)}78.96%{transform:translate(720px,16px)}79.83%{transform:translate(720px,64px)}80.98%{transform:translate(784px,64px)}83.57%{transform:translate(752px,48px)}85.88%{transform:translate(624px,48px)}86.46%{transform:translate(624px,80px)}86.74%{transform:translate(640px,80px)}87.03%{transform:translate(640px,96px)}87.32%{transform:translate(624px,96px)}89.05%{transform:translate(624px,0px)}98.27%{transform:translate(112px,0px)}98.56%{transform:translate(112px,-16px)}}.s.s3{transform:translate(48px,-16px);animation-name:s3}</style><rect class="c" x="2" y="2" rx="2" ry="2"/><rect class="c" x="2" y="18" rx="2" ry="2"/><rect class="c" x="2" y="34" rx="2" ry="2"/><rect class="c" x="2" y="50" rx="2" ry="2"/><rect class="c" x="2" y="66" rx="2" ry="2"/><rect class="c" x="2" y="82" rx="2" ry="2"/><rect class="c" x="2" y="98" rx="2" ry="2"/><rect class="c" x="18" y="2" rx="2" ry="2"/><rect class="c" x="18" y="18" rx="2" ry="2"/><rect class="c" x="18" y="34" rx="2" ry="2"/><rect class="c" x="18" y="50" rx="2" ry="2"/><rect class="c" x="18" y="66" rx="2" ry="2"/><rect class="c" x="18" y="82" rx="2" ry="2"/><rect class="c" x="18" y="98" rx="2" ry="2"/><rect class="c" x="34" y="2" rx="2" ry="2"/><rect class="c" x="34" y="18" rx="2" ry="2"/><rect class="c" x="34" y="34" rx="2" ry="2"/><rect class="c" x="34" y="50" rx="2" ry="2"/><rect class="c" x="34" y="66" rx="2" ry="2"/><rect class="c" x="34" y="82" rx="2" ry="2"/><rect class="c" x="34" y="98" rx="2" ry="2"/><rect class="c" x="50" y="2" rx="2" ry="2"/><rect class="c" x="50" y="18" rx="2" ry="2"/><rect class="c" x="50" y="34" rx="2" ry="2"/><rect class="c" x="50" y="50" rx="2" ry="2"/><rect class="c" x="50" y="66" rx="2" ry="2"/><rect class="c" x="50" y="82" rx="2" ry="2"/><rect class="c" x="50" y="98" rx="2" ry="2"/><rect class="c" x="66" y="2" rx="2" ry="2"/><rect class="c" x="66" y="18" rx="2" ry="2"/><rect class="c" x="66" y="34" rx="2" ry="2"/><rect class="c" x="66" y="50" rx="2" ry="2"/><rect class="c" x="66" y="66" rx="2" ry="2"/><rect class="c" x="66" y="82" rx="2" ry="2"/><rect class="c" x="66" y="98" rx="2" ry="2"/><rect class="c" x="82" y="2" rx="2" ry="2"/><rect class="c" x="82" y="18" rx="2" ry="2"/><rect class="c" x="82" y="34" rx="2" ry="2"/><rect class="c" x="82" y="50" rx="2" ry="2"/><rect class="c" x="82" y="66" rx="2" ry="2"/><rect class="c" x="82" y="82" rx="2" ry="2"/><rect class="c" x="82" y="98" rx="2" ry="2"/><rect class="c" x="98" y="2" rx="2" ry="2"/><rect class="c" x="98" y="18" rx="2" ry="2"/><rect class="c" x="98" y="34" rx="2" ry="2"/><rect class="c" x="98" y="50" rx="2" ry="2"/><rect class="c" x="98" y="66" rx="2" ry="2"/><rect class="c" x="98" y="82" rx="2" ry="2"/><rect class="c" x="98" y="98" rx="2" ry="2"/><rect class="c" x="114" y="2" rx="2" ry="2"/><rect class="c" x="114" y="18" rx="2" ry="2"/><rect class="c" x="114" y="34" rx="2" ry="2"/><rect class="c" x="114" y="50" rx="2" ry="2"/><rect class="c" x="114" y="66" rx="2" ry="2"/><rect class="c" x="114" y="82" rx="2" ry="2"/><rect class="c" x="114" y="98" rx="2" ry="2"/><rect class="c" x="130" y="2" rx="2" ry="2"/><rect class="c" x="130" y="18" rx="2" ry="2"/><rect class="c" x="130" y="34" rx="2" ry="2"/><rect class="c" x="130" y="50" rx="2" ry="2"/><rect class="c" x="130" y="66" rx="2" ry="2"/><rect class="c" x="130" y="82" rx="2" ry="2"/><rect class="c" x="130" y="98" rx="2" ry="2"/><rect class="c" x="146" y="2" rx="2" ry="2"/><rect class="c" x="146" y="18" rx="2" ry="2"/><rect class="c" x="146" y="34" rx="2" ry="2"/><rect class="c" x="146" y="50" rx="2" ry="2"/><rect class="c" x="146" y="66" rx="2" ry="2"/><rect class="c" x="146" y="82" rx="2" ry="2"/><rect class="c" x="146" y="98" rx="2" ry="2"/><rect class="c" x="162" y="2" rx="2" ry="2"/><rect class="c" x="162" y="18" rx="2" ry="2"/><rect class="c" x="162" y="34" rx="2" ry="2"/><rect class="c" x="162" y="50" rx="2" ry="2"/><rect class="c" x="162" y="66" rx="2" ry="2"/><rect class="c" x="162" y="82" rx="2" ry="2"/><rect class="c" x="162" y="98" rx="2" ry="2"/><rect class="c" x="178" y="2" rx="2" ry="2"/><rect class="c" x="178" y="18" rx="2" ry="2"/><rect class="c" x="178" y="34" rx="2" ry="2"/><rect class="c" x="178" y="50" rx="2" ry="2"/><rect class="c" x="178" y="66" rx="2" ry="2"/><rect class="c" x="178" y="82" rx="2" ry="2"/><rect class="c" x="178" y="98" rx="2" ry="2"/><rect class="c" x="194" y="2" rx="2" ry="2"/><rect class="c" x="194" y="18" rx="2" ry="2"/><rect class="c" x="194" y="34" rx="2" ry="2"/><rect class="c" x="194" y="50" rx="2" ry="2"/><rect class="c" x="194" y="66" rx="2" ry="2"/><rect class="c" x="194" y="82" rx="2" ry="2"/><rect class="c" x="194" y="98" rx="2" ry="2"/><rect class="c" x="210" y="2" rx="2" ry="2"/><rect class="c" x="210" y="18" rx="2" ry="2"/><rect class="c" x="210" y="34" rx="2" ry="2"/><rect class="c" x="210" y="50" rx="2" ry="2"/><rect class="c" x="210" y="66" rx="2" ry="2"/><rect class="c" x="210" y="82" rx="2" ry="2"/><rect class="c" x="210" y="98" rx="2" ry="2"/><rect class="c" x="226" y="2" rx="2" ry="2"/><rect class="c" x="226" y="18" rx="2" ry="2"/><rect class="c" x="226" y="34" rx="2" ry="2"/><rect class="c" x="226" y="50" rx="2" ry="2"/><rect class="c" x="226" y="66" rx="2" ry="2"/><rect class="c" x="226" y="82" rx="2" ry="2"/><rect class="c" x="226" y="98" rx="2" ry="2"/><rect class="c" x="242" y="2" rx="2" ry="2"/><rect class="c" x="242" y="18" rx="2" ry="2"/><rect class="c" x="242" y="34" rx="2" ry="2"/><rect class="c" x="242" y="50" rx="2" ry="2"/><rect class="c" x="242" y="66" rx="2" ry="2"/><rect class="c" x="242" y="82" rx="2" ry="2"/><rect class="c" x="242" y="98" rx="2" ry="2"/><rect class="c c0" x="258" y="2" rx="2" ry="2"/><rect class="c" x="258" y="18" rx="2" ry="2"/><rect class="c" x="258" y="34" rx="2" ry="2"/><rect class="c" x="258" y="50" rx="2" ry="2"/><rect class="c" x="258" y="66" rx="2" ry="2"/><rect class="c" x="258" y="82" rx="2" ry="2"/><rect class="c" x="258" y="98" rx="2" ry="2"/><rect class="c" x="274" y="2" rx="2" ry="2"/><rect class="c c1" x="274" y="18" rx="2" ry="2"/><rect class="c c2" x="274" y="34" rx="2" ry="2"/><rect class="c" x="274" y="50" rx="2" ry="2"/><rect class="c" x="274" y="66" rx="2" ry="2"/><rect class="c" x="274" y="82" rx="2" ry="2"/><rect class="c" x="274" y="98" rx="2" ry="2"/><rect class="c" x="290" y="2" rx="2" ry="2"/><rect class="c" x="290" y="18" rx="2" ry="2"/><rect class="c" x="290" y="34" rx="2" ry="2"/><rect class="c" x="290" y="50" rx="2" ry="2"/><rect class="c" x="290" y="66" rx="2" ry="2"/><rect class="c" x="290" y="82" rx="2" ry="2"/><rect class="c" x="290" y="98" rx="2" ry="2"/><rect class="c" x="306" y="2" rx="2" ry="2"/><rect class="c" x="306" y="18" rx="2" ry="2"/><rect class="c" x="306" y="34" rx="2" ry="2"/><rect class="c" x="306" y="50" rx="2" ry="2"/><rect class="c" x="306" y="66" rx="2" ry="2"/><rect class="c" x="306" y="82" rx="2" ry="2"/><rect class="c" x="306" y="98" rx="2" ry="2"/><rect class="c" x="322" y="2" rx="2" ry="2"/><rect class="c" x="322" y="18" rx="2" ry="2"/><rect class="c" x="322" y="34" rx="2" ry="2"/><rect class="c" x="322" y="50" rx="2" ry="2"/><rect class="c" x="322" y="66" rx="2" ry="2"/><rect class="c" x="322" y="82" rx="2" ry="2"/><rect class="c c3" x="322" y="98" rx="2" ry="2"/><rect class="c" x="338" y="2" rx="2" ry="2"/><rect class="c" x="338" y="18" rx="2" ry="2"/><rect class="c" x="338" y="34" rx="2" ry="2"/><rect class="c" x="338" y="50" rx="2" ry="2"/><rect class="c" x="338" y="66" rx="2" ry="2"/><rect class="c" x="338" y="82" rx="2" ry="2"/><rect class="c" x="338" y="98" rx="2" ry="2"/><rect class="c" x="354" y="2" rx="2" ry="2"/><rect class="c" x="354" y="18" rx="2" ry="2"/><rect class="c" x="354" y="34" rx="2" ry="2"/><rect class="c" x="354" y="50" rx="2" ry="2"/><rect class="c" x="354" y="66" rx="2" ry="2"/><rect class="c" x="354" y="82" rx="2" ry="2"/><rect class="c" x="354" y="98" rx="2" ry="2"/><rect class="c" x="370" y="2" rx="2" ry="2"/><rect class="c" x="370" y="18" rx="2" ry="2"/><rect class="c" x="370" y="34" rx="2" ry="2"/><rect class="c" x="370" y="50" rx="2" ry="2"/><rect class="c" x="370" y="66" rx="2" ry="2"/><rect class="c" x="370" y="82" rx="2" ry="2"/><rect class="c" x="370" y="98" rx="2" ry="2"/><rect class="c" x="386" y="2" rx="2" ry="2"/><rect class="c" x="386" y="18" rx="2" ry="2"/><rect class="c" x="386" y="34" rx="2" ry="2"/><rect class="c" x="386" y="50" rx="2" ry="2"/><rect class="c" x="386" y="66" rx="2" ry="2"/><rect class="c" x="386" y="82" rx="2" ry="2"/><rect class="c" x="386" y="98" rx="2" ry="2"/><rect class="c" x="402" y="2" rx="2" ry="2"/><rect class="c" x="402" y="18" rx="2" ry="2"/><rect class="c" x="402" y="34" rx="2" ry="2"/><rect class="c" x="402" y="50" rx="2" ry="2"/><rect class="c" x="402" y="66" rx="2" ry="2"/><rect class="c" x="402" y="82" rx="2" ry="2"/><rect class="c" x="402" y="98" rx="2" ry="2"/><rect class="c" x="418" y="2" rx="2" ry="2"/><rect class="c" x="418" y="18" rx="2" ry="2"/><rect class="c" x="418" y="34" rx="2" ry="2"/><rect class="c" x="418" y="50" rx="2" ry="2"/><rect class="c c4" x="418" y="66" rx="2" ry="2"/><rect class="c c5" x="418" y="82" rx="2" ry="2"/><rect class="c c6" x="418" y="98" rx="2" ry="2"/><rect class="c" x="434" y="2" rx="2" ry="2"/><rect class="c" x="434" y="18" rx="2" ry="2"/><rect class="c" x="434" y="34" rx="2" ry="2"/><rect class="c" x="434" y="50" rx="2" ry="2"/><rect class="c" x="434" y="66" rx="2" ry="2"/><rect class="c" x="434" y="82" rx="2" ry="2"/><rect class="c" x="434" y="98" rx="2" ry="2"/><rect class="c" x="450" y="2" rx="2" ry="2"/><rect class="c" x="450" y="18" rx="2" ry="2"/><rect class="c" x="450" y="34" rx="2" ry="2"/><rect class="c" x="450" y="50" rx="2" ry="2"/><rect class="c" x="450" y="66" rx="2" ry="2"/><rect class="c" x="450" y="82" rx="2" ry="2"/><rect class="c" x="450" y="98" rx="2" ry="2"/><rect class="c" x="466" y="2" rx="2" ry="2"/><rect class="c" x="466" y="18" rx="2" ry="2"/><rect class="c" x="466" y="34" rx="2" ry="2"/><rect class="c" x="466" y="50" rx="2" ry="2"/><rect class="c" x="466" y="66" rx="2" ry="2"/><rect class="c" x="466" y="82" rx="2" ry="2"/><rect class="c" x="466" y="98" rx="2" ry="2"/><rect class="c" x="482" y="2" rx="2" ry="2"/><rect class="c" x="482" y="18" rx="2" ry="2"/><rect class="c" x="482" y="34" rx="2" ry="2"/><rect class="c" x="482" y="50" rx="2" ry="2"/><rect class="c" x="482" y="66" rx="2" ry="2"/><rect class="c" x="482" y="82" rx="2" ry="2"/><rect class="c" x="482" y="98" rx="2" ry="2"/><rect class="c" x="498" y="2" rx="2" ry="2"/><rect class="c" x="498" y="18" rx="2" ry="2"/><rect class="c" x="498" y="34" rx="2" ry="2"/><rect class="c" x="498" y="50" rx="2" ry="2"/><rect class="c" x="498" y="66" rx="2" ry="2"/><rect class="c" x="498" y="82" rx="2" ry="2"/><rect class="c" x="498" y="98" rx="2" ry="2"/><rect class="c" x="514" y="2" rx="2" ry="2"/><rect class="c" x="514" y="18" rx="2" ry="2"/><rect class="c" x="514" y="34" rx="2" ry="2"/><rect class="c" x="514" y="50" rx="2" ry="2"/><rect class="c" x="514" y="66" rx="2" ry="2"/><rect class="c" x="514" y="82" rx="2" ry="2"/><rect class="c" x="514" y="98" rx="2" ry="2"/><rect class="c" x="530" y="2" rx="2" ry="2"/><rect class="c" x="530" y="18" rx="2" ry="2"/><rect class="c" x="530" y="34" rx="2" ry="2"/><rect class="c" x="530" y="50" rx="2" ry="2"/><rect class="c" x="530" y="66" rx="2" ry="2"/><rect class="c" x="530" y="82" rx="2" ry="2"/><rect class="c" x="530" y="98" rx="2" ry="2"/><rect class="c" x="546" y="2" rx="2" ry="2"/><rect class="c" x="546" y="18" rx="2" ry="2"/><rect class="c" x="546" y="34" rx="2" ry="2"/><rect class="c" x="546" y="50" rx="2" ry="2"/><rect class="c" x="546" y="66" rx="2" ry="2"/><rect class="c" x="546" y="82" rx="2" ry="2"/><rect class="c" x="546" y="98" rx="2" ry="2"/><rect class="c" x="562" y="2" rx="2" ry="2"/><rect class="c" x="562" y="18" rx="2" ry="2"/><rect class="c" x="562" y="34" rx="2" ry="2"/><rect class="c" x="562" y="50" rx="2" ry="2"/><rect class="c" x="562" y="66" rx="2" ry="2"/><rect class="c" x="562" y="82" rx="2" ry="2"/><rect class="c" x="562" y="98" rx="2" ry="2"/><rect class="c" x="578" y="2" rx="2" ry="2"/><rect class="c" x="578" y="18" rx="2" ry="2"/><rect class="c" x="578" y="34" rx="2" ry="2"/><rect class="c" x="578" y="50" rx="2" ry="2"/><rect class="c" x="578" y="66" rx="2" ry="2"/><rect class="c" x="578" y="82" rx="2" ry="2"/><rect class="c" x="578" y="98" rx="2" ry="2"/><rect class="c" x="594" y="2" rx="2" ry="2"/><rect class="c" x="594" y="18" rx="2" ry="2"/><rect class="c" x="594" y="34" rx="2" ry="2"/><rect class="c" x="594" y="50" rx="2" ry="2"/><rect class="c" x="594" y="66" rx="2" ry="2"/><rect class="c" x="594" y="82" rx="2" ry="2"/><rect class="c" x="594" y="98" rx="2" ry="2"/><rect class="c" x="610" y="2" rx="2" ry="2"/><rect class="c" x="610" y="18" rx="2" ry="2"/><rect class="c" x="610" y="34" rx="2" ry="2"/><rect class="c" x="610" y="50" rx="2" ry="2"/><rect class="c" x="610" y="66" rx="2" ry="2"/><rect class="c" x="610" y="82" rx="2" ry="2"/><rect class="c" x="610" y="98" rx="2" ry="2"/><rect class="c" x="626" y="2" rx="2" ry="2"/><rect class="c" x="626" y="18" rx="2" ry="2"/><rect class="c" x="626" y="34" rx="2" ry="2"/><rect class="c c7" x="626" y="50" rx="2" ry="2"/><rect class="c c8" x="626" y="66" rx="2" ry="2"/><rect class="c c9" x="626" y="82" rx="2" ry="2"/><rect class="c ca" x="626" y="98" rx="2" ry="2"/><rect class="c" x="642" y="2" rx="2" ry="2"/><rect class="c cb" x="642" y="18" rx="2" ry="2"/><rect class="c" x="642" y="34" rx="2" ry="2"/><rect class="c" x="642" y="50" rx="2" ry="2"/><rect class="c" x="642" y="66" rx="2" ry="2"/><rect class="c cc" x="642" y="82" rx="2" ry="2"/><rect class="c cd" x="642" y="98" rx="2" ry="2"/><rect class="c ce" x="658" y="2" rx="2" ry="2"/><rect class="c cf" x="658" y="18" rx="2" ry="2"/><rect class="c cg" x="658" y="34" rx="2" ry="2"/><rect class="c ch" x="658" y="50" rx="2" ry="2"/><rect class="c ci" x="658" y="66" rx="2" ry="2"/><rect class="c cj" x="658" y="82" rx="2" ry="2"/><rect class="c ck" x="658" y="98" rx="2" ry="2"/><rect class="c cl" x="674" y="2" rx="2" ry="2"/><rect class="c cm" x="674" y="18" rx="2" ry="2"/><rect class="c cn" x="674" y="34" rx="2" ry="2"/><rect class="c co" x="674" y="50" rx="2" ry="2"/><rect class="c cp" x="674" y="66" rx="2" ry="2"/><rect class="c cq" x="674" y="82" rx="2" ry="2"/><rect class="c cr" x="674" y="98" rx="2" ry="2"/><rect class="c cs" x="690" y="2" rx="2" ry="2"/><rect class="c ct" x="690" y="18" rx="2" ry="2"/><rect class="c cu" x="690" y="34" rx="2" ry="2"/><rect class="c cv" x="690" y="50" rx="2" ry="2"/><rect class="c cw" x="690" y="66" rx="2" ry="2"/><rect class="c cx" x="690" y="82" rx="2" ry="2"/><rect class="c cy" x="690" y="98" rx="2" ry="2"/><rect class="c cz" x="706" y="2" rx="2" ry="2"/><rect class="c c10" x="706" y="18" rx="2" ry="2"/><rect class="c c11" x="706" y="34" rx="2" ry="2"/><rect class="c c12" x="706" y="50" rx="2" ry="2"/><rect class="c c13" x="706" y="66" rx="2" ry="2"/><rect class="c c14" x="706" y="82" rx="2" ry="2"/><rect class="c c15" x="706" y="98" rx="2" ry="2"/><rect class="c c16" x="722" y="2" rx="2" ry="2"/><rect class="c c17" x="722" y="18" rx="2" ry="2"/><rect class="c c18" x="722" y="34" rx="2" ry="2"/><rect class="c c19" x="722" y="50" rx="2" ry="2"/><rect class="c c1a" x="722" y="66" rx="2" ry="2"/><rect class="c c1b" x="722" y="82" rx="2" ry="2"/><rect class="c c1c" x="722" y="98" rx="2" ry="2"/><rect class="c c1d" x="738" y="2" rx="2" ry="2"/><rect class="c c1e" x="738" y="18" rx="2" ry="2"/><rect class="c c1f" x="738" y="34" rx="2" ry="2"/><rect class="c c1g" x="738" y="50" rx="2" ry="2"/><rect class="c c1h" x="738" y="66" rx="2" ry="2"/><rect class="c c1i" x="738" y="82" rx="2" ry="2"/><rect class="c c1j" x="738" y="98" rx="2" ry="2"/><rect class="c c1k" x="754" y="2" rx="2" ry="2"/><rect class="c c1l" x="754" y="18" rx="2" ry="2"/><rect class="c c1m" x="754" y="34" rx="2" ry="2"/><rect class="c c1n" x="754" y="50" rx="2" ry="2"/><rect class="c c1o" x="754" y="66" rx="2" ry="2"/><rect class="c c1p" x="754" y="82" rx="2" ry="2"/><rect class="c c1q" x="754" y="98" rx="2" ry="2"/><rect class="c c1r" x="770" y="2" rx="2" ry="2"/><rect class="c c1s" x="770" y="18" rx="2" ry="2"/><rect class="c c1t" x="770" y="34" rx="2" ry="2"/><rect class="c c1u" x="770" y="50" rx="2" ry="2"/><rect class="c c1v" x="770" y="66" rx="2" ry="2"/><rect class="c c1w" x="770" y="82" rx="2" ry="2"/><rect class="c c1x" x="770" y="98" rx="2" ry="2"/><rect class="c c1y" x="786" y="2" rx="2" ry="2"/><rect class="c c1z" x="786" y="18" rx="2" ry="2"/><rect class="c c20" x="786" y="34" rx="2" ry="2"/><rect class="c c21" x="786" y="50" rx="2" ry="2"/><rect class="c c22" x="786" y="66" rx="2" ry="2"/><rect class="c c23" x="786" y="82" rx="2" ry="2"/><rect class="c c24" x="786" y="98" rx="2" ry="2"/><rect class="c c25" x="802" y="2" rx="2" ry="2"/><rect class="c c26" x="802" y="18" rx="2" ry="2"/><rect class="c c27" x="802" y="34" rx="2" ry="2"/><rect class="c c28" x="802" y="50" rx="2" ry="2"/><rect class="c c29" x="802" y="66" rx="2" ry="2"/><rect class="c c2a" x="802" y="82" rx="2" ry="2"/><rect class="c c2b" x="802" y="98" rx="2" ry="2"/><rect class="c c2c" x="818" y="2" rx="2" ry="2"/><rect class="c c2d" x="818" y="18" rx="2" ry="2"/><rect class="c c2e" x="818" y="34" rx="2" ry="2"/><rect class="c c2f" x="818" y="50" rx="2" ry="2"/><rect class="c c2g" x="818" y="66" rx="2" ry="2"/><rect class="c c2h" x="818" y="82" rx="2" ry="2"/><rect class="c c2i" x="818" y="98" rx="2" ry="2"/><rect class="c c2j" x="834" y="2" rx="2" ry="2"/><rect class="c c2k" x="834" y="18" rx="2" ry="2"/><rect class="c c2l" x="834" y="34" rx="2" ry="2"/><rect class="c c2m" x="834" y="50" rx="2" ry="2"/><rect class="c c2n" x="834" y="66" rx="2" ry="2"/><rect class="c" x="834" y="82" rx="2" ry="2"/><rect class="u u0" height="12" width="645.4" x="0.0" y="144"/><rect class="u u1" height="12" width="97.8" x="644.8" y="144"/><rect class="u u2" height="12" width="27.1" x="742.0" y="144"/><rect class="u u3" height="12" width="80.1" x="768.5" y="144"/><rect class="s s0" x="0.8" y="0.8" width="14.4" height="14.4" rx="4.5" ry="4.5"/><rect class="s s1" x="1.8" y="1.8" width="12.3" height="12.3" rx="4.1" ry="4.1"/><rect class="s s2" x="2.6" y="2.6" width="10.8" height="10.8" rx="3.6" ry="3.6"/><rect class="s s3" x="3.0" y="3.0" width="9.9" height="9.9" rx="3.3" ry="3.3"/></svg>