<svg viewBox="-16 -32 880 192" width="880" height="192" xmlns="http://www.w3.org/2000/svg"><desc>Generated with https://github.com/Platane/snk</desc><style>:root{--cb:#1b1f230a;--cs:purple;--ce:#ebedf0;--c0:#ebedf0;--c1:#9be9a8;--c2:#40c463;--c3:#30a14e;--c4:#216e39}.c{shape-rendering:geometricPrecision;fill:var(--ce);stroke-width:1px;stroke:var(--cb);animation:none 26300ms linear infinite;width:12px;height:12px}@keyframes c0{92.01%{fill:var(--c4)}92.03%,100%{fill:var(--ce)}}.c.c0{fill:var(--c4);animation-name:c0}@keyframes c1{8.36%{fill:var(--c1)}8.38%,100%{fill:var(--ce)}}.c.c1{fill:var(--c1);animation-name:c1}@keyframes c2{11.4%{fill:var(--c1)}11.42%,100%{fill:var(--ce)}}.c.c2{fill:var(--c1);animation-name:c2}@keyframes c3{61.59%{fill:var(--c2)}61.61%,100%{fill:var(--ce)}}.c.c3{fill:var(--c2);animation-name:c3}@keyframes c4{61.97%{fill:var(--c2)}61.99%,100%{fill:var(--ce)}}.c.c4{fill:var(--c2);animation-name:c4}@keyframes c5{13.68%{fill:var(--c1)}13.7%,100%{fill:var(--ce)}}.c.c5{fill:var(--c1);animation-name:c5}@keyframes c6{19.76%{fill:var(--c1)}19.78%,100%{fill:var(--ce)}}.c.c6{fill:var(--c1);animation-name:c6}@keyframes c7{79.46%{fill:var(--c4)}79.48%,100%{fill:var(--ce)}}.c.c7{fill:var(--c4);animation-name:c7}@keyframes c8{79.84%{fill:var(--c4)}79.86%,100%{fill:var(--ce)}}.c.c8{fill:var(--c4);animation-name:c8}@keyframes c9{80.98%{fill:var(--c4)}81%,100%{fill:var(--ce)}}.c.c9{fill:var(--c4);animation-name:c9}@keyframes ca{33.07%{fill:var(--c1)}33.09%,100%{fill:var(--ce)}}.c.ca{fill:var(--c1);animation-name:ca}@keyframes cb{80.22%{fill:var(--c4)}80.24%,100%{fill:var(--ce)}}.c.cb{fill:var(--c4);animation-name:cb}@keyframes cc{80.6%{fill:var(--c4)}80.62%,100%{fill:var(--ce)}}.c.cc{fill:var(--c4);animation-name:cc}@keyframes cd{30.79%{fill:var(--c1)}30.81%,100%{fill:var(--ce)}}.c.cd{fill:var(--c1);animation-name:cd}@keyframes ce{30.41%{fill:var(--c1)}30.43%,100%{fill:var(--ce)}}.c.ce{fill:var(--c1);animation-name:ce}@keyframes cf{30.03%{fill:var(--c1)}30.05%,100%{fill:var(--ce)}}.c.cf{fill:var(--c1);animation-name:cf}@keyframes cg{20.52%{fill:var(--c1)}20.54%,100%{fill:var(--ce)}}.c.cg{fill:var(--c1);animation-name:cg}@keyframes ch{34.59%{fill:var(--c1)}34.61%,100%{fill:var(--ce)}}.c.ch{fill:var(--c1);animation-name:ch}@keyframes ci{47.14%{fill:var(--c1)}47.16%,100%{fill:var(--ce)}}.c.ci{fill:var(--c1);animation-name:ci}@keyframes cj{46.76%{fill:var(--c1)}46.78%,100%{fill:var(--ce)}}.c.cj{fill:var(--c1);animation-name:cj}@keyframes ck{31.17%{fill:var(--c1)}31.19%,100%{fill:var(--ce)}}.c.ck{fill:var(--c1);animation-name:ck}@keyframes cl{69.57%{fill:var(--c3)}69.59%,100%{fill:var(--ce)}}.c.cl{fill:var(--c3);animation-name:cl}@keyframes cm{29.65%{fill:var(--c1)}29.67%,100%{fill:var(--ce)}}.c.cm{fill:var(--c1);animation-name:cm}@keyframes cn{20.9%{fill:var(--c1)}20.92%,100%{fill:var(--ce)}}.c.cn{fill:var(--c1);animation-name:cn}@keyframes co{34.97%{fill:var(--c1)}34.99%,100%{fill:var(--ce)}}.c.co{fill:var(--c1);animation-name:co}@keyframes cp{47.52%{fill:var(--c2)}47.54%,100%{fill:var(--ce)}}.c.cp{fill:var(--c2);animation-name:cp}@keyframes cq{46.38%{fill:var(--c1)}46.4%,100%{fill:var(--ce)}}.c.cq{fill:var(--c1);animation-name:cq}@keyframes cr{49.8%{fill:var(--c2)}49.82%,100%{fill:var(--ce)}}.c.cr{fill:var(--c2);animation-name:cr}@keyframes cs{28.13%{fill:var(--c1)}28.15%,100%{fill:var(--ce)}}.c.cs{fill:var(--c1);animation-name:cs}@keyframes ct{27.75%{fill:var(--c1)}27.77%,100%{fill:var(--ce)}}.c.ct{fill:var(--c1);animation-name:ct}@keyframes cu{21.28%{fill:var(--c1)}21.3%,100%{fill:var(--ce)}}.c.cu{fill:var(--c1);animation-name:cu}@keyframes cv{35.35%{fill:var(--c1)}35.37%,100%{fill:var(--ce)}}.c.cv{fill:var(--c1);animation-name:cv}@keyframes cw{44.86%{fill:var(--c1)}44.88%,100%{fill:var(--ce)}}.c.cw{fill:var(--c1);animation-name:cw}@keyframes cx{44.48%{fill:var(--c1)}44.5%,100%{fill:var(--ce)}}.c.cx{fill:var(--c1);animation-name:cx}@keyframes cy{25.09%{fill:var(--c1)}25.11%,100%{fill:var(--ce)}}.c.cy{fill:var(--c1);animation-name:cy}@keyframes cz{25.47%{fill:var(--c1)}25.49%,100%{fill:var(--ce)}}.c.cz{fill:var(--c1);animation-name:cz}@keyframes c10{27.37%{fill:var(--c1)}27.39%,100%{fill:var(--ce)}}.c.c10{fill:var(--c1);animation-name:c10}@keyframes c11{21.66%{fill:var(--c1)}21.68%,100%{fill:var(--ce)}}.c.c11{fill:var(--c1);animation-name:c11}@keyframes c12{35.73%{fill:var(--c1)}35.75%,100%{fill:var(--ce)}}.c.c12{fill:var(--c1);animation-name:c12}@keyframes c13{36.11%{fill:var(--c1)}36.13%,100%{fill:var(--ce)}}.c.c13{fill:var(--c1);animation-name:c13}@keyframes c14{44.1%{fill:var(--c1)}44.12%,100%{fill:var(--ce)}}.c.c14{fill:var(--c1);animation-name:c14}@keyframes c15{24.7%{fill:var(--c1)}24.72%,100%{fill:var(--ce)}}.c.c15{fill:var(--c1);animation-name:c15}@keyframes c16{25.85%{fill:var(--c1)}25.87%,100%{fill:var(--ce)}}.c.c16{fill:var(--c1);animation-name:c16}@keyframes c17{26.99%{fill:var(--c1)}27.01%,100%{fill:var(--ce)}}.c.c17{fill:var(--c1);animation-name:c17}@keyframes c18{22.04%{fill:var(--c1)}22.06%,100%{fill:var(--ce)}}.c.c18{fill:var(--c1);animation-name:c18}@keyframes c19{71.85%{fill:var(--c3)}71.87%,100%{fill:var(--ce)}}.c.c19{fill:var(--c3);animation-name:c19}@keyframes c1a{36.49%{fill:var(--c1)}36.51%,100%{fill:var(--ce)}}.c.c1a{fill:var(--c1);animation-name:c1a}@keyframes c1b{43.72%{fill:var(--c1)}43.74%,100%{fill:var(--ce)}}.c.c1b{fill:var(--c1);animation-name:c1b}@keyframes c1c{24.32%{fill:var(--c1)}24.34%,100%{fill:var(--ce)}}.c.c1c{fill:var(--c1);animation-name:c1c}@keyframes c1d{26.23%{fill:var(--c1)}26.25%,100%{fill:var(--ce)}}.c.c1d{fill:var(--c1);animation-name:c1d}@keyframes c1e{22.8%{fill:var(--c1)}22.82%,100%{fill:var(--ce)}}.c.c1e{fill:var(--c1);animation-name:c1e}@keyframes c1f{22.42%{fill:var(--c1)}22.44%,100%{fill:var(--ce)}}.c.c1f{fill:var(--c1);animation-name:c1f}@keyframes c1g{40.29%{fill:var(--c1)}40.31%,100%{fill:var(--ce)}}.c.c1g{fill:var(--c1);animation-name:c1g}@keyframes c1h{36.87%{fill:var(--c1)}36.89%,100%{fill:var(--ce)}}.c.c1h{fill:var(--c1);animation-name:c1h}@keyframes c1i{41.05%{fill:var(--c1)}41.07%,100%{fill:var(--ce)}}.c.c1i{fill:var(--c1);animation-name:c1i}@keyframes c1j{23.94%{fill:var(--c1)}23.96%,100%{fill:var(--ce)}}.c.c1j{fill:var(--c1);animation-name:c1j}@keyframes c1k{23.56%{fill:var(--c1)}23.58%,100%{fill:var(--ce)}}.c.c1k{fill:var(--c1);animation-name:c1k}@keyframes c1l{23.18%{fill:var(--c1)}23.2%,100%{fill:var(--ce)}}.c.c1l{fill:var(--c1);animation-name:c1l}@keyframes c1m{72.99%{fill:var(--c4)}73.01%,100%{fill:var(--ce)}}.c.c1m{fill:var(--c4);animation-name:c1m}@keyframes c1n{39.91%{fill:var(--c1)}39.93%,100%{fill:var(--ce)}}.c.c1n{fill:var(--c1);animation-name:c1n}@keyframes c1o{37.25%{fill:var(--c1)}37.27%,100%{fill:var(--ce)}}.c.c1o{fill:var(--c1);animation-name:c1o}@keyframes c1p{41.43%{fill:var(--c1)}41.45%,100%{fill:var(--ce)}}.c.c1p{fill:var(--c1);animation-name:c1p}@keyframes c1q{74.51%{fill:var(--c4)}74.53%,100%{fill:var(--ce)}}.c.c1q{fill:var(--c4);animation-name:c1q}@keyframes c1r{52.08%{fill:var(--c2)}52.1%,100%{fill:var(--ce)}}.c.c1r{fill:var(--c2);animation-name:c1r}@keyframes c1s{52.46%{fill:var(--c2)}52.48%,100%{fill:var(--ce)}}.c.c1s{fill:var(--c2);animation-name:c1s}@keyframes c1t{38.39%{fill:var(--c1)}38.41%,100%{fill:var(--ce)}}.c.c1t{fill:var(--c1);animation-name:c1t}@keyframes c1u{38.01%{fill:var(--c1)}38.03%,100%{fill:var(--ce)}}.c.c1u{fill:var(--c1);animation-name:c1u}@keyframes c1v{37.63%{fill:var(--c1)}37.65%,100%{fill:var(--ce)}}.c.c1v{fill:var(--c1);animation-name:c1v}@keyframes c1w{41.82%{fill:var(--c1)}41.84%,100%{fill:var(--ce)}}.c.c1w{fill:var(--c1);animation-name:c1w}.u{transform-origin:0 0;transform:scale(0,1);animation:none linear 26300ms infinite}@keyframes u0{8.36%{transform:scale(0.000,1)}8.38%,11.4%{transform:scale(0.019,1)}11.42%,13.68%{transform:scale(0.038,1)}13.7%,19.76%{transform:scale(0.057,1)}19.78%,20.52%{transform:scale(0.075,1)}20.54%,20.9%{transform:scale(0.094,1)}20.92%,21.28%{transform:scale(0.113,1)}21.3%,21.66%{transform:scale(0.132,1)}21.68%,22.04%{transform:scale(0.151,1)}22.06%,22.42%{transform:scale(0.170,1)}22.44%,22.8%{transform:scale(0.189,1)}22.82%,23.18%{transform:scale(0.208,1)}23.2%,23.56%{transform:scale(0.226,1)}23.58%,23.94%{transform:scale(0.245,1)}23.96%,24.32%{transform:scale(0.264,1)}24.34%,24.7%{transform:scale(0.283,1)}24.72%,25.09%{transform:scale(0.302,1)}25.11%,25.47%{transform:scale(0.321,1)}25.49%,25.85%{transform:scale(0.340,1)}25.87%,26.23%{transform:scale(0.358,1)}26.25%,26.99%{transform:scale(0.377,1)}27.01%,27.37%{transform:scale(0.396,1)}27.39%,27.75%{transform:scale(0.415,1)}27.77%,28.13%{transform:scale(0.434,1)}28.15%,29.65%{transform:scale(0.453,1)}29.67%,30.03%{transform:scale(0.472,1)}30.05%,30.41%{transform:scale(0.491,1)}30.43%,30.79%{transform:scale(0.509,1)}30.81%,31.17%{transform:scale(0.528,1)}31.19%,33.07%{transform:scale(0.547,1)}33.09%,34.59%{transform:scale(0.566,1)}34.61%,34.97%{transform:scale(0.585,1)}34.99%,35.35%{transform:scale(0.604,1)}35.37%,35.73%{transform:scale(0.623,1)}35.75%,36.11%{transform:scale(0.642,1)}36.13%,36.49%{transform:scale(0.660,1)}36.51%,36.87%{transform:scale(0.679,1)}36.89%,37.25%{transform:scale(0.698,1)}37.27%,37.63%{transform:scale(0.717,1)}37.65%,38.01%{transform:scale(0.736,1)}38.03%,38.39%{transform:scale(0.755,1)}38.41%,39.91%{transform:scale(0.774,1)}39.93%,40.29%{transform:scale(0.792,1)}40.31%,41.05%{transform:scale(0.811,1)}41.07%,41.43%{transform:scale(0.830,1)}41.45%,41.82%{transform:scale(0.849,1)}41.84%,43.72%{transform:scale(0.868,1)}43.74%,44.1%{transform:scale(0.887,1)}44.12%,44.48%{transform:scale(0.906,1)}44.5%,44.86%{transform:scale(0.925,1)}44.88%,46.38%{transform:scale(0.943,1)}46.4%,46.76%{transform:scale(0.962,1)}46.78%,47.14%{transform:scale(0.981,1)}47.16%,100%{transform:scale(1.000,1)}}.u.u0{fill:var(--c1);animation-name:u0;transform-origin:0.0px 0}@keyframes u1{47.52%{transform:scale(0.000,1)}47.54%,49.8%{transform:scale(0.167,1)}49.82%,52.08%{transform:scale(0.333,1)}52.1%,52.46%{transform:scale(0.500,1)}52.48%,61.59%{transform:scale(0.667,1)}61.61%,61.97%{transform:scale(0.833,1)}61.99%,100%{transform:scale(1.000,1)}}.u.u1{fill:var(--c2);animation-name:u1;transform-origin:651.4px 0}@keyframes u2{69.57%{transform:scale(0.000,1)}69.59%,71.85%{transform:scale(0.500,1)}71.87%,100%{transform:scale(1.000,1)}}.u.u2{fill:var(--c3);animation-name:u2;transform-origin:725.1px 0}@keyframes u3{72.99%{transform:scale(0.000,1)}73.01%,74.51%{transform:scale(0.125,1)}74.53%,79.46%{transform:scale(0.250,1)}79.48%,79.84%{transform:scale(0.375,1)}79.86%,80.22%{transform:scale(0.500,1)}80.24%,80.6%{transform:scale(0.625,1)}80.62%,80.98%{transform:scale(0.750,1)}81%,92.01%{transform:scale(0.875,1)}92.03%,100%{transform:scale(1.000,1)}}.u.u3{fill:var(--c4);animation-name:u3;transform-origin:749.7px 0}.s{shape-rendering:geometricPrecision;fill:var(--cs);animation:none linear 26300ms infinite}@keyframes s0{0%,99.62%{transform:translate(0px,-16px)}0.38%{transform:translate(0px,0px)}7.22%{transform:translate(288px,0px)}7.6%{transform:translate(288px,16px)}9.51%{transform:translate(368px,16px)}11.41%{transform:translate(368px,96px)}18.25%{transform:translate(656px,96px)}19.39%,67.3%{transform:translate(656px,48px)}22.43%{transform:translate(784px,48px)}22.81%,26.62%{transform:translate(784px,32px)}23.19%{transform:translate(800px,32px)}23.95%,51.33%{transform:translate(800px,0px)}25.1%{transform:translate(752px,0px)}25.48%,28.52%{transform:translate(752px,16px)}26.24%{transform:translate(784px,16px)}27.76%{transform:translate(736px,32px)}28.14%{transform:translate(736px,16px)}28.9%{transform:translate(752px,32px)}30.04%{transform:translate(704px,32px)}30.8%{transform:translate(704px,0px)}31.18%{transform:translate(720px,0px)}31.56%{transform:translate(720px,-16px)}32.32%{transform:translate(688px,-16px)}33.08%{transform:translate(688px,16px)}33.46%{transform:translate(704px,16px)}34.6%{transform:translate(704px,64px)}35.74%{transform:translate(752px,64px)}36.12%,45.25%{transform:translate(752px,80px)}37.64%,42.21%{transform:translate(816px,80px)}38.4%,73.38%{transform:translate(816px,48px)}38.78%{transform:translate(832px,48px)}39.16%{transform:translate(832px,64px)}40.3%{transform:translate(784px,64px)}41.06%{transform:translate(784px,96px)}41.83%{transform:translate(816px,96px)}43.35%{transform:translate(768px,80px)}43.73%{transform:translate(768px,96px)}44.49%{transform:translate(736px,96px)}44.87%,47.91%{transform:translate(736px,80px)}45.63%{transform:translate(752px,96px)}46.77%{transform:translate(704px,96px)}47.15%{transform:translate(704px,80px)}49.81%{transform:translate(736px,0px)}51.71%{transform:translate(800px,16px)}52.09%{transform:translate(816px,16px)}52.47%{transform:translate(816px,32px)}60.84%{transform:translate(464px,32px)}61.98%{transform:translate(464px,80px)}66.54%{transform:translate(656px,80px)}68.82%{transform:translate(720px,48px)}69.58%{transform:translate(720px,16px)}70.72%{transform:translate(768px,16px)}71.86%{transform:translate(768px,64px)}72.62%{transform:translate(800px,64px)}73%{transform:translate(800px,48px)}74.52%{transform:translate(816px,0px)}77.95%,83.27%{transform:translate(672px,0px)}79.85%{transform:translate(672px,80px)}80.23%{transform:translate(688px,80px)}80.61%{transform:translate(688px,96px)}80.99%{transform:translate(672px,96px)}97.34%{transform:translate(80px,0px)}97.72%{transform:translate(80px,-16px)}}.s.s0{transform:translate(0px,-16px);animation-name:s0}@keyframes s1{0%,99.62%{transform:translate(16px,-16px)}0.38%{transform:translate(0px,-16px)}0.76%{transform:translate(0px,0px)}7.6%{transform:translate(288px,0px)}7.98%{transform:translate(288px,16px)}9.89%{transform:translate(368px,16px)}11.79%{transform:translate(368px,96px)}18.63%{transform:translate(656px,96px)}19.77%,67.68%{transform:translate(656px,48px)}22.81%{transform:translate(784px,48px)}23.19%,27%{transform:translate(784px,32px)}23.57%{transform:translate(800px,32px)}24.33%,51.71%{transform:translate(800px,0px)}25.48%{transform:translate(752px,0px)}25.86%,28.9%{transform:translate(752px,16px)}26.62%{transform:translate(784px,16px)}28.14%{transform:translate(736px,32px)}28.52%{transform:translate(736px,16px)}29.28%{transform:translate(752px,32px)}30.42%{transform:translate(704px,32px)}31.18%{transform:translate(704px,0px)}31.56%{transform:translate(720px,0px)}31.94%{transform:translate(720px,-16px)}32.7%{transform:translate(688px,-16px)}33.46%{transform:translate(688px,16px)}33.84%{transform:translate(704px,16px)}34.98%{transform:translate(704px,64px)}36.12%{transform:translate(752px,64px)}36.5%,45.63%{transform:translate(752px,80px)}38.02%,42.59%{transform:translate(816px,80px)}38.78%,73.76%{transform:translate(816px,48px)}39.16%{transform:translate(832px,48px)}39.54%{transform:translate(832px,64px)}40.68%{transform:translate(784px,64px)}41.44%{transform:translate(784px,96px)}42.21%{transform:translate(816px,96px)}43.73%{transform:translate(768px,80px)}44.11%{transform:translate(768px,96px)}44.87%{transform:translate(736px,96px)}45.25%,48.29%{transform:translate(736px,80px)}46.01%{transform:translate(752px,96px)}47.15%{transform:translate(704px,96px)}47.53%{transform:translate(704px,80px)}50.19%{transform:translate(736px,0px)}52.09%{transform:translate(800px,16px)}52.47%{transform:translate(816px,16px)}52.85%{transform:translate(816px,32px)}61.22%{transform:translate(464px,32px)}62.36%{transform:translate(464px,80px)}66.92%{transform:translate(656px,80px)}69.2%{transform:translate(720px,48px)}69.96%{transform:translate(720px,16px)}71.1%{transform:translate(768px,16px)}72.24%{transform:translate(768px,64px)}73%{transform:translate(800px,64px)}73.38%{transform:translate(800px,48px)}74.9%{transform:translate(816px,0px)}78.33%,83.65%{transform:translate(672px,0px)}80.23%{transform:translate(672px,80px)}80.61%{transform:translate(688px,80px)}80.99%{transform:translate(688px,96px)}81.37%{transform:translate(672px,96px)}97.72%{transform:translate(80px,0px)}98.1%{transform:translate(80px,-16px)}}.s.s1{transform:translate(16px,-16px);animation-name:s1}@keyframes s2{0%,99.62%{transform:translate(32px,-16px)}0.76%{transform:translate(0px,-16px)}1.14%{transform:translate(0px,0px)}7.98%{transform:translate(288px,0px)}8.37%{transform:translate(288px,16px)}10.27%{transform:translate(368px,16px)}12.17%{transform:translate(368px,96px)}19.01%{transform:translate(656px,96px)}20.15%,68.06%{transform:translate(656px,48px)}23.19%{transform:translate(784px,48px)}23.57%,27.38%{transform:translate(784px,32px)}23.95%{transform:translate(800px,32px)}24.71%,52.09%{transform:translate(800px,0px)}25.86%{transform:translate(752px,0px)}26.24%,29.28%{transform:translate(752px,16px)}27%{transform:translate(784px,16px)}28.52%{transform:translate(736px,32px)}28.9%{transform:translate(736px,16px)}29.66%{transform:translate(752px,32px)}30.8%{transform:translate(704px,32px)}31.56%{transform:translate(704px,0px)}31.94%{transform:translate(720px,0px)}32.32%{transform:translate(720px,-16px)}33.08%{transform:translate(688px,-16px)}33.84%{transform:translate(688px,16px)}34.22%{transform:translate(704px,16px)}35.36%{transform:translate(704px,64px)}36.5%{transform:translate(752px,64px)}36.88%,46.01%{transform:translate(752px,80px)}38.4%,42.97%{transform:translate(816px,80px)}39.16%,74.14%{transform:translate(816px,48px)}39.54%{transform:translate(832px,48px)}39.92%{transform:translate(832px,64px)}41.06%{transform:translate(784px,64px)}41.83%{transform:translate(784px,96px)}42.59%{transform:translate(816px,96px)}44.11%{transform:translate(768px,80px)}44.49%{transform:translate(768px,96px)}45.25%{transform:translate(736px,96px)}45.63%,48.67%{transform:translate(736px,80px)}46.39%{transform:translate(752px,96px)}47.53%{transform:translate(704px,96px)}47.91%{transform:translate(704px,80px)}50.57%{transform:translate(736px,0px)}52.47%{transform:translate(800px,16px)}52.85%{transform:translate(816px,16px)}53.23%{transform:translate(816px,32px)}61.6%{transform:translate(464px,32px)}62.74%{transform:translate(464px,80px)}67.3%{transform:translate(656px,80px)}69.58%{transform:translate(720px,48px)}70.34%{transform:translate(720px,16px)}71.48%{transform:translate(768px,16px)}72.62%{transform:translate(768px,64px)}73.38%{transform:translate(800px,64px)}73.76%{transform:translate(800px,48px)}75.29%{transform:translate(816px,0px)}78.71%,84.03%{transform:translate(672px,0px)}80.61%{transform:translate(672px,80px)}80.99%{transform:translate(688px,80px)}81.37%{transform:translate(688px,96px)}81.75%{transform:translate(672px,96px)}98.1%{transform:translate(80px,0px)}98.48%{transform:translate(80px,-16px)}}.s.s2{transform:translate(32px,-16px);animation-name:s2}@keyframes s3{0%,99.62%{transform:translate(48px,-16px)}1.14%{transform:translate(0px,-16px)}1.52%{transform:translate(0px,0px)}8.37%{transform:translate(288px,0px)}8.75%{transform:translate(288px,16px)}10.65%{transform:translate(368px,16px)}12.55%{transform:translate(368px,96px)}19.39%{transform:translate(656px,96px)}20.53%,68.44%{transform:translate(656px,48px)}23.57%{transform:translate(784px,48px)}23.95%,27.76%{transform:translate(784px,32px)}24.33%{transform:translate(800px,32px)}25.1%,52.47%{transform:translate(800px,0px)}26.24%{transform:translate(752px,0px)}26.62%,29.66%{transform:translate(752px,16px)}27.38%{transform:translate(784px,16px)}28.9%{transform:translate(736px,32px)}29.28%{transform:translate(736px,16px)}30.04%{transform:translate(752px,32px)}31.18%{transform:translate(704px,32px)}31.94%{transform:translate(704px,0px)}32.32%{transform:translate(720px,0px)}32.7%{transform:translate(720px,-16px)}33.46%{transform:translate(688px,-16px)}34.22%{transform:translate(688px,16px)}34.6%{transform:translate(704px,16px)}35.74%{transform:translate(704px,64px)}36.88%{transform:translate(752px,64px)}37.26%,46.39%{transform:translate(752px,80px)}38.78%,43.35%{transform:translate(816px,80px)}39.54%,74.52%{transform:translate(816px,48px)}39.92%{transform:translate(832px,48px)}40.3%{transform:translate(832px,64px)}41.44%{transform:translate(784px,64px)}42.21%{transform:translate(784px,96px)}42.97%{transform:translate(816px,96px)}44.49%{transform:translate(768px,80px)}44.87%{transform:translate(768px,96px)}45.63%{transform:translate(736px,96px)}46.01%,49.05%{transform:translate(736px,80px)}46.77%{transform:translate(752px,96px)}47.91%{transform:translate(704px,96px)}48.29%{transform:translate(704px,80px)}50.95%{transform:translate(736px,0px)}52.85%{transform:translate(800px,16px)}53.23%{transform:translate(816px,16px)}53.61%{transform:translate(816px,32px)}61.98%{transform:translate(464px,32px)}63.12%{transform:translate(464px,80px)}67.68%{transform:translate(656px,80px)}69.96%{transform:translate(720px,48px)}70.72%{transform:translate(720px,16px)}71.86%{transform:translate(768px,16px)}73%{transform:translate(768px,64px)}73.76%{transform:translate(800px,64px)}74.14%{transform:translate(800px,48px)}75.67%{transform:translate(816px,0px)}79.09%,84.41%{transform:translate(672px,0px)}80.99%{transform:translate(672px,80px)}81.37%{transform:translate(688px,80px)}81.75%{transform:translate(688px,96px)}82.13%{transform:translate(672px,96px)}98.48%{transform:translate(80px,0px)}98.86%{transform:translate(80px,-16px)}}.s.s3{transform:translate(48px,-16px);animation-name:s3}</style><rect class="c" x="2" y="2" rx="2" ry="2"/><rect class="c" x="2" y="18" rx="2" ry="2"/><rect class="c" x="2" y="34" rx="2" ry="2"/><rect class="c" x="2" y="50" rx="2" ry="2"/><rect class="c" x="2" y="66" rx="2" ry="2"/><rect class="c" x="2" y="82" rx="2" ry="2"/><rect class="c" x="2" y="98" rx="2" ry="2"/><rect class="c" x="18" y="2" rx="2" ry="2"/><rect class="c" x="18" y="18" rx="2" ry="2"/><rect class="c" x="18" y="34" rx="2" ry="2"/><rect class="c" x="18" y="50" rx="2" ry="2"/><rect class="c" x="18" y="66" rx="2" ry="2"/><rect class="c" x="18" y="82" rx="2" ry="2"/><rect class="c" x="18" y="98" rx="2" ry="2"/><rect class="c" x="34" y="2" rx="2" ry="2"/><rect class="c" x="34" y="18" rx="2" ry="2"/><rect class="c" x="34" y="34" rx="2" ry="2"/><rect class="c" x="34" y="50" rx="2" ry="2"/><rect class="c" x="34" y="66" rx="2" ry="2"/><rect class="c" x="34" y="82" rx="2" ry="2"/><rect class="c" x="34" y="98" rx="2" ry="2"/><rect class="c" x="50" y="2" rx="2" ry="2"/><rect class="c" x="50" y="18" rx="2" ry="2"/><rect class="c" x="50" y="34" rx="2" ry="2"/><rect class="c" x="50" y="50" rx="2" ry="2"/><rect class="c" x="50" y="66" rx="2" ry="2"/><rect class="c" x="50" y="82" rx="2" ry="2"/><rect class="c" x="50" y="98" rx="2" ry="2"/><rect class="c" x="66" y="2" rx="2" ry="2"/><rect class="c" x="66" y="18" rx="2" ry="2"/><rect class="c" x="66" y="34" rx="2" ry="2"/><rect class="c" x="66" y="50" rx="2" ry="2"/><rect class="c" x="66" y="66" rx="2" ry="2"/><rect class="c" x="66" y="82" rx="2" ry="2"/><rect class="c" x="66" y="98" rx="2" ry="2"/><rect class="c" x="82" y="2" rx="2" ry="2"/><rect class="c" x="82" y="18" rx="2" ry="2"/><rect class="c" x="82" y="34" rx="2" ry="2"/><rect class="c" x="82" y="50" rx="2" ry="2"/><rect class="c" x="82" y="66" rx="2" ry="2"/><rect class="c" x="82" y="82" rx="2" ry="2"/><rect class="c" x="82" y="98" rx="2" ry="2"/><rect class="c" x="98" y="2" rx="2" ry="2"/><rect class="c" x="98" y="18" rx="2" ry="2"/><rect class="c" x="98" y="34" rx="2" ry="2"/><rect class="c" x="98" y="50" rx="2" ry="2"/><rect class="c" x="98" y="66" rx="2" ry="2"/><rect class="c" x="98" y="82" rx="2" ry="2"/><rect class="c" x="98" y="98" rx="2" ry="2"/><rect class="c" x="114" y="2" rx="2" ry="2"/><rect class="c" x="114" y="18" rx="2" ry="2"/><rect class="c" x="114" y="34" rx="2" ry="2"/><rect class="c" x="114" y="50" rx="2" ry="2"/><rect class="c" x="114" y="66" rx="2" ry="2"/><rect class="c" x="114" y="82" rx="2" ry="2"/><rect class="c" x="114" y="98" rx="2" ry="2"/><rect class="c" x="130" y="2" rx="2" ry="2"/><rect class="c" x="130" y="18" rx="2" ry="2"/><rect class="c" x="130" y="34" rx="2" ry="2"/><rect class="c" x="130" y="50" rx="2" ry="2"/><rect class="c" x="130" y="66" rx="2" ry="2"/><rect class="c" x="130" y="82" rx="2" ry="2"/><rect class="c" x="130" y="98" rx="2" ry="2"/><rect class="c" x="146" y="2" rx="2" ry="2"/><rect class="c" x="146" y="18" rx="2" ry="2"/><rect class="c" x="146" y="34" rx="2" ry="2"/><rect class="c" x="146" y="50" rx="2" ry="2"/><rect class="c" x="146" y="66" rx="2" ry="2"/><rect class="c" x="146" y="82" rx="2" ry="2"/><rect class="c" x="146" y="98" rx="2" ry="2"/><rect class="c" x="162" y="2" rx="2" ry="2"/><rect class="c" x="162" y="18" rx="2" ry="2"/><rect class="c" x="162" y="34" rx="2" ry="2"/><rect class="c" x="162" y="50" rx="2" ry="2"/><rect class="c" x="162" y="66" rx="2" ry="2"/><rect class="c" x="162" y="82" rx="2" ry="2"/><rect class="c" x="162" y="98" rx="2" ry="2"/><rect class="c" x="178" y="2" rx="2" ry="2"/><rect class="c" x="178" y="18" rx="2" ry="2"/><rect class="c" x="178" y="34" rx="2" ry="2"/><rect class="c" x="178" y="50" rx="2" ry="2"/><rect class="c" x="178" y="66" rx="2" ry="2"/><rect class="c" x="178" y="82" rx="2" ry="2"/><rect class="c" x="178" y="98" rx="2" ry="2"/><rect class="c" x="194" y="2" rx="2" ry="2"/><rect class="c" x="194" y="18" rx="2" ry="2"/><rect class="c" x="194" y="34" rx="2" ry="2"/><rect class="c" x="194" y="50" rx="2" ry="2"/><rect class="c" x="194" y="66" rx="2" ry="2"/><rect class="c" x="194" y="82" rx="2" ry="2"/><rect class="c" x="194" y="98" rx="2" ry="2"/><rect class="c" x="210" y="2" rx="2" ry="2"/><rect class="c" x="210" y="18" rx="2" ry="2"/><rect class="c" x="210" y="34" rx="2" ry="2"/><rect class="c" x="210" y="50" rx="2" ry="2"/><rect class="c" x="210" y="66" rx="2" ry="2"/><rect class="c" x="210" y="82" rx="2" ry="2"/><rect class="c" x="210" y="98" rx="2" ry="2"/><rect class="c" x="226" y="2" rx="2" ry="2"/><rect class="c" x="226" y="18" rx="2" ry="2"/><rect class="c" x="226" y="34" rx="2" ry="2"/><rect class="c" x="226" y="50" rx="2" ry="2"/><rect class="c" x="226" y="66" rx="2" ry="2"/><rect class="c" x="226" y="82" rx="2" ry="2"/><rect class="c" x="226" y="98" rx="2" ry="2"/><rect class="c" x="242" y="2" rx="2" ry="2"/><rect class="c" x="242" y="18" rx="2" ry="2"/><rect class="c" x="242" y="34" rx="2" ry="2"/><rect class="c" x="242" y="50" rx="2" ry="2"/><rect class="c" x="242" y="66" rx="2" ry="2"/><rect class="c" x="242" y="82" rx="2" ry="2"/><rect class="c" x="242" y="98" rx="2" ry="2"/><rect class="c" x="258" y="2" rx="2" ry="2"/><rect class="c" x="258" y="18" rx="2" ry="2"/><rect class="c" x="258" y="34" rx="2" ry="2"/><rect class="c" x="258" y="50" rx="2" ry="2"/><rect class="c" x="258" y="66" rx="2" ry="2"/><rect class="c" x="258" y="82" rx="2" ry="2"/><rect class="c" x="258" y="98" rx="2" ry="2"/><rect class="c" x="274" y="2" rx="2" ry="2"/><rect class="c" x="274" y="18" rx="2" ry="2"/><rect class="c" x="274" y="34" rx="2" ry="2"/><rect class="c" x="274" y="50" rx="2" ry="2"/><rect class="c" x="274" y="66" rx="2" ry="2"/><rect class="c" x="274" y="82" rx="2" ry="2"/><rect class="c" x="274" y="98" rx="2" ry="2"/><rect class="c" x="290" y="2" rx="2" ry="2"/><rect class="c" x="290" y="18" rx="2" ry="2"/><rect class="c" x="290" y="34" rx="2" ry="2"/><rect class="c" x="290" y="50" rx="2" ry="2"/><rect class="c" x="290" y="66" rx="2" ry="2"/><rect class="c" x="290" y="82" rx="2" ry="2"/><rect class="c" x="290" y="98" rx="2" ry="2"/><rect class="c c0" x="306" y="2" rx="2" ry="2"/><rect class="c" x="306" y="18" rx="2" ry="2"/><rect class="c" x="306" y="34" rx="2" ry="2"/><rect class="c" x="306" y="50" rx="2" ry="2"/><rect class="c" x="306" y="66" rx="2" ry="2"/><rect class="c" x="306" y="82" rx="2" ry="2"/><rect class="c" x="306" y="98" rx="2" ry="2"/><rect class="c" x="322" y="2" rx="2" ry="2"/><rect class="c c1" x="322" y="18" rx="2" ry="2"/><rect class="c" x="322" y="34" rx="2" ry="2"/><rect class="c" x="322" y="50" rx="2" ry="2"/><rect class="c" x="322" y="66" rx="2" ry="2"/><rect class="c" x="322" y="82" rx="2" ry="2"/><rect class="c" x="322" y="98" rx="2" ry="2"/><rect class="c" x="338" y="2" rx="2" ry="2"/><rect class="c" x="338" y="18" rx="2" ry="2"/><rect class="c" x="338" y="34" rx="2" ry="2"/><rect class="c" x="338" y="50" rx="2" ry="2"/><rect class="c" x="338" y="66" rx="2" ry="2"/><rect class="c" x="338" y="82" rx="2" ry="2"/><rect class="c" x="338" y="98" rx="2" ry="2"/><rect class="c" x="354" y="2" rx="2" ry="2"/><rect class="c" x="354" y="18" rx="2" ry="2"/><rect class="c" x="354" y="34" rx="2" ry="2"/><rect class="c" x="354" y="50" rx="2" ry="2"/><rect class="c" x="354" y="66" rx="2" ry="2"/><rect class="c" x="354" y="82" rx="2" ry="2"/><rect class="c" x="354" y="98" rx="2" ry="2"/><rect class="c" x="370" y="2" rx="2" ry="2"/><rect class="c" x="370" y="18" rx="2" ry="2"/><rect class="c" x="370" y="34" rx="2" ry="2"/><rect class="c" x="370" y="50" rx="2" ry="2"/><rect class="c" x="370" y="66" rx="2" ry="2"/><rect class="c" x="370" y="82" rx="2" ry="2"/><rect class="c c2" x="370" y="98" rx="2" ry="2"/><rect class="c" x="386" y="2" rx="2" ry="2"/><rect class="c" x="386" y="18" rx="2" ry="2"/><rect class="c" x="386" y="34" rx="2" ry="2"/><rect class="c" x="386" y="50" rx="2" ry="2"/><rect class="c" x="386" y="66" rx="2" ry="2"/><rect class="c" x="386" y="82" rx="2" ry="2"/><rect class="c" x="386" y="98" rx="2" ry="2"/><rect class="c" x="402" y="2" rx="2" ry="2"/><rect class="c" x="402" y="18" rx="2" ry="2"/><rect class="c" x="402" y="34" rx="2" ry="2"/><rect class="c" x="402" y="50" rx="2" ry="2"/><rect class="c" x="402" y="66" rx="2" ry="2"/><rect class="c" x="402" y="82" rx="2" ry="2"/><rect class="c" x="402" y="98" rx="2" ry="2"/><rect class="c" x="418" y="2" rx="2" ry="2"/><rect class="c" x="418" y="18" rx="2" ry="2"/><rect class="c" x="418" y="34" rx="2" ry="2"/><rect class="c" x="418" y="50" rx="2" ry="2"/><rect class="c" x="418" y="66" rx="2" ry="2"/><rect class="c" x="418" y="82" rx="2" ry="2"/><rect class="c" x="418" y="98" rx="2" ry="2"/><rect class="c" x="434" y="2" rx="2" ry="2"/><rect class="c" x="434" y="18" rx="2" ry="2"/><rect class="c" x="434" y="34" rx="2" ry="2"/><rect class="c" x="434" y="50" rx="2" ry="2"/><rect class="c" x="434" y="66" rx="2" ry="2"/><rect class="c" x="434" y="82" rx="2" ry="2"/><rect class="c" x="434" y="98" rx="2" ry="2"/><rect class="c" x="450" y="2" rx="2" ry="2"/><rect class="c" x="450" y="18" rx="2" ry="2"/><rect class="c" x="450" y="34" rx="2" ry="2"/><rect class="c" x="450" y="50" rx="2" ry="2"/><rect class="c" x="450" y="66" rx="2" ry="2"/><rect class="c" x="450" y="82" rx="2" ry="2"/><rect class="c" x="450" y="98" rx="2" ry="2"/><rect class="c" x="466" y="2" rx="2" ry="2"/><rect class="c" x="466" y="18" rx="2" ry="2"/><rect class="c" x="466" y="34" rx="2" ry="2"/><rect class="c" x="466" y="50" rx="2" ry="2"/><rect class="c c3" x="466" y="66" rx="2" ry="2"/><rect class="c c4" x="466" y="82" rx="2" ry="2"/><rect class="c c5" x="466" y="98" rx="2" ry="2"/><rect class="c" x="482" y="2" rx="2" ry="2"/><rect class="c" x="482" y="18" rx="2" ry="2"/><rect class="c" x="482" y="34" rx="2" ry="2"/><rect class="c" x="482" y="50" rx="2" ry="2"/><rect class="c" x="482" y="66" rx="2" ry="2"/><rect class="c" x="482" y="82" rx="2" ry="2"/><rect class="c" x="482" y="98" rx="2" ry="2"/><rect class="c" x="498" y="2" rx="2" ry="2"/><rect class="c" x="498" y="18" rx="2" ry="2"/><rect class="c" x="498" y="34" rx="2" ry="2"/><rect class="c" x="498" y="50" rx="2" ry="2"/><rect class="c" x="498" y="66" rx="2" ry="2"/><rect class="c" x="498" y="82" rx="2" ry="2"/><rect class="c" x="498" y="98" rx="2" ry="2"/><rect class="c" x="514" y="2" rx="2" ry="2"/><rect class="c" x="514" y="18" rx="2" ry="2"/><rect class="c" x="514" y="34" rx="2" ry="2"/><rect class="c" x="514" y="50" rx="2" ry="2"/><rect class="c" x="514" y="66" rx="2" ry="2"/><rect class="c" x="514" y="82" rx="2" ry="2"/><rect class="c" x="514" y="98" rx="2" ry="2"/><rect class="c" x="530" y="2" rx="2" ry="2"/><rect class="c" x="530" y="18" rx="2" ry="2"/><rect class="c" x="530" y="34" rx="2" ry="2"/><rect class="c" x="530" y="50" rx="2" ry="2"/><rect class="c" x="530" y="66" rx="2" ry="2"/><rect class="c" x="530" y="82" rx="2" ry="2"/><rect class="c" x="530" y="98" rx="2" ry="2"/><rect class="c" x="546" y="2" rx="2" ry="2"/><rect class="c" x="546" y="18" rx="2" ry="2"/><rect class="c" x="546" y="34" rx="2" ry="2"/><rect class="c" x="546" y="50" rx="2" ry="2"/><rect class="c" x="546" y="66" rx="2" ry="2"/><rect class="c" x="546" y="82" rx="2" ry="2"/><rect class="c" x="546" y="98" rx="2" ry="2"/><rect class="c" x="562" y="2" rx="2" ry="2"/><rect class="c" x="562" y="18" rx="2" ry="2"/><rect class="c" x="562" y="34" rx="2" ry="2"/><rect class="c" x="562" y="50" rx="2" ry="2"/><rect class="c" x="562" y="66" rx="2" ry="2"/><rect class="c" x="562" y="82" rx="2" ry="2"/><rect class="c" x="562" y="98" rx="2" ry="2"/><rect class="c" x="578" y="2" rx="2" ry="2"/><rect class="c" x="578" y="18" rx="2" ry="2"/><rect class="c" x="578" y="34" rx="2" ry="2"/><rect class="c" x="578" y="50" rx="2" ry="2"/><rect class="c" x="578" y="66" rx="2" ry="2"/><rect class="c" x="578" y="82" rx="2" ry="2"/><rect class="c" x="578" y="98" rx="2" ry="2"/><rect class="c" x="594" y="2" rx="2" ry="2"/><rect class="c" x="594" y="18" rx="2" ry="2"/><rect class="c" x="594" y="34" rx="2" ry="2"/><rect class="c" x="594" y="50" rx="2" ry="2"/><rect class="c" x="594" y="66" rx="2" ry="2"/><rect class="c" x="594" y="82" rx="2" ry="2"/><rect class="c" x="594" y="98" rx="2" ry="2"/><rect class="c" x="610" y="2" rx="2" ry="2"/><rect class="c" x="610" y="18" rx="2" ry="2"/><rect class="c" x="610" y="34" rx="2" ry="2"/><rect class="c" x="610" y="50" rx="2" ry="2"/><rect class="c" x="610" y="66" rx="2" ry="2"/><rect class="c" x="610" y="82" rx="2" ry="2"/><rect class="c" x="610" y="98" rx="2" ry="2"/><rect class="c" x="626" y="2" rx="2" ry="2"/><rect class="c" x="626" y="18" rx="2" ry="2"/><rect class="c" x="626" y="34" rx="2" ry="2"/><rect class="c" x="626" y="50" rx="2" ry="2"/><rect class="c" x="626" y="66" rx="2" ry="2"/><rect class="c" x="626" y="82" rx="2" ry="2"/><rect class="c" x="626" y="98" rx="2" ry="2"/><rect class="c" x="642" y="2" rx="2" ry="2"/><rect class="c" x="642" y="18" rx="2" ry="2"/><rect class="c" x="642" y="34" rx="2" ry="2"/><rect class="c" x="642" y="50" rx="2" ry="2"/><rect class="c" x="642" y="66" rx="2" ry="2"/><rect class="c" x="642" y="82" rx="2" ry="2"/><rect class="c" x="642" y="98" rx="2" ry="2"/><rect class="c" x="658" y="2" rx="2" ry="2"/><rect class="c" x="658" y="18" rx="2" ry="2"/><rect class="c" x="658" y="34" rx="2" ry="2"/><rect class="c" x="658" y="50" rx="2" ry="2"/><rect class="c" x="658" y="66" rx="2" ry="2"/><rect class="c" x="658" y="82" rx="2" ry="2"/><rect class="c" x="658" y="98" rx="2" ry="2"/><rect class="c" x="674" y="2" rx="2" ry="2"/><rect class="c" x="674" y="18" rx="2" ry="2"/><rect class="c" x="674" y="34" rx="2" ry="2"/><rect class="c c6" x="674" y="50" rx="2" ry="2"/><rect class="c c7" x="674" y="66" rx="2" ry="2"/><rect class="c c8" x="674" y="82" rx="2" ry="2"/><rect class="c c9" x="674" y="98" rx="2" ry="2"/><rect class="c" x="690" y="2" rx="2" ry="2"/><rect class="c ca" x="690" y="18" rx="2" ry="2"/><rect class="c" x="690" y="34" rx="2" ry="2"/><rect class="c" x="690" y="50" rx="2" ry="2"/><rect class="c" x="690" y="66" rx="2" ry="2"/><rect class="c cb" x="690" y="82" rx="2" ry="2"/><rect class="c cc" x="690" y="98" rx="2" ry="2"/><rect class="c cd" x="706" y="2" rx="2" ry="2"/><rect class="c ce" x="706" y="18" rx="2" ry="2"/><rect class="c cf" x="706" y="34" rx="2" ry="2"/><rect class="c cg" x="706" y="50" rx="2" ry="2"/><rect class="c ch" x="706" y="66" rx="2" ry="2"/><rect class="c ci" x="706" y="82" rx="2" ry="2"/><rect class="c cj" x="706" y="98" rx="2" ry="2"/><rect class="c ck" x="722" y="2" rx="2" ry="2"/><rect class="c cl" x="722" y="18" rx="2" ry="2"/><rect class="c cm" x="722" y="34" rx="2" ry="2"/><rect class="c cn" x="722" y="50" rx="2" ry="2"/><rect class="c co" x="722" y="66" rx="2" ry="2"/><rect class="c cp" x="722" y="82" rx="2" ry="2"/><rect class="c cq" x="722" y="98" rx="2" ry="2"/><rect class="c cr" x="738" y="2" rx="2" ry="2"/><rect class="c cs" x="738" y="18" rx="2" ry="2"/><rect class="c ct" x="738" y="34" rx="2" ry="2"/><rect class="c cu" x="738" y="50" rx="2" ry="2"/><rect class="c cv" x="738" y="66" rx="2" ry="2"/><rect class="c cw" x="738" y="82" rx="2" ry="2"/><rect class="c cx" x="738" y="98" rx="2" ry="2"/><rect class="c cy" x="754" y="2" rx="2" ry="2"/><rect class="c cz" x="754" y="18" rx="2" ry="2"/><rect class="c c10" x="754" y="34" rx="2" ry="2"/><rect class="c c11" x="754" y="50" rx="2" ry="2"/><rect class="c c12" x="754" y="66" rx="2" ry="2"/><rect class="c c13" x="754" y="82" rx="2" ry="2"/><rect class="c c14" x="754" y="98" rx="2" ry="2"/><rect class="c c15" x="770" y="2" rx="2" ry="2"/><rect class="c c16" x="770" y="18" rx="2" ry="2"/><rect class="c c17" x="770" y="34" rx="2" ry="2"/><rect class="c c18" x="770" y="50" rx="2" ry="2"/><rect class="c c19" x="770" y="66" rx="2" ry="2"/><rect class="c c1a" x="770" y="82" rx="2" ry="2"/><rect class="c c1b" x="770" y="98" rx="2" ry="2"/><rect class="c c1c" x="786" y="2" rx="2" ry="2"/><rect class="c c1d" x="786" y="18" rx="2" ry="2"/><rect class="c c1e" x="786" y="34" rx="2" ry="2"/><rect class="c c1f" x="786" y="50" rx="2" ry="2"/><rect class="c c1g" x="786" y="66" rx="2" ry="2"/><rect class="c c1h" x="786" y="82" rx="2" ry="2"/><rect class="c c1i" x="786" y="98" rx="2" ry="2"/><rect class="c c1j" x="802" y="2" rx="2" ry="2"/><rect class="c c1k" x="802" y="18" rx="2" ry="2"/><rect class="c c1l" x="802" y="34" rx="2" ry="2"/><rect class="c c1m" x="802" y="50" rx="2" ry="2"/><rect class="c c1n" x="802" y="66" rx="2" ry="2"/><rect class="c c1o" x="802" y="82" rx="2" ry="2"/><rect class="c c1p" x="802" y="98" rx="2" ry="2"/><rect class="c c1q" x="818" y="2" rx="2" ry="2"/><rect class="c c1r" x="818" y="18" rx="2" ry="2"/><rect class="c c1s" x="818" y="34" rx="2" ry="2"/><rect class="c c1t" x="818" y="50" rx="2" ry="2"/><rect class="c c1u" x="818" y="66" rx="2" ry="2"/><rect class="c c1v" x="818" y="82" rx="2" ry="2"/><rect class="c c1w" x="818" y="98" rx="2" ry="2"/><rect class="c" x="834" y="2" rx="2" ry="2"/><rect class="u u0" height="12" width="652.0" x="0.0" y="144"/><rect class="u u1" height="12" width="74.3" x="651.4" y="144"/><rect class="u u2" height="12" width="25.2" x="725.1" y="144"/><rect class="u u3" height="12" width="98.9" x="749.7" y="144"/><rect class="s s0" x="0.8" y="0.8" width="14.4" height="14.4" rx="4.5" ry="4.5"/><rect class="s s1" x="1.8" y="1.8" width="12.3" height="12.3" rx="4.1" ry="4.1"/><rect class="s s2" x="2.6" y="2.6" width="10.8" height="10.8" rx="3.6" ry="3.6"/><rect class="s s3" x="3.0" y="3.0" width="9.9" height="9.9" rx="3.3" ry="3.3"/></svg>