<svg viewBox="-16 -32 880 192" width="880" height="192" xmlns="http://www.w3.org/2000/svg"><desc>Generated with https://github.com/Platane/snk</desc><style>:root{--cb:#1b1f230a;--cs:purple;--ce:#ebedf0;--c0:#ebedf0;--c1:#9be9a8;--c2:#40c463;--c3:#30a14e;--c4:#216e39}.c{shape-rendering:geometricPrecision;fill:var(--ce);stroke-width:1px;stroke:var(--cb);animation:none 30100ms linear infinite;width:12px;height:12px}@keyframes c0{93.35%{fill:var(--c4)}93.37%,100%{fill:var(--ce)}}.c.c0{fill:var(--c4);animation-name:c0}@keyframes c1{6.97%{fill:var(--c1)}6.99%,100%{fill:var(--ce)}}.c.c1{fill:var(--c1);animation-name:c1}@keyframes c2{64.44%{fill:var(--c2)}64.46%,100%{fill:var(--ce)}}.c.c2{fill:var(--c2);animation-name:c2}@keyframes c3{9.62%{fill:var(--c1)}9.64%,100%{fill:var(--ce)}}.c.c3{fill:var(--c1);animation-name:c3}@keyframes c4{60.12%{fill:var(--c2)}60.14%,100%{fill:var(--ce)}}.c.c4{fill:var(--c2);animation-name:c4}@keyframes c5{60.46%{fill:var(--c2)}60.48%,100%{fill:var(--ce)}}.c.c5{fill:var(--c2);animation-name:c5}@keyframes c6{11.62%{fill:var(--c1)}11.64%,100%{fill:var(--ce)}}.c.c6{fill:var(--c1);animation-name:c6}@keyframes c7{16.93%{fill:var(--c1)}16.95%,100%{fill:var(--ce)}}.c.c7{fill:var(--c1);animation-name:c7}@keyframes c8{82.38%{fill:var(--c4)}82.4%,100%{fill:var(--ce)}}.c.c8{fill:var(--c4);animation-name:c8}@keyframes c9{82.71%{fill:var(--c4)}82.73%,100%{fill:var(--ce)}}.c.c9{fill:var(--c4);animation-name:c9}@keyframes ca{83.71%{fill:var(--c4)}83.73%,100%{fill:var(--ce)}}.c.ca{fill:var(--c4);animation-name:ca}@keyframes cb{28.56%{fill:var(--c1)}28.58%,100%{fill:var(--ce)}}.c.cb{fill:var(--c1);animation-name:cb}@keyframes cc{83.05%{fill:var(--c4)}83.07%,100%{fill:var(--ce)}}.c.cc{fill:var(--c4);animation-name:cc}@keyframes cd{83.38%{fill:var(--c4)}83.4%,100%{fill:var(--ce)}}.c.cd{fill:var(--c4);animation-name:cd}@keyframes ce{26.57%{fill:var(--c1)}26.59%,100%{fill:var(--ce)}}.c.ce{fill:var(--c1);animation-name:ce}@keyframes cf{26.24%{fill:var(--c1)}26.26%,100%{fill:var(--ce)}}.c.cf{fill:var(--c1);animation-name:cf}@keyframes cg{25.9%{fill:var(--c1)}25.92%,100%{fill:var(--ce)}}.c.cg{fill:var(--c1);animation-name:cg}@keyframes ch{17.6%{fill:var(--c1)}17.62%,100%{fill:var(--ce)}}.c.ch{fill:var(--c1);animation-name:ch}@keyframes ci{29.89%{fill:var(--c1)}29.91%,100%{fill:var(--ce)}}.c.ci{fill:var(--c1);animation-name:ci}@keyframes cj{45.5%{fill:var(--c1)}45.52%,100%{fill:var(--ce)}}.c.cj{fill:var(--c1);animation-name:cj}@keyframes ck{45.17%{fill:var(--c1)}45.19%,100%{fill:var(--ce)}}.c.ck{fill:var(--c1);animation-name:ck}@keyframes cl{26.9%{fill:var(--c1)}26.92%,100%{fill:var(--ce)}}.c.cl{fill:var(--c1);animation-name:cl}@keyframes cm{73.08%{fill:var(--c3)}73.1%,100%{fill:var(--ce)}}.c.cm{fill:var(--c3);animation-name:cm}@keyframes cn{25.57%{fill:var(--c1)}25.59%,100%{fill:var(--ce)}}.c.cn{fill:var(--c1);animation-name:cn}@keyframes co{17.93%{fill:var(--c1)}17.95%,100%{fill:var(--ce)}}.c.co{fill:var(--c1);animation-name:co}@keyframes cp{30.22%{fill:var(--c1)}30.24%,100%{fill:var(--ce)}}.c.cp{fill:var(--c1);animation-name:cp}@keyframes cq{45.84%{fill:var(--c2)}45.86%,100%{fill:var(--ce)}}.c.cq{fill:var(--c2);animation-name:cq}@keyframes cr{44.84%{fill:var(--c1)}44.86%,100%{fill:var(--ce)}}.c.cr{fill:var(--c1);animation-name:cr}@keyframes cs{47.83%{fill:var(--c2)}47.85%,100%{fill:var(--ce)}}.c.cs{fill:var(--c2);animation-name:cs}@keyframes ct{24.24%{fill:var(--c1)}24.26%,100%{fill:var(--ce)}}.c.ct{fill:var(--c1);animation-name:ct}@keyframes cu{23.91%{fill:var(--c1)}23.93%,100%{fill:var(--ce)}}.c.cu{fill:var(--c1);animation-name:cu}@keyframes cv{18.26%{fill:var(--c1)}18.28%,100%{fill:var(--ce)}}.c.cv{fill:var(--c1);animation-name:cv}@keyframes cw{30.55%{fill:var(--c1)}30.57%,100%{fill:var(--ce)}}.c.cw{fill:var(--c1);animation-name:cw}@keyframes cx{43.51%{fill:var(--c1)}43.53%,100%{fill:var(--ce)}}.c.cx{fill:var(--c1);animation-name:cx}@keyframes cy{43.18%{fill:var(--c1)}43.2%,100%{fill:var(--ce)}}.c.cy{fill:var(--c1);animation-name:cy}@keyframes cz{21.58%{fill:var(--c1)}21.6%,100%{fill:var(--ce)}}.c.cz{fill:var(--c1);animation-name:cz}@keyframes c10{21.92%{fill:var(--c1)}21.94%,100%{fill:var(--ce)}}.c.c10{fill:var(--c1);animation-name:c10}@keyframes c11{23.58%{fill:var(--c1)}23.6%,100%{fill:var(--ce)}}.c.c11{fill:var(--c1);animation-name:c11}@keyframes c12{18.59%{fill:var(--c1)}18.61%,100%{fill:var(--ce)}}.c.c12{fill:var(--c1);animation-name:c12}@keyframes c13{30.89%{fill:var(--c1)}30.91%,100%{fill:var(--ce)}}.c.c13{fill:var(--c1);animation-name:c13}@keyframes c14{31.22%{fill:var(--c1)}31.24%,100%{fill:var(--ce)}}.c.c14{fill:var(--c1);animation-name:c14}@keyframes c15{42.85%{fill:var(--c1)}42.87%,100%{fill:var(--ce)}}.c.c15{fill:var(--c1);animation-name:c15}@keyframes c16{21.25%{fill:var(--c1)}21.27%,100%{fill:var(--ce)}}.c.c16{fill:var(--c1);animation-name:c16}@keyframes c17{22.25%{fill:var(--c1)}22.27%,100%{fill:var(--ce)}}.c.c17{fill:var(--c1);animation-name:c17}@keyframes c18{23.25%{fill:var(--c1)}23.27%,100%{fill:var(--ce)}}.c.c18{fill:var(--c1);animation-name:c18}@keyframes c19{18.93%{fill:var(--c1)}18.95%,100%{fill:var(--ce)}}.c.c19{fill:var(--c1);animation-name:c19}@keyframes c1a{75.07%{fill:var(--c3)}75.09%,100%{fill:var(--ce)}}.c.c1a{fill:var(--c3);animation-name:c1a}@keyframes c1b{31.55%{fill:var(--c1)}31.57%,100%{fill:var(--ce)}}.c.c1b{fill:var(--c1);animation-name:c1b}@keyframes c1c{42.51%{fill:var(--c1)}42.53%,100%{fill:var(--ce)}}.c.c1c{fill:var(--c1);animation-name:c1c}@keyframes c1d{20.92%{fill:var(--c1)}20.94%,100%{fill:var(--ce)}}.c.c1d{fill:var(--c1);animation-name:c1d}@keyframes c1e{22.58%{fill:var(--c1)}22.6%,100%{fill:var(--ce)}}.c.c1e{fill:var(--c1);animation-name:c1e}@keyframes c1f{19.59%{fill:var(--c1)}19.61%,100%{fill:var(--ce)}}.c.c1f{fill:var(--c1);animation-name:c1f}@keyframes c1g{19.26%{fill:var(--c1)}19.28%,100%{fill:var(--ce)}}.c.c1g{fill:var(--c1);animation-name:c1g}@keyframes c1h{38.86%{fill:var(--c1)}38.88%,100%{fill:var(--ce)}}.c.c1h{fill:var(--c1);animation-name:c1h}@keyframes c1i{31.88%{fill:var(--c1)}31.9%,100%{fill:var(--ce)}}.c.c1i{fill:var(--c1);animation-name:c1i}@keyframes c1j{39.52%{fill:var(--c1)}39.54%,100%{fill:var(--ce)}}.c.c1j{fill:var(--c1);animation-name:c1j}@keyframes c1k{20.59%{fill:var(--c1)}20.61%,100%{fill:var(--ce)}}.c.c1k{fill:var(--c1);animation-name:c1k}@keyframes c1l{20.26%{fill:var(--c1)}20.28%,100%{fill:var(--ce)}}.c.c1l{fill:var(--c1);animation-name:c1l}@keyframes c1m{19.92%{fill:var(--c1)}19.94%,100%{fill:var(--ce)}}.c.c1m{fill:var(--c1);animation-name:c1m}@keyframes c1n{76.07%{fill:var(--c4)}76.09%,100%{fill:var(--ce)}}.c.c1n{fill:var(--c4);animation-name:c1n}@keyframes c1o{38.53%{fill:var(--c1)}38.55%,100%{fill:var(--ce)}}.c.c1o{fill:var(--c1);animation-name:c1o}@keyframes c1p{32.22%{fill:var(--c1)}32.24%,100%{fill:var(--ce)}}.c.c1p{fill:var(--c1);animation-name:c1p}@keyframes c1q{39.86%{fill:var(--c1)}39.88%,100%{fill:var(--ce)}}.c.c1q{fill:var(--c1);animation-name:c1q}@keyframes c1r{78.06%{fill:var(--c4)}78.08%,100%{fill:var(--ce)}}.c.c1r{fill:var(--c4);animation-name:c1r}@keyframes c1s{49.82%{fill:var(--c2)}49.84%,100%{fill:var(--ce)}}.c.c1s{fill:var(--c2);animation-name:c1s}@keyframes c1t{50.16%{fill:var(--c2)}50.18%,100%{fill:var(--ce)}}.c.c1t{fill:var(--c2);animation-name:c1t}@keyframes c1u{33.21%{fill:var(--c1)}33.23%,100%{fill:var(--ce)}}.c.c1u{fill:var(--c1);animation-name:c1u}@keyframes c1v{32.88%{fill:var(--c1)}32.9%,100%{fill:var(--ce)}}.c.c1v{fill:var(--c1);animation-name:c1v}@keyframes c1w{32.55%{fill:var(--c1)}32.57%,100%{fill:var(--ce)}}.c.c1w{fill:var(--c1);animation-name:c1w}@keyframes c1x{40.19%{fill:var(--c1)}40.21%,100%{fill:var(--ce)}}.c.c1x{fill:var(--c1);animation-name:c1x}@keyframes c1y{35.21%{fill:var(--c1)}35.23%,100%{fill:var(--ce)}}.c.c1y{fill:var(--c1);animation-name:c1y}@keyframes c1z{77.4%{fill:var(--c4)}77.42%,100%{fill:var(--ce)}}.c.c1z{fill:var(--c4);animation-name:c1z}@keyframes c20{37.2%{fill:var(--c1)}37.22%,100%{fill:var(--ce)}}.c.c20{fill:var(--c1);animation-name:c20}@keyframes c21{33.54%{fill:var(--c1)}33.56%,100%{fill:var(--ce)}}.c.c21{fill:var(--c1);animation-name:c21}@keyframes c22{51.15%{fill:var(--c2)}51.17%,100%{fill:var(--ce)}}.c.c22{fill:var(--c2);animation-name:c22}@keyframes c23{51.49%{fill:var(--c2)}51.51%,100%{fill:var(--ce)}}.c.c23{fill:var(--c2);animation-name:c23}@keyframes c24{40.52%{fill:var(--c1)}40.54%,100%{fill:var(--ce)}}.c.c24{fill:var(--c1);animation-name:c24}@keyframes c25{34.87%{fill:var(--c1)}34.89%,100%{fill:var(--ce)}}.c.c25{fill:var(--c1);animation-name:c25}@keyframes c26{34.54%{fill:var(--c1)}34.56%,100%{fill:var(--ce)}}.c.c26{fill:var(--c1);animation-name:c26}@keyframes c27{34.21%{fill:var(--c1)}34.23%,100%{fill:var(--ce)}}.c.c27{fill:var(--c1);animation-name:c27}@keyframes c28{33.88%{fill:var(--c1)}33.9%,100%{fill:var(--ce)}}.c.c28{fill:var(--c1);animation-name:c28}.u{transform-origin:0 0;transform:scale(0,1);animation:none linear 30100ms infinite}@keyframes u0{6.97%{transform:scale(0.000,1)}6.99%,9.62%{transform:scale(0.016,1)}9.64%,11.62%{transform:scale(0.033,1)}11.64%,16.93%{transform:scale(0.049,1)}16.95%,17.6%{transform:scale(0.066,1)}17.62%,17.93%{transform:scale(0.082,1)}17.95%,18.26%{transform:scale(0.098,1)}18.28%,18.59%{transform:scale(0.115,1)}18.61%,18.93%{transform:scale(0.131,1)}18.95%,19.26%{transform:scale(0.148,1)}19.28%,19.59%{transform:scale(0.164,1)}19.61%,19.92%{transform:scale(0.180,1)}19.94%,20.26%{transform:scale(0.197,1)}20.28%,20.59%{transform:scale(0.213,1)}20.61%,20.92%{transform:scale(0.230,1)}20.94%,21.25%{transform:scale(0.246,1)}21.27%,21.58%{transform:scale(0.262,1)}21.6%,21.92%{transform:scale(0.279,1)}21.94%,22.25%{transform:scale(0.295,1)}22.27%,22.58%{transform:scale(0.311,1)}22.6%,23.25%{transform:scale(0.328,1)}23.27%,23.58%{transform:scale(0.344,1)}23.6%,23.91%{transform:scale(0.361,1)}23.93%,24.24%{transform:scale(0.377,1)}24.26%,25.57%{transform:scale(0.393,1)}25.59%,25.9%{transform:scale(0.410,1)}25.92%,26.24%{transform:scale(0.426,1)}26.26%,26.57%{transform:scale(0.443,1)}26.59%,26.9%{transform:scale(0.459,1)}26.92%,28.56%{transform:scale(0.475,1)}28.58%,29.89%{transform:scale(0.492,1)}29.91%,30.22%{transform:scale(0.508,1)}30.24%,30.55%{transform:scale(0.525,1)}30.57%,30.89%{transform:scale(0.541,1)}30.91%,31.22%{transform:scale(0.557,1)}31.24%,31.55%{transform:scale(0.574,1)}31.57%,31.88%{transform:scale(0.590,1)}31.9%,32.22%{transform:scale(0.607,1)}32.24%,32.55%{transform:scale(0.623,1)}32.57%,32.88%{transform:scale(0.639,1)}32.9%,33.21%{transform:scale(0.656,1)}33.23%,33.54%{transform:scale(0.672,1)}33.56%,33.88%{transform:scale(0.689,1)}33.9%,34.21%{transform:scale(0.705,1)}34.23%,34.54%{transform:scale(0.721,1)}34.56%,34.87%{transform:scale(0.738,1)}34.89%,35.21%{transform:scale(0.754,1)}35.23%,37.2%{transform:scale(0.770,1)}37.22%,38.53%{transform:scale(0.787,1)}38.55%,38.86%{transform:scale(0.803,1)}38.88%,39.52%{transform:scale(0.820,1)}39.54%,39.86%{transform:scale(0.836,1)}39.88%,40.19%{transform:scale(0.852,1)}40.21%,40.52%{transform:scale(0.869,1)}40.54%,42.51%{transform:scale(0.885,1)}42.53%,42.85%{transform:scale(0.902,1)}42.87%,43.18%{transform:scale(0.918,1)}43.2%,43.51%{transform:scale(0.934,1)}43.53%,44.84%{transform:scale(0.951,1)}44.86%,45.17%{transform:scale(0.967,1)}45.19%,45.5%{transform:scale(0.984,1)}45.52%,100%{transform:scale(1.000,1)}}.u.u0{fill:var(--c1);animation-name:u0;transform-origin:0.0px 0}@keyframes u1{45.84%{transform:scale(0.000,1)}45.86%,47.83%{transform:scale(0.111,1)}47.85%,49.82%{transform:scale(0.222,1)}49.84%,50.16%{transform:scale(0.333,1)}50.18%,51.15%{transform:scale(0.444,1)}51.17%,51.49%{transform:scale(0.556,1)}51.51%,60.12%{transform:scale(0.667,1)}60.14%,60.46%{transform:scale(0.778,1)}60.48%,64.44%{transform:scale(0.889,1)}64.46%,100%{transform:scale(1.000,1)}}.u.u1{fill:var(--c2);animation-name:u1;transform-origin:638.6px 0}@keyframes u2{73.08%{transform:scale(0.000,1)}73.1%,75.07%{transform:scale(0.500,1)}75.09%,100%{transform:scale(1.000,1)}}.u.u2{fill:var(--c3);animation-name:u2;transform-origin:732.8px 0}@keyframes u3{76.07%{transform:scale(0.000,1)}76.09%,77.4%{transform:scale(0.111,1)}77.42%,78.06%{transform:scale(0.222,1)}78.08%,82.38%{transform:scale(0.333,1)}82.4%,82.71%{transform:scale(0.444,1)}82.73%,83.05%{transform:scale(0.556,1)}83.07%,83.38%{transform:scale(0.667,1)}83.4%,83.71%{transform:scale(0.778,1)}83.73%,93.35%{transform:scale(0.889,1)}93.37%,100%{transform:scale(1.000,1)}}.u.u3{fill:var(--c4);animation-name:u3;transform-origin:753.8px 0}.s{shape-rendering:geometricPrecision;fill:var(--cs);animation:none linear 30100ms infinite}@keyframes s0{0%,99.67%{transform:translate(0px,-16px)}0.33%{transform:translate(0px,0px)}5.98%{transform:translate(272px,0px)}6.31%{transform:translate(272px,16px)}7.97%{transform:translate(352px,16px)}9.63%{transform:translate(352px,96px)}15.61%{transform:translate(640px,96px)}16.61%{transform:translate(640px,48px)}19.27%,53.16%{transform:translate(768px,48px)}19.6%,22.92%{transform:translate(768px,32px)}19.93%{transform:translate(784px,32px)}20.6%,49.17%{transform:translate(784px,0px)}21.59%{transform:translate(736px,0px)}21.93%,24.58%{transform:translate(736px,16px)}22.59%{transform:translate(768px,16px)}23.92%{transform:translate(720px,32px)}24.25%{transform:translate(720px,16px)}24.92%{transform:translate(736px,32px)}25.91%{transform:translate(688px,32px)}26.58%{transform:translate(688px,0px)}26.91%{transform:translate(704px,0px)}27.24%{transform:translate(704px,-16px)}27.91%{transform:translate(672px,-16px)}28.57%{transform:translate(672px,16px)}28.9%{transform:translate(688px,16px)}29.9%{transform:translate(688px,64px)}30.9%{transform:translate(736px,64px)}31.23%,43.85%{transform:translate(736px,80px)}32.56%,51.83%{transform:translate(800px,80px)}33.22%,37.87%{transform:translate(800px,48px)}33.89%{transform:translate(832px,48px)}34.88%{transform:translate(832px,0px)}35.22%,77.74%{transform:translate(816px,0px)}35.55%{transform:translate(816px,-16px)}35.88%{transform:translate(832px,-16px)}36.88%{transform:translate(832px,32px)}37.21%,50.5%{transform:translate(816px,32px)}37.54%,76.74%{transform:translate(816px,48px)}38.21%,52.16%{transform:translate(800px,64px)}38.87%,52.82%{transform:translate(768px,64px)}39.53%{transform:translate(768px,96px)}40.53%{transform:translate(816px,96px)}40.86%{transform:translate(816px,112px)}41.2%{transform:translate(800px,112px)}41.53%{transform:translate(800px,96px)}43.19%{transform:translate(720px,96px)}43.52%,46.18%{transform:translate(720px,80px)}44.19%{transform:translate(736px,96px)}45.18%{transform:translate(688px,96px)}45.51%{transform:translate(688px,80px)}47.84%{transform:translate(720px,0px)}49.5%{transform:translate(784px,16px)}49.83%{transform:translate(800px,16px)}50.17%{transform:translate(800px,32px)}51.5%{transform:translate(816px,80px)}59.8%{transform:translate(448px,48px)}60.47%{transform:translate(448px,80px)}60.8%{transform:translate(432px,80px)}61.79%{transform:translate(432px,32px)}64.45%{transform:translate(304px,32px)}64.78%{transform:translate(304px,16px)}74.09%{transform:translate(752px,16px)}75.08%{transform:translate(752px,64px)}75.75%{transform:translate(784px,64px)}76.08%{transform:translate(784px,48px)}81.06%,85.71%{transform:translate(656px,0px)}82.72%{transform:translate(656px,80px)}83.06%{transform:translate(672px,80px)}83.39%{transform:translate(672px,96px)}83.72%{transform:translate(656px,96px)}97.34%{transform:translate(96px,0px)}97.67%{transform:translate(96px,-16px)}}.s.s0{transform:translate(0px,-16px);animation-name:s0}@keyframes s1{0%,99.67%{transform:translate(16px,-16px)}0.33%{transform:translate(0px,-16px)}0.66%{transform:translate(0px,0px)}6.31%{transform:translate(272px,0px)}6.64%{transform:translate(272px,16px)}8.31%{transform:translate(352px,16px)}9.97%{transform:translate(352px,96px)}15.95%{transform:translate(640px,96px)}16.94%{transform:translate(640px,48px)}19.6%,53.49%{transform:translate(768px,48px)}19.93%,23.26%{transform:translate(768px,32px)}20.27%{transform:translate(784px,32px)}20.93%,49.5%{transform:translate(784px,0px)}21.93%{transform:translate(736px,0px)}22.26%,24.92%{transform:translate(736px,16px)}22.92%{transform:translate(768px,16px)}24.25%{transform:translate(720px,32px)}24.58%{transform:translate(720px,16px)}25.25%{transform:translate(736px,32px)}26.25%{transform:translate(688px,32px)}26.91%{transform:translate(688px,0px)}27.24%{transform:translate(704px,0px)}27.57%{transform:translate(704px,-16px)}28.24%{transform:translate(672px,-16px)}28.9%{transform:translate(672px,16px)}29.24%{transform:translate(688px,16px)}30.23%{transform:translate(688px,64px)}31.23%{transform:translate(736px,64px)}31.56%,44.19%{transform:translate(736px,80px)}32.89%,52.16%{transform:translate(800px,80px)}33.55%,38.21%{transform:translate(800px,48px)}34.22%{transform:translate(832px,48px)}35.22%{transform:translate(832px,0px)}35.55%,78.07%{transform:translate(816px,0px)}35.88%{transform:translate(816px,-16px)}36.21%{transform:translate(832px,-16px)}37.21%{transform:translate(832px,32px)}37.54%,50.83%{transform:translate(816px,32px)}37.87%,77.08%{transform:translate(816px,48px)}38.54%,52.49%{transform:translate(800px,64px)}39.2%,53.16%{transform:translate(768px,64px)}39.87%{transform:translate(768px,96px)}40.86%{transform:translate(816px,96px)}41.2%{transform:translate(816px,112px)}41.53%{transform:translate(800px,112px)}41.86%{transform:translate(800px,96px)}43.52%{transform:translate(720px,96px)}43.85%,46.51%{transform:translate(720px,80px)}44.52%{transform:translate(736px,96px)}45.51%{transform:translate(688px,96px)}45.85%{transform:translate(688px,80px)}48.17%{transform:translate(720px,0px)}49.83%{transform:translate(784px,16px)}50.17%{transform:translate(800px,16px)}50.5%{transform:translate(800px,32px)}51.83%{transform:translate(816px,80px)}60.13%{transform:translate(448px,48px)}60.8%{transform:translate(448px,80px)}61.13%{transform:translate(432px,80px)}62.13%{transform:translate(432px,32px)}64.78%{transform:translate(304px,32px)}65.12%{transform:translate(304px,16px)}74.42%{transform:translate(752px,16px)}75.42%{transform:translate(752px,64px)}76.08%{transform:translate(784px,64px)}76.41%{transform:translate(784px,48px)}81.4%,86.05%{transform:translate(656px,0px)}83.06%{transform:translate(656px,80px)}83.39%{transform:translate(672px,80px)}83.72%{transform:translate(672px,96px)}84.05%{transform:translate(656px,96px)}97.67%{transform:translate(96px,0px)}98.01%{transform:translate(96px,-16px)}}.s.s1{transform:translate(16px,-16px);animation-name:s1}@keyframes s2{0%,99.67%{transform:translate(32px,-16px)}0.66%{transform:translate(0px,-16px)}1%{transform:translate(0px,0px)}6.64%{transform:translate(272px,0px)}6.98%{transform:translate(272px,16px)}8.64%{transform:translate(352px,16px)}10.3%{transform:translate(352px,96px)}16.28%{transform:translate(640px,96px)}17.28%{transform:translate(640px,48px)}19.93%,53.82%{transform:translate(768px,48px)}20.27%,23.59%{transform:translate(768px,32px)}20.6%{transform:translate(784px,32px)}21.26%,49.83%{transform:translate(784px,0px)}22.26%{transform:translate(736px,0px)}22.59%,25.25%{transform:translate(736px,16px)}23.26%{transform:translate(768px,16px)}24.58%{transform:translate(720px,32px)}24.92%{transform:translate(720px,16px)}25.58%{transform:translate(736px,32px)}26.58%{transform:translate(688px,32px)}27.24%{transform:translate(688px,0px)}27.57%{transform:translate(704px,0px)}27.91%{transform:translate(704px,-16px)}28.57%{transform:translate(672px,-16px)}29.24%{transform:translate(672px,16px)}29.57%{transform:translate(688px,16px)}30.56%{transform:translate(688px,64px)}31.56%{transform:translate(736px,64px)}31.89%,44.52%{transform:translate(736px,80px)}33.22%,52.49%{transform:translate(800px,80px)}33.89%,38.54%{transform:translate(800px,48px)}34.55%{transform:translate(832px,48px)}35.55%{transform:translate(832px,0px)}35.88%,78.41%{transform:translate(816px,0px)}36.21%{transform:translate(816px,-16px)}36.54%{transform:translate(832px,-16px)}37.54%{transform:translate(832px,32px)}37.87%,51.16%{transform:translate(816px,32px)}38.21%,77.41%{transform:translate(816px,48px)}38.87%,52.82%{transform:translate(800px,64px)}39.53%,53.49%{transform:translate(768px,64px)}40.2%{transform:translate(768px,96px)}41.2%{transform:translate(816px,96px)}41.53%{transform:translate(816px,112px)}41.86%{transform:translate(800px,112px)}42.19%{transform:translate(800px,96px)}43.85%{transform:translate(720px,96px)}44.19%,46.84%{transform:translate(720px,80px)}44.85%{transform:translate(736px,96px)}45.85%{transform:translate(688px,96px)}46.18%{transform:translate(688px,80px)}48.5%{transform:translate(720px,0px)}50.17%{transform:translate(784px,16px)}50.5%{transform:translate(800px,16px)}50.83%{transform:translate(800px,32px)}52.16%{transform:translate(816px,80px)}60.47%{transform:translate(448px,48px)}61.13%{transform:translate(448px,80px)}61.46%{transform:translate(432px,80px)}62.46%{transform:translate(432px,32px)}65.12%{transform:translate(304px,32px)}65.45%{transform:translate(304px,16px)}74.75%{transform:translate(752px,16px)}75.75%{transform:translate(752px,64px)}76.41%{transform:translate(784px,64px)}76.74%{transform:translate(784px,48px)}81.73%,86.38%{transform:translate(656px,0px)}83.39%{transform:translate(656px,80px)}83.72%{transform:translate(672px,80px)}84.05%{transform:translate(672px,96px)}84.39%{transform:translate(656px,96px)}98.01%{transform:translate(96px,0px)}98.34%{transform:translate(96px,-16px)}}.s.s2{transform:translate(32px,-16px);animation-name:s2}@keyframes s3{0%,99.67%{transform:translate(48px,-16px)}1%{transform:translate(0px,-16px)}1.33%{transform:translate(0px,0px)}6.98%{transform:translate(272px,0px)}7.31%{transform:translate(272px,16px)}8.97%{transform:translate(352px,16px)}10.63%{transform:translate(352px,96px)}16.61%{transform:translate(640px,96px)}17.61%{transform:translate(640px,48px)}20.27%,54.15%{transform:translate(768px,48px)}20.6%,23.92%{transform:translate(768px,32px)}20.93%{transform:translate(784px,32px)}21.59%,50.17%{transform:translate(784px,0px)}22.59%{transform:translate(736px,0px)}22.92%,25.58%{transform:translate(736px,16px)}23.59%{transform:translate(768px,16px)}24.92%{transform:translate(720px,32px)}25.25%{transform:translate(720px,16px)}25.91%{transform:translate(736px,32px)}26.91%{transform:translate(688px,32px)}27.57%{transform:translate(688px,0px)}27.91%{transform:translate(704px,0px)}28.24%{transform:translate(704px,-16px)}28.9%{transform:translate(672px,-16px)}29.57%{transform:translate(672px,16px)}29.9%{transform:translate(688px,16px)}30.9%{transform:translate(688px,64px)}31.89%{transform:translate(736px,64px)}32.23%,44.85%{transform:translate(736px,80px)}33.55%,52.82%{transform:translate(800px,80px)}34.22%,38.87%{transform:translate(800px,48px)}34.88%{transform:translate(832px,48px)}35.88%{transform:translate(832px,0px)}36.21%,78.74%{transform:translate(816px,0px)}36.54%{transform:translate(816px,-16px)}36.88%{transform:translate(832px,-16px)}37.87%{transform:translate(832px,32px)}38.21%,51.5%{transform:translate(816px,32px)}38.54%,77.74%{transform:translate(816px,48px)}39.2%,53.16%{transform:translate(800px,64px)}39.87%,53.82%{transform:translate(768px,64px)}40.53%{transform:translate(768px,96px)}41.53%{transform:translate(816px,96px)}41.86%{transform:translate(816px,112px)}42.19%{transform:translate(800px,112px)}42.52%{transform:translate(800px,96px)}44.19%{transform:translate(720px,96px)}44.52%,47.18%{transform:translate(720px,80px)}45.18%{transform:translate(736px,96px)}46.18%{transform:translate(688px,96px)}46.51%{transform:translate(688px,80px)}48.84%{transform:translate(720px,0px)}50.5%{transform:translate(784px,16px)}50.83%{transform:translate(800px,16px)}51.16%{transform:translate(800px,32px)}52.49%{transform:translate(816px,80px)}60.8%{transform:translate(448px,48px)}61.46%{transform:translate(448px,80px)}61.79%{transform:translate(432px,80px)}62.79%{transform:translate(432px,32px)}65.45%{transform:translate(304px,32px)}65.78%{transform:translate(304px,16px)}75.08%{transform:translate(752px,16px)}76.08%{transform:translate(752px,64px)}76.74%{transform:translate(784px,64px)}77.08%{transform:translate(784px,48px)}82.06%,86.71%{transform:translate(656px,0px)}83.72%{transform:translate(656px,80px)}84.05%{transform:translate(672px,80px)}84.39%{transform:translate(672px,96px)}84.72%{transform:translate(656px,96px)}98.34%{transform:translate(96px,0px)}98.67%{transform:translate(96px,-16px)}}.s.s3{transform:translate(48px,-16px);animation-name:s3}</style><rect class="c" x="2" y="2" rx="2" ry="2"/><rect class="c" x="2" y="18" rx="2" ry="2"/><rect class="c" x="2" y="34" rx="2" ry="2"/><rect class="c" x="2" y="50" rx="2" ry="2"/><rect class="c" x="2" y="66" rx="2" ry="2"/><rect class="c" x="2" y="82" rx="2" ry="2"/><rect class="c" x="2" y="98" rx="2" ry="2"/><rect class="c" x="18" y="2" rx="2" ry="2"/><rect class="c" x="18" y="18" rx="2" ry="2"/><rect class="c" x="18" y="34" rx="2" ry="2"/><rect class="c" x="18" y="50" rx="2" ry="2"/><rect class="c" x="18" y="66" rx="2" ry="2"/><rect class="c" x="18" y="82" rx="2" ry="2"/><rect class="c" x="18" y="98" rx="2" ry="2"/><rect class="c" x="34" y="2" rx="2" ry="2"/><rect class="c" x="34" y="18" rx="2" ry="2"/><rect class="c" x="34" y="34" rx="2" ry="2"/><rect class="c" x="34" y="50" rx="2" ry="2"/><rect class="c" x="34" y="66" rx="2" ry="2"/><rect class="c" x="34" y="82" rx="2" ry="2"/><rect class="c" x="34" y="98" rx="2" ry="2"/><rect class="c" x="50" y="2" rx="2" ry="2"/><rect class="c" x="50" y="18" rx="2" ry="2"/><rect class="c" x="50" y="34" rx="2" ry="2"/><rect class="c" x="50" y="50" rx="2" ry="2"/><rect class="c" x="50" y="66" rx="2" ry="2"/><rect class="c" x="50" y="82" rx="2" ry="2"/><rect class="c" x="50" y="98" rx="2" ry="2"/><rect class="c" x="66" y="2" rx="2" ry="2"/><rect class="c" x="66" y="18" rx="2" ry="2"/><rect class="c" x="66" y="34" rx="2" ry="2"/><rect class="c" x="66" y="50" rx="2" ry="2"/><rect class="c" x="66" y="66" rx="2" ry="2"/><rect class="c" x="66" y="82" rx="2" ry="2"/><rect class="c" x="66" y="98" rx="2" ry="2"/><rect class="c" x="82" y="2" rx="2" ry="2"/><rect class="c" x="82" y="18" rx="2" ry="2"/><rect class="c" x="82" y="34" rx="2" ry="2"/><rect class="c" x="82" y="50" rx="2" ry="2"/><rect class="c" x="82" y="66" rx="2" ry="2"/><rect class="c" x="82" y="82" rx="2" ry="2"/><rect class="c" x="82" y="98" rx="2" ry="2"/><rect class="c" x="98" y="2" rx="2" ry="2"/><rect class="c" x="98" y="18" rx="2" ry="2"/><rect class="c" x="98" y="34" rx="2" ry="2"/><rect class="c" x="98" y="50" rx="2" ry="2"/><rect class="c" x="98" y="66" rx="2" ry="2"/><rect class="c" x="98" y="82" rx="2" ry="2"/><rect class="c" x="98" y="98" rx="2" ry="2"/><rect class="c" x="114" y="2" rx="2" ry="2"/><rect class="c" x="114" y="18" rx="2" ry="2"/><rect class="c" x="114" y="34" rx="2" ry="2"/><rect class="c" x="114" y="50" rx="2" ry="2"/><rect class="c" x="114" y="66" rx="2" ry="2"/><rect class="c" x="114" y="82" rx="2" ry="2"/><rect class="c" x="114" y="98" rx="2" ry="2"/><rect class="c" x="130" y="2" rx="2" ry="2"/><rect class="c" x="130" y="18" rx="2" ry="2"/><rect class="c" x="130" y="34" rx="2" ry="2"/><rect class="c" x="130" y="50" rx="2" ry="2"/><rect class="c" x="130" y="66" rx="2" ry="2"/><rect class="c" x="130" y="82" rx="2" ry="2"/><rect class="c" x="130" y="98" rx="2" ry="2"/><rect class="c" x="146" y="2" rx="2" ry="2"/><rect class="c" x="146" y="18" rx="2" ry="2"/><rect class="c" x="146" y="34" rx="2" ry="2"/><rect class="c" x="146" y="50" rx="2" ry="2"/><rect class="c" x="146" y="66" rx="2" ry="2"/><rect class="c" x="146" y="82" rx="2" ry="2"/><rect class="c" x="146" y="98" rx="2" ry="2"/><rect class="c" x="162" y="2" rx="2" ry="2"/><rect class="c" x="162" y="18" rx="2" ry="2"/><rect class="c" x="162" y="34" rx="2" ry="2"/><rect class="c" x="162" y="50" rx="2" ry="2"/><rect class="c" x="162" y="66" rx="2" ry="2"/><rect class="c" x="162" y="82" rx="2" ry="2"/><rect class="c" x="162" y="98" rx="2" ry="2"/><rect class="c" x="178" y="2" rx="2" ry="2"/><rect class="c" x="178" y="18" rx="2" ry="2"/><rect class="c" x="178" y="34" rx="2" ry="2"/><rect class="c" x="178" y="50" rx="2" ry="2"/><rect class="c" x="178" y="66" rx="2" ry="2"/><rect class="c" x="178" y="82" rx="2" ry="2"/><rect class="c" x="178" y="98" rx="2" ry="2"/><rect class="c" x="194" y="2" rx="2" ry="2"/><rect class="c" x="194" y="18" rx="2" ry="2"/><rect class="c" x="194" y="34" rx="2" ry="2"/><rect class="c" x="194" y="50" rx="2" ry="2"/><rect class="c" x="194" y="66" rx="2" ry="2"/><rect class="c" x="194" y="82" rx="2" ry="2"/><rect class="c" x="194" y="98" rx="2" ry="2"/><rect class="c" x="210" y="2" rx="2" ry="2"/><rect class="c" x="210" y="18" rx="2" ry="2"/><rect class="c" x="210" y="34" rx="2" ry="2"/><rect class="c" x="210" y="50" rx="2" ry="2"/><rect class="c" x="210" y="66" rx="2" ry="2"/><rect class="c" x="210" y="82" rx="2" ry="2"/><rect class="c" x="210" y="98" rx="2" ry="2"/><rect class="c" x="226" y="2" rx="2" ry="2"/><rect class="c" x="226" y="18" rx="2" ry="2"/><rect class="c" x="226" y="34" rx="2" ry="2"/><rect class="c" x="226" y="50" rx="2" ry="2"/><rect class="c" x="226" y="66" rx="2" ry="2"/><rect class="c" x="226" y="82" rx="2" ry="2"/><rect class="c" x="226" y="98" rx="2" ry="2"/><rect class="c" x="242" y="2" rx="2" ry="2"/><rect class="c" x="242" y="18" rx="2" ry="2"/><rect class="c" x="242" y="34" rx="2" ry="2"/><rect class="c" x="242" y="50" rx="2" ry="2"/><rect class="c" x="242" y="66" rx="2" ry="2"/><rect class="c" x="242" y="82" rx="2" ry="2"/><rect class="c" x="242" y="98" rx="2" ry="2"/><rect class="c" x="258" y="2" rx="2" ry="2"/><rect class="c" x="258" y="18" rx="2" ry="2"/><rect class="c" x="258" y="34" rx="2" ry="2"/><rect class="c" x="258" y="50" rx="2" ry="2"/><rect class="c" x="258" y="66" rx="2" ry="2"/><rect class="c" x="258" y="82" rx="2" ry="2"/><rect class="c" x="258" y="98" rx="2" ry="2"/><rect class="c" x="274" y="2" rx="2" ry="2"/><rect class="c" x="274" y="18" rx="2" ry="2"/><rect class="c" x="274" y="34" rx="2" ry="2"/><rect class="c" x="274" y="50" rx="2" ry="2"/><rect class="c" x="274" y="66" rx="2" ry="2"/><rect class="c" x="274" y="82" rx="2" ry="2"/><rect class="c" x="274" y="98" rx="2" ry="2"/><rect class="c c0" x="290" y="2" rx="2" ry="2"/><rect class="c" x="290" y="18" rx="2" ry="2"/><rect class="c" x="290" y="34" rx="2" ry="2"/><rect class="c" x="290" y="50" rx="2" ry="2"/><rect class="c" x="290" y="66" rx="2" ry="2"/><rect class="c" x="290" y="82" rx="2" ry="2"/><rect class="c" x="290" y="98" rx="2" ry="2"/><rect class="c" x="306" y="2" rx="2" ry="2"/><rect class="c c1" x="306" y="18" rx="2" ry="2"/><rect class="c c2" x="306" y="34" rx="2" ry="2"/><rect class="c" x="306" y="50" rx="2" ry="2"/><rect class="c" x="306" y="66" rx="2" ry="2"/><rect class="c" x="306" y="82" rx="2" ry="2"/><rect class="c" x="306" y="98" rx="2" ry="2"/><rect class="c" x="322" y="2" rx="2" ry="2"/><rect class="c" x="322" y="18" rx="2" ry="2"/><rect class="c" x="322" y="34" rx="2" ry="2"/><rect class="c" x="322" y="50" rx="2" ry="2"/><rect class="c" x="322" y="66" rx="2" ry="2"/><rect class="c" x="322" y="82" rx="2" ry="2"/><rect class="c" x="322" y="98" rx="2" ry="2"/><rect class="c" x="338" y="2" rx="2" ry="2"/><rect class="c" x="338" y="18" rx="2" ry="2"/><rect class="c" x="338" y="34" rx="2" ry="2"/><rect class="c" x="338" y="50" rx="2" ry="2"/><rect class="c" x="338" y="66" rx="2" ry="2"/><rect class="c" x="338" y="82" rx="2" ry="2"/><rect class="c" x="338" y="98" rx="2" ry="2"/><rect class="c" x="354" y="2" rx="2" ry="2"/><rect class="c" x="354" y="18" rx="2" ry="2"/><rect class="c" x="354" y="34" rx="2" ry="2"/><rect class="c" x="354" y="50" rx="2" ry="2"/><rect class="c" x="354" y="66" rx="2" ry="2"/><rect class="c" x="354" y="82" rx="2" ry="2"/><rect class="c c3" x="354" y="98" rx="2" ry="2"/><rect class="c" x="370" y="2" rx="2" ry="2"/><rect class="c" x="370" y="18" rx="2" ry="2"/><rect class="c" x="370" y="34" rx="2" ry="2"/><rect class="c" x="370" y="50" rx="2" ry="2"/><rect class="c" x="370" y="66" rx="2" ry="2"/><rect class="c" x="370" y="82" rx="2" ry="2"/><rect class="c" x="370" y="98" rx="2" ry="2"/><rect class="c" x="386" y="2" rx="2" ry="2"/><rect class="c" x="386" y="18" rx="2" ry="2"/><rect class="c" x="386" y="34" rx="2" ry="2"/><rect class="c" x="386" y="50" rx="2" ry="2"/><rect class="c" x="386" y="66" rx="2" ry="2"/><rect class="c" x="386" y="82" rx="2" ry="2"/><rect class="c" x="386" y="98" rx="2" ry="2"/><rect class="c" x="402" y="2" rx="2" ry="2"/><rect class="c" x="402" y="18" rx="2" ry="2"/><rect class="c" x="402" y="34" rx="2" ry="2"/><rect class="c" x="402" y="50" rx="2" ry="2"/><rect class="c" x="402" y="66" rx="2" ry="2"/><rect class="c" x="402" y="82" rx="2" ry="2"/><rect class="c" x="402" y="98" rx="2" ry="2"/><rect class="c" x="418" y="2" rx="2" ry="2"/><rect class="c" x="418" y="18" rx="2" ry="2"/><rect class="c" x="418" y="34" rx="2" ry="2"/><rect class="c" x="418" y="50" rx="2" ry="2"/><rect class="c" x="418" y="66" rx="2" ry="2"/><rect class="c" x="418" y="82" rx="2" ry="2"/><rect class="c" x="418" y="98" rx="2" ry="2"/><rect class="c" x="434" y="2" rx="2" ry="2"/><rect class="c" x="434" y="18" rx="2" ry="2"/><rect class="c" x="434" y="34" rx="2" ry="2"/><rect class="c" x="434" y="50" rx="2" ry="2"/><rect class="c" x="434" y="66" rx="2" ry="2"/><rect class="c" x="434" y="82" rx="2" ry="2"/><rect class="c" x="434" y="98" rx="2" ry="2"/><rect class="c" x="450" y="2" rx="2" ry="2"/><rect class="c" x="450" y="18" rx="2" ry="2"/><rect class="c" x="450" y="34" rx="2" ry="2"/><rect class="c" x="450" y="50" rx="2" ry="2"/><rect class="c c4" x="450" y="66" rx="2" ry="2"/><rect class="c c5" x="450" y="82" rx="2" ry="2"/><rect class="c c6" x="450" y="98" rx="2" ry="2"/><rect class="c" x="466" y="2" rx="2" ry="2"/><rect class="c" x="466" y="18" rx="2" ry="2"/><rect class="c" x="466" y="34" rx="2" ry="2"/><rect class="c" x="466" y="50" rx="2" ry="2"/><rect class="c" x="466" y="66" rx="2" ry="2"/><rect class="c" x="466" y="82" rx="2" ry="2"/><rect class="c" x="466" y="98" rx="2" ry="2"/><rect class="c" x="482" y="2" rx="2" ry="2"/><rect class="c" x="482" y="18" rx="2" ry="2"/><rect class="c" x="482" y="34" rx="2" ry="2"/><rect class="c" x="482" y="50" rx="2" ry="2"/><rect class="c" x="482" y="66" rx="2" ry="2"/><rect class="c" x="482" y="82" rx="2" ry="2"/><rect class="c" x="482" y="98" rx="2" ry="2"/><rect class="c" x="498" y="2" rx="2" ry="2"/><rect class="c" x="498" y="18" rx="2" ry="2"/><rect class="c" x="498" y="34" rx="2" ry="2"/><rect class="c" x="498" y="50" rx="2" ry="2"/><rect class="c" x="498" y="66" rx="2" ry="2"/><rect class="c" x="498" y="82" rx="2" ry="2"/><rect class="c" x="498" y="98" rx="2" ry="2"/><rect class="c" x="514" y="2" rx="2" ry="2"/><rect class="c" x="514" y="18" rx="2" ry="2"/><rect class="c" x="514" y="34" rx="2" ry="2"/><rect class="c" x="514" y="50" rx="2" ry="2"/><rect class="c" x="514" y="66" rx="2" ry="2"/><rect class="c" x="514" y="82" rx="2" ry="2"/><rect class="c" x="514" y="98" rx="2" ry="2"/><rect class="c" x="530" y="2" rx="2" ry="2"/><rect class="c" x="530" y="18" rx="2" ry="2"/><rect class="c" x="530" y="34" rx="2" ry="2"/><rect class="c" x="530" y="50" rx="2" ry="2"/><rect class="c" x="530" y="66" rx="2" ry="2"/><rect class="c" x="530" y="82" rx="2" ry="2"/><rect class="c" x="530" y="98" rx="2" ry="2"/><rect class="c" x="546" y="2" rx="2" ry="2"/><rect class="c" x="546" y="18" rx="2" ry="2"/><rect class="c" x="546" y="34" rx="2" ry="2"/><rect class="c" x="546" y="50" rx="2" ry="2"/><rect class="c" x="546" y="66" rx="2" ry="2"/><rect class="c" x="546" y="82" rx="2" ry="2"/><rect class="c" x="546" y="98" rx="2" ry="2"/><rect class="c" x="562" y="2" rx="2" ry="2"/><rect class="c" x="562" y="18" rx="2" ry="2"/><rect class="c" x="562" y="34" rx="2" ry="2"/><rect class="c" x="562" y="50" rx="2" ry="2"/><rect class="c" x="562" y="66" rx="2" ry="2"/><rect class="c" x="562" y="82" rx="2" ry="2"/><rect class="c" x="562" y="98" rx="2" ry="2"/><rect class="c" x="578" y="2" rx="2" ry="2"/><rect class="c" x="578" y="18" rx="2" ry="2"/><rect class="c" x="578" y="34" rx="2" ry="2"/><rect class="c" x="578" y="50" rx="2" ry="2"/><rect class="c" x="578" y="66" rx="2" ry="2"/><rect class="c" x="578" y="82" rx="2" ry="2"/><rect class="c" x="578" y="98" rx="2" ry="2"/><rect class="c" x="594" y="2" rx="2" ry="2"/><rect class="c" x="594" y="18" rx="2" ry="2"/><rect class="c" x="594" y="34" rx="2" ry="2"/><rect class="c" x="594" y="50" rx="2" ry="2"/><rect class="c" x="594" y="66" rx="2" ry="2"/><rect class="c" x="594" y="82" rx="2" ry="2"/><rect class="c" x="594" y="98" rx="2" ry="2"/><rect class="c" x="610" y="2" rx="2" ry="2"/><rect class="c" x="610" y="18" rx="2" ry="2"/><rect class="c" x="610" y="34" rx="2" ry="2"/><rect class="c" x="610" y="50" rx="2" ry="2"/><rect class="c" x="610" y="66" rx="2" ry="2"/><rect class="c" x="610" y="82" rx="2" ry="2"/><rect class="c" x="610" y="98" rx="2" ry="2"/><rect class="c" x="626" y="2" rx="2" ry="2"/><rect class="c" x="626" y="18" rx="2" ry="2"/><rect class="c" x="626" y="34" rx="2" ry="2"/><rect class="c" x="626" y="50" rx="2" ry="2"/><rect class="c" x="626" y="66" rx="2" ry="2"/><rect class="c" x="626" y="82" rx="2" ry="2"/><rect class="c" x="626" y="98" rx="2" ry="2"/><rect class="c" x="642" y="2" rx="2" ry="2"/><rect class="c" x="642" y="18" rx="2" ry="2"/><rect class="c" x="642" y="34" rx="2" ry="2"/><rect class="c" x="642" y="50" rx="2" ry="2"/><rect class="c" x="642" y="66" rx="2" ry="2"/><rect class="c" x="642" y="82" rx="2" ry="2"/><rect class="c" x="642" y="98" rx="2" ry="2"/><rect class="c" x="658" y="2" rx="2" ry="2"/><rect class="c" x="658" y="18" rx="2" ry="2"/><rect class="c" x="658" y="34" rx="2" ry="2"/><rect class="c c7" x="658" y="50" rx="2" ry="2"/><rect class="c c8" x="658" y="66" rx="2" ry="2"/><rect class="c c9" x="658" y="82" rx="2" ry="2"/><rect class="c ca" x="658" y="98" rx="2" ry="2"/><rect class="c" x="674" y="2" rx="2" ry="2"/><rect class="c cb" x="674" y="18" rx="2" ry="2"/><rect class="c" x="674" y="34" rx="2" ry="2"/><rect class="c" x="674" y="50" rx="2" ry="2"/><rect class="c" x="674" y="66" rx="2" ry="2"/><rect class="c cc" x="674" y="82" rx="2" ry="2"/><rect class="c cd" x="674" y="98" rx="2" ry="2"/><rect class="c ce" x="690" y="2" rx="2" ry="2"/><rect class="c cf" x="690" y="18" rx="2" ry="2"/><rect class="c cg" x="690" y="34" rx="2" ry="2"/><rect class="c ch" x="690" y="50" rx="2" ry="2"/><rect class="c ci" x="690" y="66" rx="2" ry="2"/><rect class="c cj" x="690" y="82" rx="2" ry="2"/><rect class="c ck" x="690" y="98" rx="2" ry="2"/><rect class="c cl" x="706" y="2" rx="2" ry="2"/><rect class="c cm" x="706" y="18" rx="2" ry="2"/><rect class="c cn" x="706" y="34" rx="2" ry="2"/><rect class="c co" x="706" y="50" rx="2" ry="2"/><rect class="c cp" x="706" y="66" rx="2" ry="2"/><rect class="c cq" x="706" y="82" rx="2" ry="2"/><rect class="c cr" x="706" y="98" rx="2" ry="2"/><rect class="c cs" x="722" y="2" rx="2" ry="2"/><rect class="c ct" x="722" y="18" rx="2" ry="2"/><rect class="c cu" x="722" y="34" rx="2" ry="2"/><rect class="c cv" x="722" y="50" rx="2" ry="2"/><rect class="c cw" x="722" y="66" rx="2" ry="2"/><rect class="c cx" x="722" y="82" rx="2" ry="2"/><rect class="c cy" x="722" y="98" rx="2" ry="2"/><rect class="c cz" x="738" y="2" rx="2" ry="2"/><rect class="c c10" x="738" y="18" rx="2" ry="2"/><rect class="c c11" x="738" y="34" rx="2" ry="2"/><rect class="c c12" x="738" y="50" rx="2" ry="2"/><rect class="c c13" x="738" y="66" rx="2" ry="2"/><rect class="c c14" x="738" y="82" rx="2" ry="2"/><rect class="c c15" x="738" y="98" rx="2" ry="2"/><rect class="c c16" x="754" y="2" rx="2" ry="2"/><rect class="c c17" x="754" y="18" rx="2" ry="2"/><rect class="c c18" x="754" y="34" rx="2" ry="2"/><rect class="c c19" x="754" y="50" rx="2" ry="2"/><rect class="c c1a" x="754" y="66" rx="2" ry="2"/><rect class="c c1b" x="754" y="82" rx="2" ry="2"/><rect class="c c1c" x="754" y="98" rx="2" ry="2"/><rect class="c c1d" x="770" y="2" rx="2" ry="2"/><rect class="c c1e" x="770" y="18" rx="2" ry="2"/><rect class="c c1f" x="770" y="34" rx="2" ry="2"/><rect class="c c1g" x="770" y="50" rx="2" ry="2"/><rect class="c c1h" x="770" y="66" rx="2" ry="2"/><rect class="c c1i" x="770" y="82" rx="2" ry="2"/><rect class="c c1j" x="770" y="98" rx="2" ry="2"/><rect class="c c1k" x="786" y="2" rx="2" ry="2"/><rect class="c c1l" x="786" y="18" rx="2" ry="2"/><rect class="c c1m" x="786" y="34" rx="2" ry="2"/><rect class="c c1n" x="786" y="50" rx="2" ry="2"/><rect class="c c1o" x="786" y="66" rx="2" ry="2"/><rect class="c c1p" x="786" y="82" rx="2" ry="2"/><rect class="c c1q" x="786" y="98" rx="2" ry="2"/><rect class="c c1r" x="802" y="2" rx="2" ry="2"/><rect class="c c1s" x="802" y="18" rx="2" ry="2"/><rect class="c c1t" x="802" y="34" rx="2" ry="2"/><rect class="c c1u" x="802" y="50" rx="2" ry="2"/><rect class="c c1v" x="802" y="66" rx="2" ry="2"/><rect class="c c1w" x="802" y="82" rx="2" ry="2"/><rect class="c c1x" x="802" y="98" rx="2" ry="2"/><rect class="c c1y" x="818" y="2" rx="2" ry="2"/><rect class="c c1z" x="818" y="18" rx="2" ry="2"/><rect class="c c20" x="818" y="34" rx="2" ry="2"/><rect class="c c21" x="818" y="50" rx="2" ry="2"/><rect class="c c22" x="818" y="66" rx="2" ry="2"/><rect class="c c23" x="818" y="82" rx="2" ry="2"/><rect class="c c24" x="818" y="98" rx="2" ry="2"/><rect class="c c25" x="834" y="2" rx="2" ry="2"/><rect class="c c26" x="834" y="18" rx="2" ry="2"/><rect class="c c27" x="834" y="34" rx="2" ry="2"/><rect class="c c28" x="834" y="50" rx="2" ry="2"/><rect class="c" x="834" y="66" rx="2" ry="2"/><rect class="u u0" height="12" width="639.2" x="0.0" y="144"/><rect class="u u1" height="12" width="94.8" x="638.6" y="144"/><rect class="u u2" height="12" width="21.5" x="732.8" y="144"/><rect class="u u3" height="12" width="94.8" x="753.8" y="144"/><rect class="s s0" x="0.8" y="0.8" width="14.4" height="14.4" rx="4.5" ry="4.5"/><rect class="s s1" x="1.8" y="1.8" width="12.3" height="12.3" rx="4.1" ry="4.1"/><rect class="s s2" x="2.6" y="2.6" width="10.8" height="10.8" rx="3.6" ry="3.6"/><rect class="s s3" x="3.0" y="3.0" width="9.9" height="9.9" rx="3.3" ry="3.3"/></svg>